G04 #@! TF.FileFunction,Legend,Bot*
%FSLAX46Y46*%
G04 Gerber Fmt 4.6, Leading zero omitted, Abs format (unit mm)*
G04 Created by KiCad (PCBNEW 4.0.1-stable) date 11/1/2017 9:41:47 AM*
%MOMM*%
G01*
G04 APERTURE LIST*
%ADD10C,0.150000*%
%ADD11C,0.203200*%
G04 APERTURE END LIST*
D10*
D11*
X102337810Y-133848324D02*
X102337810Y-134755467D01*
X102386190Y-134936895D01*
X102482952Y-135057848D01*
X102628095Y-135118324D01*
X102724857Y-135118324D01*
X101854000Y-135118324D02*
X101854000Y-133848324D01*
X101466953Y-133848324D01*
X101370191Y-133908800D01*
X101321810Y-133969276D01*
X101273429Y-134090229D01*
X101273429Y-134271657D01*
X101321810Y-134392610D01*
X101370191Y-134453086D01*
X101466953Y-134513562D01*
X101854000Y-134513562D01*
X100934762Y-133848324D02*
X100305810Y-133848324D01*
X100644476Y-134332133D01*
X100499334Y-134332133D01*
X100402572Y-134392610D01*
X100354191Y-134453086D01*
X100305810Y-134574038D01*
X100305810Y-134876419D01*
X100354191Y-134997371D01*
X100402572Y-135057848D01*
X100499334Y-135118324D01*
X100789619Y-135118324D01*
X100886381Y-135057848D01*
X100934762Y-134997371D01*
X99822000Y-135057848D02*
X99822000Y-135118324D01*
X99870381Y-135239276D01*
X99918762Y-135299752D01*
X98322191Y-133848324D02*
X98322191Y-134755467D01*
X98370571Y-134936895D01*
X98467333Y-135057848D01*
X98612476Y-135118324D01*
X98709238Y-135118324D01*
X97838381Y-135118324D02*
X97838381Y-133848324D01*
X97451334Y-133848324D01*
X97354572Y-133908800D01*
X97306191Y-133969276D01*
X97257810Y-134090229D01*
X97257810Y-134271657D01*
X97306191Y-134392610D01*
X97354572Y-134453086D01*
X97451334Y-134513562D01*
X97838381Y-134513562D01*
X96386953Y-134271657D02*
X96386953Y-135118324D01*
X96628857Y-133787848D02*
X96870762Y-134694990D01*
X96241810Y-134694990D01*
X95080667Y-134634514D02*
X94306572Y-134634514D01*
X92468096Y-135118324D02*
X92806762Y-134513562D01*
X93048667Y-135118324D02*
X93048667Y-133848324D01*
X92661620Y-133848324D01*
X92564858Y-133908800D01*
X92516477Y-133969276D01*
X92468096Y-134090229D01*
X92468096Y-134271657D01*
X92516477Y-134392610D01*
X92564858Y-134453086D01*
X92661620Y-134513562D01*
X93048667Y-134513562D01*
X92081048Y-134755467D02*
X91597239Y-134755467D01*
X92177810Y-135118324D02*
X91839143Y-133848324D01*
X91500477Y-135118324D01*
X91161810Y-135118324D02*
X91161810Y-133848324D01*
X90823144Y-134755467D01*
X90484477Y-133848324D01*
X90484477Y-135118324D01*
X88791144Y-135118324D02*
X88791144Y-134453086D01*
X88839525Y-134332133D01*
X88936287Y-134271657D01*
X89129810Y-134271657D01*
X89226572Y-134332133D01*
X88791144Y-135057848D02*
X88887906Y-135118324D01*
X89129810Y-135118324D01*
X89226572Y-135057848D01*
X89274953Y-134936895D01*
X89274953Y-134815943D01*
X89226572Y-134694990D01*
X89129810Y-134634514D01*
X88887906Y-134634514D01*
X88791144Y-134574038D01*
X88307334Y-134271657D02*
X88307334Y-135118324D01*
X88307334Y-134392610D02*
X88258953Y-134332133D01*
X88162191Y-134271657D01*
X88017049Y-134271657D01*
X87920287Y-134332133D01*
X87871906Y-134453086D01*
X87871906Y-135118324D01*
X86952668Y-135118324D02*
X86952668Y-133848324D01*
X86952668Y-135057848D02*
X87049430Y-135118324D01*
X87242953Y-135118324D01*
X87339715Y-135057848D01*
X87388096Y-134997371D01*
X87436477Y-134876419D01*
X87436477Y-134513562D01*
X87388096Y-134392610D01*
X87339715Y-134332133D01*
X87242953Y-134271657D01*
X87049430Y-134271657D01*
X86952668Y-134332133D01*
X85114192Y-135118324D02*
X85452858Y-134513562D01*
X85694763Y-135118324D02*
X85694763Y-133848324D01*
X85307716Y-133848324D01*
X85210954Y-133908800D01*
X85162573Y-133969276D01*
X85114192Y-134090229D01*
X85114192Y-134271657D01*
X85162573Y-134392610D01*
X85210954Y-134453086D01*
X85307716Y-134513562D01*
X85694763Y-134513562D01*
X84485239Y-133848324D02*
X84291716Y-133848324D01*
X84194954Y-133908800D01*
X84098192Y-134029752D01*
X84049811Y-134271657D01*
X84049811Y-134694990D01*
X84098192Y-134936895D01*
X84194954Y-135057848D01*
X84291716Y-135118324D01*
X84485239Y-135118324D01*
X84582001Y-135057848D01*
X84678763Y-134936895D01*
X84727144Y-134694990D01*
X84727144Y-134271657D01*
X84678763Y-134029752D01*
X84582001Y-133908800D01*
X84485239Y-133848324D01*
X83614382Y-135118324D02*
X83614382Y-133848324D01*
X83275716Y-134755467D01*
X82937049Y-133848324D01*
X82937049Y-135118324D01*
X81098573Y-134997371D02*
X81146954Y-135057848D01*
X81292097Y-135118324D01*
X81388859Y-135118324D01*
X81534001Y-135057848D01*
X81630763Y-134936895D01*
X81679144Y-134815943D01*
X81727525Y-134574038D01*
X81727525Y-134392610D01*
X81679144Y-134150705D01*
X81630763Y-134029752D01*
X81534001Y-133908800D01*
X81388859Y-133848324D01*
X81292097Y-133848324D01*
X81146954Y-133908800D01*
X81098573Y-133969276D01*
X80663144Y-135118324D02*
X80663144Y-133848324D01*
X80227716Y-135118324D02*
X80227716Y-134453086D01*
X80276097Y-134332133D01*
X80372859Y-134271657D01*
X80518001Y-134271657D01*
X80614763Y-134332133D01*
X80663144Y-134392610D01*
X79743906Y-135118324D02*
X79743906Y-134271657D01*
X79743906Y-133848324D02*
X79792287Y-133908800D01*
X79743906Y-133969276D01*
X79695525Y-133908800D01*
X79743906Y-133848324D01*
X79743906Y-133969276D01*
X79260096Y-134271657D02*
X79260096Y-135541657D01*
X79260096Y-134332133D02*
X79163334Y-134271657D01*
X78969811Y-134271657D01*
X78873049Y-134332133D01*
X78824668Y-134392610D01*
X78776287Y-134513562D01*
X78776287Y-134876419D01*
X78824668Y-134997371D01*
X78873049Y-135057848D01*
X78969811Y-135118324D01*
X79163334Y-135118324D01*
X79260096Y-135057848D01*
X77615144Y-135057848D02*
X77470001Y-135118324D01*
X77228097Y-135118324D01*
X77131335Y-135057848D01*
X77082954Y-134997371D01*
X77034573Y-134876419D01*
X77034573Y-134755467D01*
X77082954Y-134634514D01*
X77131335Y-134574038D01*
X77228097Y-134513562D01*
X77421620Y-134453086D01*
X77518382Y-134392610D01*
X77566763Y-134332133D01*
X77615144Y-134211181D01*
X77615144Y-134090229D01*
X77566763Y-133969276D01*
X77518382Y-133908800D01*
X77421620Y-133848324D01*
X77179716Y-133848324D01*
X77034573Y-133908800D01*
X76212097Y-135057848D02*
X76308859Y-135118324D01*
X76502382Y-135118324D01*
X76599144Y-135057848D01*
X76647525Y-134936895D01*
X76647525Y-134453086D01*
X76599144Y-134332133D01*
X76502382Y-134271657D01*
X76308859Y-134271657D01*
X76212097Y-134332133D01*
X76163716Y-134453086D01*
X76163716Y-134574038D01*
X76647525Y-134694990D01*
X75583144Y-135118324D02*
X75679906Y-135057848D01*
X75728287Y-134936895D01*
X75728287Y-133848324D01*
X74809050Y-135057848D02*
X74905812Y-135118324D01*
X75099335Y-135118324D01*
X75196097Y-135057848D01*
X75244478Y-134936895D01*
X75244478Y-134453086D01*
X75196097Y-134332133D01*
X75099335Y-134271657D01*
X74905812Y-134271657D01*
X74809050Y-134332133D01*
X74760669Y-134453086D01*
X74760669Y-134574038D01*
X75244478Y-134694990D01*
X73889812Y-135057848D02*
X73986574Y-135118324D01*
X74180097Y-135118324D01*
X74276859Y-135057848D01*
X74325240Y-134997371D01*
X74373621Y-134876419D01*
X74373621Y-134513562D01*
X74325240Y-134392610D01*
X74276859Y-134332133D01*
X74180097Y-134271657D01*
X73986574Y-134271657D01*
X73889812Y-134332133D01*
X73599526Y-134271657D02*
X73212478Y-134271657D01*
X73454383Y-133848324D02*
X73454383Y-134936895D01*
X73406002Y-135057848D01*
X73309240Y-135118324D01*
X73212478Y-135118324D01*
X71567527Y-133908800D02*
X71664289Y-133848324D01*
X71809432Y-133848324D01*
X71954574Y-133908800D01*
X72051336Y-134029752D01*
X72099717Y-134150705D01*
X72148098Y-134392610D01*
X72148098Y-134574038D01*
X72099717Y-134815943D01*
X72051336Y-134936895D01*
X71954574Y-135057848D01*
X71809432Y-135118324D01*
X71712670Y-135118324D01*
X71567527Y-135057848D01*
X71519146Y-134997371D01*
X71519146Y-134574038D01*
X71712670Y-134574038D01*
X70696670Y-135057848D02*
X70793432Y-135118324D01*
X70986955Y-135118324D01*
X71083717Y-135057848D01*
X71132098Y-134936895D01*
X71132098Y-134453086D01*
X71083717Y-134332133D01*
X70986955Y-134271657D01*
X70793432Y-134271657D01*
X70696670Y-134332133D01*
X70648289Y-134453086D01*
X70648289Y-134574038D01*
X71132098Y-134694990D01*
X70212860Y-134271657D02*
X70212860Y-135118324D01*
X70212860Y-134392610D02*
X70164479Y-134332133D01*
X70067717Y-134271657D01*
X69922575Y-134271657D01*
X69825813Y-134332133D01*
X69777432Y-134453086D01*
X69777432Y-135118324D01*
X68906575Y-135057848D02*
X69003337Y-135118324D01*
X69196860Y-135118324D01*
X69293622Y-135057848D01*
X69342003Y-134936895D01*
X69342003Y-134453086D01*
X69293622Y-134332133D01*
X69196860Y-134271657D01*
X69003337Y-134271657D01*
X68906575Y-134332133D01*
X68858194Y-134453086D01*
X68858194Y-134574038D01*
X69342003Y-134694990D01*
X68422765Y-135118324D02*
X68422765Y-134271657D01*
X68422765Y-134513562D02*
X68374384Y-134392610D01*
X68326003Y-134332133D01*
X68229241Y-134271657D01*
X68132480Y-134271657D01*
X67358385Y-135118324D02*
X67358385Y-134453086D01*
X67406766Y-134332133D01*
X67503528Y-134271657D01*
X67697051Y-134271657D01*
X67793813Y-134332133D01*
X67358385Y-135057848D02*
X67455147Y-135118324D01*
X67697051Y-135118324D01*
X67793813Y-135057848D01*
X67842194Y-134936895D01*
X67842194Y-134815943D01*
X67793813Y-134694990D01*
X67697051Y-134634514D01*
X67455147Y-134634514D01*
X67358385Y-134574038D01*
X67019718Y-134271657D02*
X66632670Y-134271657D01*
X66874575Y-133848324D02*
X66874575Y-134936895D01*
X66826194Y-135057848D01*
X66729432Y-135118324D01*
X66632670Y-135118324D01*
X66294004Y-135118324D02*
X66294004Y-134271657D01*
X66294004Y-133848324D02*
X66342385Y-133908800D01*
X66294004Y-133969276D01*
X66245623Y-133908800D01*
X66294004Y-133848324D01*
X66294004Y-133969276D01*
X65665051Y-135118324D02*
X65761813Y-135057848D01*
X65810194Y-134997371D01*
X65858575Y-134876419D01*
X65858575Y-134513562D01*
X65810194Y-134392610D01*
X65761813Y-134332133D01*
X65665051Y-134271657D01*
X65519909Y-134271657D01*
X65423147Y-134332133D01*
X65374766Y-134392610D01*
X65326385Y-134513562D01*
X65326385Y-134876419D01*
X65374766Y-134997371D01*
X65423147Y-135057848D01*
X65519909Y-135118324D01*
X65665051Y-135118324D01*
X64890956Y-134271657D02*
X64890956Y-135118324D01*
X64890956Y-134392610D02*
X64842575Y-134332133D01*
X64745813Y-134271657D01*
X64600671Y-134271657D01*
X64503909Y-134332133D01*
X64455528Y-134453086D01*
X64455528Y-135118324D01*
X63971718Y-134997371D02*
X63923337Y-135057848D01*
X63971718Y-135118324D01*
X64020099Y-135057848D01*
X63971718Y-134997371D01*
X63971718Y-135118324D01*
X63971718Y-134332133D02*
X63923337Y-134392610D01*
X63971718Y-134453086D01*
X64020099Y-134392610D01*
X63971718Y-134332133D01*
X63971718Y-134453086D01*
X100886381Y-135829524D02*
X100692858Y-135829524D01*
X100596096Y-135890000D01*
X100499334Y-136010952D01*
X100450953Y-136252857D01*
X100450953Y-136676190D01*
X100499334Y-136918095D01*
X100596096Y-137039048D01*
X100692858Y-137099524D01*
X100886381Y-137099524D01*
X100983143Y-137039048D01*
X101079905Y-136918095D01*
X101128286Y-136676190D01*
X101128286Y-136252857D01*
X101079905Y-136010952D01*
X100983143Y-135890000D01*
X100886381Y-135829524D01*
X100015524Y-136252857D02*
X100015524Y-137522857D01*
X100015524Y-136313333D02*
X99918762Y-136252857D01*
X99725239Y-136252857D01*
X99628477Y-136313333D01*
X99580096Y-136373810D01*
X99531715Y-136494762D01*
X99531715Y-136857619D01*
X99580096Y-136978571D01*
X99628477Y-137039048D01*
X99725239Y-137099524D01*
X99918762Y-137099524D01*
X100015524Y-137039048D01*
X98709239Y-137039048D02*
X98806001Y-137099524D01*
X98999524Y-137099524D01*
X99096286Y-137039048D01*
X99144667Y-136918095D01*
X99144667Y-136434286D01*
X99096286Y-136313333D01*
X98999524Y-136252857D01*
X98806001Y-136252857D01*
X98709239Y-136313333D01*
X98660858Y-136434286D01*
X98660858Y-136555238D01*
X99144667Y-136676190D01*
X98225429Y-136252857D02*
X98225429Y-137099524D01*
X98225429Y-136373810D02*
X98177048Y-136313333D01*
X98080286Y-136252857D01*
X97935144Y-136252857D01*
X97838382Y-136313333D01*
X97790001Y-136434286D01*
X97790001Y-137099524D01*
X97306191Y-136978571D02*
X97257810Y-137039048D01*
X97306191Y-137099524D01*
X97354572Y-137039048D01*
X97306191Y-136978571D01*
X97306191Y-137099524D01*
X97306191Y-136313333D02*
X97257810Y-136373810D01*
X97306191Y-136434286D01*
X97354572Y-136373810D01*
X97306191Y-136313333D01*
X97306191Y-136434286D01*
X95274191Y-135829524D02*
X95274191Y-136857619D01*
X95225810Y-136978571D01*
X95177429Y-137039048D01*
X95080667Y-137099524D01*
X94887144Y-137099524D01*
X94790382Y-137039048D01*
X94742001Y-136978571D01*
X94693620Y-136857619D01*
X94693620Y-135829524D01*
X94258191Y-137039048D02*
X94161429Y-137099524D01*
X93967905Y-137099524D01*
X93871144Y-137039048D01*
X93822763Y-136918095D01*
X93822763Y-136857619D01*
X93871144Y-136736667D01*
X93967905Y-136676190D01*
X94113048Y-136676190D01*
X94209810Y-136615714D01*
X94258191Y-136494762D01*
X94258191Y-136434286D01*
X94209810Y-136313333D01*
X94113048Y-136252857D01*
X93967905Y-136252857D01*
X93871144Y-136313333D01*
X93000287Y-137039048D02*
X93097049Y-137099524D01*
X93290572Y-137099524D01*
X93387334Y-137039048D01*
X93435715Y-136918095D01*
X93435715Y-136434286D01*
X93387334Y-136313333D01*
X93290572Y-136252857D01*
X93097049Y-136252857D01*
X93000287Y-136313333D01*
X92951906Y-136434286D01*
X92951906Y-136555238D01*
X93435715Y-136676190D01*
X91790763Y-137039048D02*
X91645620Y-137099524D01*
X91403716Y-137099524D01*
X91306954Y-137039048D01*
X91258573Y-136978571D01*
X91210192Y-136857619D01*
X91210192Y-136736667D01*
X91258573Y-136615714D01*
X91306954Y-136555238D01*
X91403716Y-136494762D01*
X91597239Y-136434286D01*
X91694001Y-136373810D01*
X91742382Y-136313333D01*
X91790763Y-136192381D01*
X91790763Y-136071429D01*
X91742382Y-135950476D01*
X91694001Y-135890000D01*
X91597239Y-135829524D01*
X91355335Y-135829524D01*
X91210192Y-135890000D01*
X90774763Y-137099524D02*
X90774763Y-135829524D01*
X90387716Y-135829524D01*
X90290954Y-135890000D01*
X90242573Y-135950476D01*
X90194192Y-136071429D01*
X90194192Y-136252857D01*
X90242573Y-136373810D01*
X90290954Y-136434286D01*
X90387716Y-136494762D01*
X90774763Y-136494762D01*
X89274954Y-137099524D02*
X89758763Y-137099524D01*
X89758763Y-135829524D01*
X88936287Y-137099524D02*
X88936287Y-135829524D01*
X88694382Y-135829524D01*
X88549240Y-135890000D01*
X88452478Y-136010952D01*
X88404097Y-136131905D01*
X88355716Y-136373810D01*
X88355716Y-136555238D01*
X88404097Y-136797143D01*
X88452478Y-136918095D01*
X88549240Y-137039048D01*
X88694382Y-137099524D01*
X88936287Y-137099524D01*
X86855907Y-137583333D02*
X86904287Y-137522857D01*
X87001049Y-137341429D01*
X87049430Y-137220476D01*
X87097811Y-137039048D01*
X87146192Y-136736667D01*
X87146192Y-136494762D01*
X87097811Y-136192381D01*
X87049430Y-136010952D01*
X87001049Y-135890000D01*
X86904287Y-135708571D01*
X86855907Y-135648095D01*
X86468859Y-135829524D02*
X86468859Y-136857619D01*
X86420478Y-136978571D01*
X86372097Y-137039048D01*
X86275335Y-137099524D01*
X86081812Y-137099524D01*
X85985050Y-137039048D01*
X85936669Y-136978571D01*
X85888288Y-136857619D01*
X85888288Y-135829524D01*
X84872288Y-137099524D02*
X85452859Y-137099524D01*
X85162573Y-137099524D02*
X85162573Y-135829524D01*
X85259335Y-136010952D01*
X85356097Y-136131905D01*
X85452859Y-136192381D01*
X84001431Y-135829524D02*
X84194954Y-135829524D01*
X84291716Y-135890000D01*
X84340097Y-135950476D01*
X84436859Y-136131905D01*
X84485240Y-136373810D01*
X84485240Y-136857619D01*
X84436859Y-136978571D01*
X84388478Y-137039048D01*
X84291716Y-137099524D01*
X84098193Y-137099524D01*
X84001431Y-137039048D01*
X83953050Y-136978571D01*
X83904669Y-136857619D01*
X83904669Y-136555238D01*
X83953050Y-136434286D01*
X84001431Y-136373810D01*
X84098193Y-136313333D01*
X84291716Y-136313333D01*
X84388478Y-136373810D01*
X84436859Y-136434286D01*
X84485240Y-136555238D01*
X83566002Y-137583333D02*
X83517621Y-137522857D01*
X83420859Y-137341429D01*
X83372478Y-137220476D01*
X83324097Y-137039048D01*
X83275716Y-136736667D01*
X83275716Y-136494762D01*
X83324097Y-136192381D01*
X83372478Y-136010952D01*
X83420859Y-135890000D01*
X83517621Y-135708571D01*
X83566002Y-135648095D01*
X100499334Y-138959771D02*
X100547715Y-139020248D01*
X100692858Y-139080724D01*
X100789620Y-139080724D01*
X100934762Y-139020248D01*
X101031524Y-138899295D01*
X101079905Y-138778343D01*
X101128286Y-138536438D01*
X101128286Y-138355010D01*
X101079905Y-138113105D01*
X101031524Y-137992152D01*
X100934762Y-137871200D01*
X100789620Y-137810724D01*
X100692858Y-137810724D01*
X100547715Y-137871200D01*
X100499334Y-137931676D01*
X99918762Y-139080724D02*
X100015524Y-139020248D01*
X100063905Y-138899295D01*
X100063905Y-137810724D01*
X99386572Y-139080724D02*
X99483334Y-139020248D01*
X99531715Y-138959771D01*
X99580096Y-138838819D01*
X99580096Y-138475962D01*
X99531715Y-138355010D01*
X99483334Y-138294533D01*
X99386572Y-138234057D01*
X99241430Y-138234057D01*
X99144668Y-138294533D01*
X99096287Y-138355010D01*
X99047906Y-138475962D01*
X99047906Y-138838819D01*
X99096287Y-138959771D01*
X99144668Y-139020248D01*
X99241430Y-139080724D01*
X99386572Y-139080724D01*
X98660858Y-139020248D02*
X98564096Y-139080724D01*
X98370572Y-139080724D01*
X98273811Y-139020248D01*
X98225430Y-138899295D01*
X98225430Y-138838819D01*
X98273811Y-138717867D01*
X98370572Y-138657390D01*
X98515715Y-138657390D01*
X98612477Y-138596914D01*
X98660858Y-138475962D01*
X98660858Y-138415486D01*
X98612477Y-138294533D01*
X98515715Y-138234057D01*
X98370572Y-138234057D01*
X98273811Y-138294533D01*
X97402954Y-139020248D02*
X97499716Y-139080724D01*
X97693239Y-139080724D01*
X97790001Y-139020248D01*
X97838382Y-138899295D01*
X97838382Y-138415486D01*
X97790001Y-138294533D01*
X97693239Y-138234057D01*
X97499716Y-138234057D01*
X97402954Y-138294533D01*
X97354573Y-138415486D01*
X97354573Y-138536438D01*
X97838382Y-138657390D01*
X96483716Y-139080724D02*
X96483716Y-137810724D01*
X96483716Y-139020248D02*
X96580478Y-139080724D01*
X96774001Y-139080724D01*
X96870763Y-139020248D01*
X96919144Y-138959771D01*
X96967525Y-138838819D01*
X96967525Y-138475962D01*
X96919144Y-138355010D01*
X96870763Y-138294533D01*
X96774001Y-138234057D01*
X96580478Y-138234057D01*
X96483716Y-138294533D01*
X95999906Y-138959771D02*
X95951525Y-139020248D01*
X95999906Y-139080724D01*
X96048287Y-139020248D01*
X95999906Y-138959771D01*
X95999906Y-139080724D01*
X95999906Y-138294533D02*
X95951525Y-138355010D01*
X95999906Y-138415486D01*
X96048287Y-138355010D01*
X95999906Y-138294533D01*
X95999906Y-138415486D01*
X94742001Y-137810724D02*
X94742001Y-138838819D01*
X94693620Y-138959771D01*
X94645239Y-139020248D01*
X94548477Y-139080724D01*
X94354954Y-139080724D01*
X94258192Y-139020248D01*
X94209811Y-138959771D01*
X94161430Y-138838819D01*
X94161430Y-137810724D01*
X93726001Y-139020248D02*
X93629239Y-139080724D01*
X93435715Y-139080724D01*
X93338954Y-139020248D01*
X93290573Y-138899295D01*
X93290573Y-138838819D01*
X93338954Y-138717867D01*
X93435715Y-138657390D01*
X93580858Y-138657390D01*
X93677620Y-138596914D01*
X93726001Y-138475962D01*
X93726001Y-138415486D01*
X93677620Y-138294533D01*
X93580858Y-138234057D01*
X93435715Y-138234057D01*
X93338954Y-138294533D01*
X92468097Y-139020248D02*
X92564859Y-139080724D01*
X92758382Y-139080724D01*
X92855144Y-139020248D01*
X92903525Y-138899295D01*
X92903525Y-138415486D01*
X92855144Y-138294533D01*
X92758382Y-138234057D01*
X92564859Y-138234057D01*
X92468097Y-138294533D01*
X92419716Y-138415486D01*
X92419716Y-138536438D01*
X92903525Y-138657390D01*
X90871526Y-138415486D02*
X91210192Y-138415486D01*
X91210192Y-139080724D02*
X91210192Y-137810724D01*
X90726383Y-137810724D01*
X90339335Y-138415486D02*
X90000669Y-138415486D01*
X89855526Y-139080724D02*
X90339335Y-139080724D01*
X90339335Y-137810724D01*
X89855526Y-137810724D01*
X89468478Y-137931676D02*
X89420097Y-137871200D01*
X89323335Y-137810724D01*
X89081431Y-137810724D01*
X88984669Y-137871200D01*
X88936288Y-137931676D01*
X88887907Y-138052629D01*
X88887907Y-138173581D01*
X88936288Y-138355010D01*
X89516859Y-139080724D01*
X88887907Y-139080724D01*
X88258954Y-137810724D02*
X88162193Y-137810724D01*
X88065431Y-137871200D01*
X88017050Y-137931676D01*
X87968669Y-138052629D01*
X87920288Y-138294533D01*
X87920288Y-138596914D01*
X87968669Y-138838819D01*
X88017050Y-138959771D01*
X88065431Y-139020248D01*
X88162193Y-139080724D01*
X88258954Y-139080724D01*
X88355716Y-139020248D01*
X88404097Y-138959771D01*
X88452478Y-138838819D01*
X88500859Y-138596914D01*
X88500859Y-138294533D01*
X88452478Y-138052629D01*
X88404097Y-137931676D01*
X88355716Y-137871200D01*
X88258954Y-137810724D01*
X86952669Y-139080724D02*
X87533240Y-139080724D01*
X87242954Y-139080724D02*
X87242954Y-137810724D01*
X87339716Y-137992152D01*
X87436478Y-138113105D01*
X87533240Y-138173581D01*
X86323716Y-137810724D02*
X86226955Y-137810724D01*
X86130193Y-137871200D01*
X86081812Y-137931676D01*
X86033431Y-138052629D01*
X85985050Y-138294533D01*
X85985050Y-138596914D01*
X86033431Y-138838819D01*
X86081812Y-138959771D01*
X86130193Y-139020248D01*
X86226955Y-139080724D01*
X86323716Y-139080724D01*
X86420478Y-139020248D01*
X86468859Y-138959771D01*
X86517240Y-138838819D01*
X86565621Y-138596914D01*
X86565621Y-138294533D01*
X86517240Y-138052629D01*
X86468859Y-137931676D01*
X86420478Y-137871200D01*
X86323716Y-137810724D01*
X84485241Y-139564533D02*
X84533621Y-139504057D01*
X84630383Y-139322629D01*
X84678764Y-139201676D01*
X84727145Y-139020248D01*
X84775526Y-138717867D01*
X84775526Y-138475962D01*
X84727145Y-138173581D01*
X84678764Y-137992152D01*
X84630383Y-137871200D01*
X84533621Y-137689771D01*
X84485241Y-137629295D01*
X84098193Y-137810724D02*
X84098193Y-138838819D01*
X84049812Y-138959771D01*
X84001431Y-139020248D01*
X83904669Y-139080724D01*
X83711146Y-139080724D01*
X83614384Y-139020248D01*
X83566003Y-138959771D01*
X83517622Y-138838819D01*
X83517622Y-137810724D01*
X83130574Y-137810724D02*
X82501622Y-137810724D01*
X82840288Y-138294533D01*
X82695146Y-138294533D01*
X82598384Y-138355010D01*
X82550003Y-138415486D01*
X82501622Y-138536438D01*
X82501622Y-138838819D01*
X82550003Y-138959771D01*
X82598384Y-139020248D01*
X82695146Y-139080724D01*
X82985431Y-139080724D01*
X83082193Y-139020248D01*
X83130574Y-138959771D01*
X82162955Y-139564533D02*
X82114574Y-139504057D01*
X82017812Y-139322629D01*
X81969431Y-139201676D01*
X81921050Y-139020248D01*
X81872669Y-138717867D01*
X81872669Y-138475962D01*
X81921050Y-138173581D01*
X81969431Y-137992152D01*
X82017812Y-137871200D01*
X82114574Y-137689771D01*
X82162955Y-137629295D01*
X102337810Y-118494024D02*
X102337810Y-119401167D01*
X102386190Y-119582595D01*
X102482952Y-119703548D01*
X102628095Y-119764024D01*
X102724857Y-119764024D01*
X101854000Y-119764024D02*
X101854000Y-118494024D01*
X101466953Y-118494024D01*
X101370191Y-118554500D01*
X101321810Y-118614976D01*
X101273429Y-118735929D01*
X101273429Y-118917357D01*
X101321810Y-119038310D01*
X101370191Y-119098786D01*
X101466953Y-119159262D01*
X101854000Y-119159262D01*
X100305810Y-119764024D02*
X100886381Y-119764024D01*
X100596095Y-119764024D02*
X100596095Y-118494024D01*
X100692857Y-118675452D01*
X100789619Y-118796405D01*
X100886381Y-118856881D01*
X99096286Y-119280214D02*
X98322191Y-119280214D01*
X96725620Y-119098786D02*
X97064286Y-119098786D01*
X97064286Y-119764024D02*
X97064286Y-118494024D01*
X96580477Y-118494024D01*
X96048286Y-119764024D02*
X96145048Y-119703548D01*
X96193429Y-119582595D01*
X96193429Y-118494024D01*
X95225811Y-119764024D02*
X95225811Y-119098786D01*
X95274192Y-118977833D01*
X95370954Y-118917357D01*
X95564477Y-118917357D01*
X95661239Y-118977833D01*
X95225811Y-119703548D02*
X95322573Y-119764024D01*
X95564477Y-119764024D01*
X95661239Y-119703548D01*
X95709620Y-119582595D01*
X95709620Y-119461643D01*
X95661239Y-119340690D01*
X95564477Y-119280214D01*
X95322573Y-119280214D01*
X95225811Y-119219738D01*
X94790382Y-119703548D02*
X94693620Y-119764024D01*
X94500096Y-119764024D01*
X94403335Y-119703548D01*
X94354954Y-119582595D01*
X94354954Y-119522119D01*
X94403335Y-119401167D01*
X94500096Y-119340690D01*
X94645239Y-119340690D01*
X94742001Y-119280214D01*
X94790382Y-119159262D01*
X94790382Y-119098786D01*
X94742001Y-118977833D01*
X94645239Y-118917357D01*
X94500096Y-118917357D01*
X94403335Y-118977833D01*
X93919525Y-119764024D02*
X93919525Y-118494024D01*
X93484097Y-119764024D02*
X93484097Y-119098786D01*
X93532478Y-118977833D01*
X93629240Y-118917357D01*
X93774382Y-118917357D01*
X93871144Y-118977833D01*
X93919525Y-119038310D01*
X91645621Y-119764024D02*
X91984287Y-119159262D01*
X92226192Y-119764024D02*
X92226192Y-118494024D01*
X91839145Y-118494024D01*
X91742383Y-118554500D01*
X91694002Y-118614976D01*
X91645621Y-118735929D01*
X91645621Y-118917357D01*
X91694002Y-119038310D01*
X91742383Y-119098786D01*
X91839145Y-119159262D01*
X92226192Y-119159262D01*
X91016668Y-118494024D02*
X90823145Y-118494024D01*
X90726383Y-118554500D01*
X90629621Y-118675452D01*
X90581240Y-118917357D01*
X90581240Y-119340690D01*
X90629621Y-119582595D01*
X90726383Y-119703548D01*
X90823145Y-119764024D01*
X91016668Y-119764024D01*
X91113430Y-119703548D01*
X91210192Y-119582595D01*
X91258573Y-119340690D01*
X91258573Y-118917357D01*
X91210192Y-118675452D01*
X91113430Y-118554500D01*
X91016668Y-118494024D01*
X90145811Y-119764024D02*
X90145811Y-118494024D01*
X89807145Y-119401167D01*
X89468478Y-118494024D01*
X89468478Y-119764024D01*
X88210573Y-119764024D02*
X88210573Y-118494024D01*
X87871907Y-119401167D01*
X87533240Y-118494024D01*
X87533240Y-119764024D01*
X86614002Y-119764024D02*
X86614002Y-119098786D01*
X86662383Y-118977833D01*
X86759145Y-118917357D01*
X86952668Y-118917357D01*
X87049430Y-118977833D01*
X86614002Y-119703548D02*
X86710764Y-119764024D01*
X86952668Y-119764024D01*
X87049430Y-119703548D01*
X87097811Y-119582595D01*
X87097811Y-119461643D01*
X87049430Y-119340690D01*
X86952668Y-119280214D01*
X86710764Y-119280214D01*
X86614002Y-119219738D01*
X86130192Y-118917357D02*
X86130192Y-120187357D01*
X86130192Y-118977833D02*
X86033430Y-118917357D01*
X85839907Y-118917357D01*
X85743145Y-118977833D01*
X85694764Y-119038310D01*
X85646383Y-119159262D01*
X85646383Y-119522119D01*
X85694764Y-119643071D01*
X85743145Y-119703548D01*
X85839907Y-119764024D01*
X86033430Y-119764024D01*
X86130192Y-119703548D01*
X85210954Y-118917357D02*
X85210954Y-120187357D01*
X85210954Y-118977833D02*
X85114192Y-118917357D01*
X84920669Y-118917357D01*
X84823907Y-118977833D01*
X84775526Y-119038310D01*
X84727145Y-119159262D01*
X84727145Y-119522119D01*
X84775526Y-119643071D01*
X84823907Y-119703548D01*
X84920669Y-119764024D01*
X85114192Y-119764024D01*
X85210954Y-119703548D01*
X84291716Y-119764024D02*
X84291716Y-118917357D01*
X84291716Y-118494024D02*
X84340097Y-118554500D01*
X84291716Y-118614976D01*
X84243335Y-118554500D01*
X84291716Y-118494024D01*
X84291716Y-118614976D01*
X83807906Y-118917357D02*
X83807906Y-119764024D01*
X83807906Y-119038310D02*
X83759525Y-118977833D01*
X83662763Y-118917357D01*
X83517621Y-118917357D01*
X83420859Y-118977833D01*
X83372478Y-119098786D01*
X83372478Y-119764024D01*
X82453240Y-118917357D02*
X82453240Y-119945452D01*
X82501621Y-120066405D01*
X82550002Y-120126881D01*
X82646763Y-120187357D01*
X82791906Y-120187357D01*
X82888668Y-120126881D01*
X82453240Y-119703548D02*
X82550002Y-119764024D01*
X82743525Y-119764024D01*
X82840287Y-119703548D01*
X82888668Y-119643071D01*
X82937049Y-119522119D01*
X82937049Y-119159262D01*
X82888668Y-119038310D01*
X82840287Y-118977833D01*
X82743525Y-118917357D01*
X82550002Y-118917357D01*
X82453240Y-118977833D01*
X81340478Y-118917357D02*
X80953430Y-118917357D01*
X81195335Y-118494024D02*
X81195335Y-119582595D01*
X81146954Y-119703548D01*
X81050192Y-119764024D01*
X80953430Y-119764024D01*
X80469621Y-119764024D02*
X80566383Y-119703548D01*
X80614764Y-119643071D01*
X80663145Y-119522119D01*
X80663145Y-119159262D01*
X80614764Y-119038310D01*
X80566383Y-118977833D01*
X80469621Y-118917357D01*
X80324479Y-118917357D01*
X80227717Y-118977833D01*
X80179336Y-119038310D01*
X80130955Y-119159262D01*
X80130955Y-119522119D01*
X80179336Y-119643071D01*
X80227717Y-119703548D01*
X80324479Y-119764024D01*
X80469621Y-119764024D01*
X78727907Y-118494024D02*
X78631146Y-118494024D01*
X78534384Y-118554500D01*
X78486003Y-118614976D01*
X78437622Y-118735929D01*
X78389241Y-118977833D01*
X78389241Y-119280214D01*
X78437622Y-119522119D01*
X78486003Y-119643071D01*
X78534384Y-119703548D01*
X78631146Y-119764024D01*
X78727907Y-119764024D01*
X78824669Y-119703548D01*
X78873050Y-119643071D01*
X78921431Y-119522119D01*
X78969812Y-119280214D01*
X78969812Y-118977833D01*
X78921431Y-118735929D01*
X78873050Y-118614976D01*
X78824669Y-118554500D01*
X78727907Y-118494024D01*
X78050574Y-119764024D02*
X77518384Y-118917357D01*
X78050574Y-118917357D02*
X77518384Y-119764024D01*
X76792670Y-119098786D02*
X77131336Y-119098786D01*
X77131336Y-119764024D02*
X77131336Y-118494024D01*
X76647527Y-118494024D01*
X76066955Y-118494024D02*
X75970194Y-118494024D01*
X75873432Y-118554500D01*
X75825051Y-118614976D01*
X75776670Y-118735929D01*
X75728289Y-118977833D01*
X75728289Y-119280214D01*
X75776670Y-119522119D01*
X75825051Y-119643071D01*
X75873432Y-119703548D01*
X75970194Y-119764024D01*
X76066955Y-119764024D01*
X76163717Y-119703548D01*
X76212098Y-119643071D01*
X76260479Y-119522119D01*
X76308860Y-119280214D01*
X76308860Y-118977833D01*
X76260479Y-118735929D01*
X76212098Y-118614976D01*
X76163717Y-118554500D01*
X76066955Y-118494024D01*
X75099336Y-118494024D02*
X75002575Y-118494024D01*
X74905813Y-118554500D01*
X74857432Y-118614976D01*
X74809051Y-118735929D01*
X74760670Y-118977833D01*
X74760670Y-119280214D01*
X74809051Y-119522119D01*
X74857432Y-119643071D01*
X74905813Y-119703548D01*
X75002575Y-119764024D01*
X75099336Y-119764024D01*
X75196098Y-119703548D01*
X75244479Y-119643071D01*
X75292860Y-119522119D01*
X75341241Y-119280214D01*
X75341241Y-118977833D01*
X75292860Y-118735929D01*
X75244479Y-118614976D01*
X75196098Y-118554500D01*
X75099336Y-118494024D01*
X74131717Y-118494024D02*
X74034956Y-118494024D01*
X73938194Y-118554500D01*
X73889813Y-118614976D01*
X73841432Y-118735929D01*
X73793051Y-118977833D01*
X73793051Y-119280214D01*
X73841432Y-119522119D01*
X73889813Y-119643071D01*
X73938194Y-119703548D01*
X74034956Y-119764024D01*
X74131717Y-119764024D01*
X74228479Y-119703548D01*
X74276860Y-119643071D01*
X74325241Y-119522119D01*
X74373622Y-119280214D01*
X74373622Y-118977833D01*
X74325241Y-118735929D01*
X74276860Y-118614976D01*
X74228479Y-118554500D01*
X74131717Y-118494024D01*
X73164098Y-118494024D02*
X73067337Y-118494024D01*
X72970575Y-118554500D01*
X72922194Y-118614976D01*
X72873813Y-118735929D01*
X72825432Y-118977833D01*
X72825432Y-119280214D01*
X72873813Y-119522119D01*
X72922194Y-119643071D01*
X72970575Y-119703548D01*
X73067337Y-119764024D01*
X73164098Y-119764024D01*
X73260860Y-119703548D01*
X73309241Y-119643071D01*
X73357622Y-119522119D01*
X73406003Y-119280214D01*
X73406003Y-118977833D01*
X73357622Y-118735929D01*
X73309241Y-118614976D01*
X73260860Y-118554500D01*
X73164098Y-118494024D01*
X72390003Y-119280214D02*
X71615908Y-119280214D01*
X70938574Y-118494024D02*
X70841813Y-118494024D01*
X70745051Y-118554500D01*
X70696670Y-118614976D01*
X70648289Y-118735929D01*
X70599908Y-118977833D01*
X70599908Y-119280214D01*
X70648289Y-119522119D01*
X70696670Y-119643071D01*
X70745051Y-119703548D01*
X70841813Y-119764024D01*
X70938574Y-119764024D01*
X71035336Y-119703548D01*
X71083717Y-119643071D01*
X71132098Y-119522119D01*
X71180479Y-119280214D01*
X71180479Y-118977833D01*
X71132098Y-118735929D01*
X71083717Y-118614976D01*
X71035336Y-118554500D01*
X70938574Y-118494024D01*
X70261241Y-119764024D02*
X69729051Y-118917357D01*
X70261241Y-118917357D02*
X69729051Y-119764024D01*
X69003337Y-119098786D02*
X69342003Y-119098786D01*
X69342003Y-119764024D02*
X69342003Y-118494024D01*
X68858194Y-118494024D01*
X68132480Y-119098786D02*
X68471146Y-119098786D01*
X68471146Y-119764024D02*
X68471146Y-118494024D01*
X67987337Y-118494024D01*
X67261623Y-119098786D02*
X67600289Y-119098786D01*
X67600289Y-119764024D02*
X67600289Y-118494024D01*
X67116480Y-118494024D01*
X66390766Y-119098786D02*
X66729432Y-119098786D01*
X66729432Y-119764024D02*
X66729432Y-118494024D01*
X66245623Y-118494024D01*
X65519909Y-119098786D02*
X65858575Y-119098786D01*
X65858575Y-119764024D02*
X65858575Y-118494024D01*
X65374766Y-118494024D01*
X64987718Y-119643071D02*
X64939337Y-119703548D01*
X64987718Y-119764024D01*
X65036099Y-119703548D01*
X64987718Y-119643071D01*
X64987718Y-119764024D01*
X64987718Y-118977833D02*
X64939337Y-119038310D01*
X64987718Y-119098786D01*
X65036099Y-119038310D01*
X64987718Y-118977833D01*
X64987718Y-119098786D01*
X100886381Y-120475224D02*
X100692858Y-120475224D01*
X100596096Y-120535700D01*
X100499334Y-120656652D01*
X100450953Y-120898557D01*
X100450953Y-121321890D01*
X100499334Y-121563795D01*
X100596096Y-121684748D01*
X100692858Y-121745224D01*
X100886381Y-121745224D01*
X100983143Y-121684748D01*
X101079905Y-121563795D01*
X101128286Y-121321890D01*
X101128286Y-120898557D01*
X101079905Y-120656652D01*
X100983143Y-120535700D01*
X100886381Y-120475224D01*
X100015524Y-120898557D02*
X100015524Y-122168557D01*
X100015524Y-120959033D02*
X99918762Y-120898557D01*
X99725239Y-120898557D01*
X99628477Y-120959033D01*
X99580096Y-121019510D01*
X99531715Y-121140462D01*
X99531715Y-121503319D01*
X99580096Y-121624271D01*
X99628477Y-121684748D01*
X99725239Y-121745224D01*
X99918762Y-121745224D01*
X100015524Y-121684748D01*
X98709239Y-121684748D02*
X98806001Y-121745224D01*
X98999524Y-121745224D01*
X99096286Y-121684748D01*
X99144667Y-121563795D01*
X99144667Y-121079986D01*
X99096286Y-120959033D01*
X98999524Y-120898557D01*
X98806001Y-120898557D01*
X98709239Y-120959033D01*
X98660858Y-121079986D01*
X98660858Y-121200938D01*
X99144667Y-121321890D01*
X98225429Y-120898557D02*
X98225429Y-121745224D01*
X98225429Y-121019510D02*
X98177048Y-120959033D01*
X98080286Y-120898557D01*
X97935144Y-120898557D01*
X97838382Y-120959033D01*
X97790001Y-121079986D01*
X97790001Y-121745224D01*
X97306191Y-121624271D02*
X97257810Y-121684748D01*
X97306191Y-121745224D01*
X97354572Y-121684748D01*
X97306191Y-121624271D01*
X97306191Y-121745224D01*
X97306191Y-120959033D02*
X97257810Y-121019510D01*
X97306191Y-121079986D01*
X97354572Y-121019510D01*
X97306191Y-120959033D01*
X97306191Y-121079986D01*
X95274191Y-121745224D02*
X95274191Y-120475224D01*
X94935525Y-121382367D01*
X94596858Y-120475224D01*
X94596858Y-121745224D01*
X93677620Y-121745224D02*
X93677620Y-121079986D01*
X93726001Y-120959033D01*
X93822763Y-120898557D01*
X94016286Y-120898557D01*
X94113048Y-120959033D01*
X93677620Y-121684748D02*
X93774382Y-121745224D01*
X94016286Y-121745224D01*
X94113048Y-121684748D01*
X94161429Y-121563795D01*
X94161429Y-121442843D01*
X94113048Y-121321890D01*
X94016286Y-121261414D01*
X93774382Y-121261414D01*
X93677620Y-121200938D01*
X93193810Y-120898557D02*
X93193810Y-122168557D01*
X93193810Y-120959033D02*
X93097048Y-120898557D01*
X92903525Y-120898557D01*
X92806763Y-120959033D01*
X92758382Y-121019510D01*
X92710001Y-121140462D01*
X92710001Y-121503319D01*
X92758382Y-121624271D01*
X92806763Y-121684748D01*
X92903525Y-121745224D01*
X93097048Y-121745224D01*
X93193810Y-121684748D01*
X91355334Y-121745224D02*
X91452096Y-121684748D01*
X91500477Y-121563795D01*
X91500477Y-120475224D01*
X90823144Y-121745224D02*
X90919906Y-121684748D01*
X90968287Y-121624271D01*
X91016668Y-121503319D01*
X91016668Y-121140462D01*
X90968287Y-121019510D01*
X90919906Y-120959033D01*
X90823144Y-120898557D01*
X90678002Y-120898557D01*
X90581240Y-120959033D01*
X90532859Y-121019510D01*
X90484478Y-121140462D01*
X90484478Y-121503319D01*
X90532859Y-121624271D01*
X90581240Y-121684748D01*
X90678002Y-121745224D01*
X90823144Y-121745224D01*
X90145811Y-120898557D02*
X89952287Y-121745224D01*
X89758764Y-121140462D01*
X89565240Y-121745224D01*
X89371716Y-120898557D01*
X88597621Y-121684748D02*
X88694383Y-121745224D01*
X88887906Y-121745224D01*
X88984668Y-121684748D01*
X89033049Y-121563795D01*
X89033049Y-121079986D01*
X88984668Y-120959033D01*
X88887906Y-120898557D01*
X88694383Y-120898557D01*
X88597621Y-120959033D01*
X88549240Y-121079986D01*
X88549240Y-121200938D01*
X89033049Y-121321890D01*
X88113811Y-121745224D02*
X88113811Y-120898557D01*
X88113811Y-121140462D02*
X88065430Y-121019510D01*
X88017049Y-120959033D01*
X87920287Y-120898557D01*
X87823526Y-120898557D01*
X86275336Y-120475224D02*
X86468859Y-120475224D01*
X86565621Y-120535700D01*
X86614002Y-120596176D01*
X86710764Y-120777605D01*
X86759145Y-121019510D01*
X86759145Y-121503319D01*
X86710764Y-121624271D01*
X86662383Y-121684748D01*
X86565621Y-121745224D01*
X86372098Y-121745224D01*
X86275336Y-121684748D01*
X86226955Y-121624271D01*
X86178574Y-121503319D01*
X86178574Y-121200938D01*
X86226955Y-121079986D01*
X86275336Y-121019510D01*
X86372098Y-120959033D01*
X86565621Y-120959033D01*
X86662383Y-121019510D01*
X86710764Y-121079986D01*
X86759145Y-121200938D01*
X85307717Y-120898557D02*
X85307717Y-121745224D01*
X85549621Y-120414748D02*
X85791526Y-121321890D01*
X85162574Y-121321890D01*
X84001431Y-121745224D02*
X84001431Y-120475224D01*
X83420860Y-121745224D02*
X83856288Y-121019510D01*
X83420860Y-120475224D02*
X84001431Y-121200938D01*
X82985431Y-121745224D02*
X82985431Y-120898557D01*
X82985431Y-120475224D02*
X83033812Y-120535700D01*
X82985431Y-120596176D01*
X82937050Y-120535700D01*
X82985431Y-120475224D01*
X82985431Y-120596176D01*
X82162955Y-121079986D02*
X82017812Y-121140462D01*
X81969431Y-121200938D01*
X81921050Y-121321890D01*
X81921050Y-121503319D01*
X81969431Y-121624271D01*
X82017812Y-121684748D01*
X82114574Y-121745224D01*
X82501621Y-121745224D01*
X82501621Y-120475224D01*
X82162955Y-120475224D01*
X82066193Y-120535700D01*
X82017812Y-120596176D01*
X81969431Y-120717129D01*
X81969431Y-120838081D01*
X82017812Y-120959033D01*
X82066193Y-121019510D01*
X82162955Y-121079986D01*
X82501621Y-121079986D01*
X80566383Y-121745224D02*
X80663145Y-121684748D01*
X80711526Y-121624271D01*
X80759907Y-121503319D01*
X80759907Y-121140462D01*
X80711526Y-121019510D01*
X80663145Y-120959033D01*
X80566383Y-120898557D01*
X80421241Y-120898557D01*
X80324479Y-120959033D01*
X80276098Y-121019510D01*
X80227717Y-121140462D01*
X80227717Y-121503319D01*
X80276098Y-121624271D01*
X80324479Y-121684748D01*
X80421241Y-121745224D01*
X80566383Y-121745224D01*
X79937431Y-120898557D02*
X79550383Y-120898557D01*
X79792288Y-121745224D02*
X79792288Y-120656652D01*
X79743907Y-120535700D01*
X79647145Y-120475224D01*
X79550383Y-120475224D01*
X78098956Y-121079986D02*
X78437622Y-121079986D01*
X78437622Y-121745224D02*
X78437622Y-120475224D01*
X77953813Y-120475224D01*
X77421622Y-121745224D02*
X77518384Y-121684748D01*
X77566765Y-121563795D01*
X77566765Y-120475224D01*
X76599147Y-121745224D02*
X76599147Y-121079986D01*
X76647528Y-120959033D01*
X76744290Y-120898557D01*
X76937813Y-120898557D01*
X77034575Y-120959033D01*
X76599147Y-121684748D02*
X76695909Y-121745224D01*
X76937813Y-121745224D01*
X77034575Y-121684748D01*
X77082956Y-121563795D01*
X77082956Y-121442843D01*
X77034575Y-121321890D01*
X76937813Y-121261414D01*
X76695909Y-121261414D01*
X76599147Y-121200938D01*
X76163718Y-121684748D02*
X76066956Y-121745224D01*
X75873432Y-121745224D01*
X75776671Y-121684748D01*
X75728290Y-121563795D01*
X75728290Y-121503319D01*
X75776671Y-121382367D01*
X75873432Y-121321890D01*
X76018575Y-121321890D01*
X76115337Y-121261414D01*
X76163718Y-121140462D01*
X76163718Y-121079986D01*
X76115337Y-120959033D01*
X76018575Y-120898557D01*
X75873432Y-120898557D01*
X75776671Y-120959033D01*
X75292861Y-121745224D02*
X75292861Y-120475224D01*
X74857433Y-121745224D02*
X74857433Y-121079986D01*
X74905814Y-120959033D01*
X75002576Y-120898557D01*
X75147718Y-120898557D01*
X75244480Y-120959033D01*
X75292861Y-121019510D01*
X73018957Y-121745224D02*
X73357623Y-121140462D01*
X73599528Y-121745224D02*
X73599528Y-120475224D01*
X73212481Y-120475224D01*
X73115719Y-120535700D01*
X73067338Y-120596176D01*
X73018957Y-120717129D01*
X73018957Y-120898557D01*
X73067338Y-121019510D01*
X73115719Y-121079986D01*
X73212481Y-121140462D01*
X73599528Y-121140462D01*
X72390004Y-120475224D02*
X72196481Y-120475224D01*
X72099719Y-120535700D01*
X72002957Y-120656652D01*
X71954576Y-120898557D01*
X71954576Y-121321890D01*
X72002957Y-121563795D01*
X72099719Y-121684748D01*
X72196481Y-121745224D01*
X72390004Y-121745224D01*
X72486766Y-121684748D01*
X72583528Y-121563795D01*
X72631909Y-121321890D01*
X72631909Y-120898557D01*
X72583528Y-120656652D01*
X72486766Y-120535700D01*
X72390004Y-120475224D01*
X71519147Y-121745224D02*
X71519147Y-120475224D01*
X71180481Y-121382367D01*
X70841814Y-120475224D01*
X70841814Y-121745224D01*
X69293624Y-122229033D02*
X69342004Y-122168557D01*
X69438766Y-121987129D01*
X69487147Y-121866176D01*
X69535528Y-121684748D01*
X69583909Y-121382367D01*
X69583909Y-121140462D01*
X69535528Y-120838081D01*
X69487147Y-120656652D01*
X69438766Y-120535700D01*
X69342004Y-120354271D01*
X69293624Y-120293795D01*
X68471148Y-121745224D02*
X68471148Y-120475224D01*
X68471148Y-121684748D02*
X68567910Y-121745224D01*
X68761433Y-121745224D01*
X68858195Y-121684748D01*
X68906576Y-121624271D01*
X68954957Y-121503319D01*
X68954957Y-121140462D01*
X68906576Y-121019510D01*
X68858195Y-120959033D01*
X68761433Y-120898557D01*
X68567910Y-120898557D01*
X68471148Y-120959033D01*
X67600291Y-121684748D02*
X67697053Y-121745224D01*
X67890576Y-121745224D01*
X67987338Y-121684748D01*
X68035719Y-121563795D01*
X68035719Y-121079986D01*
X67987338Y-120959033D01*
X67890576Y-120898557D01*
X67697053Y-120898557D01*
X67600291Y-120959033D01*
X67551910Y-121079986D01*
X67551910Y-121200938D01*
X68035719Y-121321890D01*
X67261624Y-120898557D02*
X66874576Y-120898557D01*
X67116481Y-121745224D02*
X67116481Y-120656652D01*
X67068100Y-120535700D01*
X66971338Y-120475224D01*
X66874576Y-120475224D01*
X66100482Y-121745224D02*
X66100482Y-121079986D01*
X66148863Y-120959033D01*
X66245625Y-120898557D01*
X66439148Y-120898557D01*
X66535910Y-120959033D01*
X66100482Y-121684748D02*
X66197244Y-121745224D01*
X66439148Y-121745224D01*
X66535910Y-121684748D01*
X66584291Y-121563795D01*
X66584291Y-121442843D01*
X66535910Y-121321890D01*
X66439148Y-121261414D01*
X66197244Y-121261414D01*
X66100482Y-121200938D01*
X65181244Y-120898557D02*
X65181244Y-121745224D01*
X65616672Y-120898557D02*
X65616672Y-121563795D01*
X65568291Y-121684748D01*
X65471529Y-121745224D01*
X65326387Y-121745224D01*
X65229625Y-121684748D01*
X65181244Y-121624271D01*
X64552291Y-121745224D02*
X64649053Y-121684748D01*
X64697434Y-121563795D01*
X64697434Y-120475224D01*
X64310387Y-120898557D02*
X63923339Y-120898557D01*
X64165244Y-120475224D02*
X64165244Y-121563795D01*
X64116863Y-121684748D01*
X64020101Y-121745224D01*
X63923339Y-121745224D01*
X63681435Y-122229033D02*
X63633054Y-122168557D01*
X63536292Y-121987129D01*
X63487911Y-121866176D01*
X63439530Y-121684748D01*
X63391149Y-121382367D01*
X63391149Y-121140462D01*
X63439530Y-120838081D01*
X63487911Y-120656652D01*
X63536292Y-120535700D01*
X63633054Y-120354271D01*
X63681435Y-120293795D01*
X100499334Y-123605471D02*
X100547715Y-123665948D01*
X100692858Y-123726424D01*
X100789620Y-123726424D01*
X100934762Y-123665948D01*
X101031524Y-123544995D01*
X101079905Y-123424043D01*
X101128286Y-123182138D01*
X101128286Y-123000710D01*
X101079905Y-122758805D01*
X101031524Y-122637852D01*
X100934762Y-122516900D01*
X100789620Y-122456424D01*
X100692858Y-122456424D01*
X100547715Y-122516900D01*
X100499334Y-122577376D01*
X99918762Y-123726424D02*
X100015524Y-123665948D01*
X100063905Y-123544995D01*
X100063905Y-122456424D01*
X99386572Y-123726424D02*
X99483334Y-123665948D01*
X99531715Y-123605471D01*
X99580096Y-123484519D01*
X99580096Y-123121662D01*
X99531715Y-123000710D01*
X99483334Y-122940233D01*
X99386572Y-122879757D01*
X99241430Y-122879757D01*
X99144668Y-122940233D01*
X99096287Y-123000710D01*
X99047906Y-123121662D01*
X99047906Y-123484519D01*
X99096287Y-123605471D01*
X99144668Y-123665948D01*
X99241430Y-123726424D01*
X99386572Y-123726424D01*
X98660858Y-123665948D02*
X98564096Y-123726424D01*
X98370572Y-123726424D01*
X98273811Y-123665948D01*
X98225430Y-123544995D01*
X98225430Y-123484519D01*
X98273811Y-123363567D01*
X98370572Y-123303090D01*
X98515715Y-123303090D01*
X98612477Y-123242614D01*
X98660858Y-123121662D01*
X98660858Y-123061186D01*
X98612477Y-122940233D01*
X98515715Y-122879757D01*
X98370572Y-122879757D01*
X98273811Y-122940233D01*
X97402954Y-123665948D02*
X97499716Y-123726424D01*
X97693239Y-123726424D01*
X97790001Y-123665948D01*
X97838382Y-123544995D01*
X97838382Y-123061186D01*
X97790001Y-122940233D01*
X97693239Y-122879757D01*
X97499716Y-122879757D01*
X97402954Y-122940233D01*
X97354573Y-123061186D01*
X97354573Y-123182138D01*
X97838382Y-123303090D01*
X96483716Y-123726424D02*
X96483716Y-122456424D01*
X96483716Y-123665948D02*
X96580478Y-123726424D01*
X96774001Y-123726424D01*
X96870763Y-123665948D01*
X96919144Y-123605471D01*
X96967525Y-123484519D01*
X96967525Y-123121662D01*
X96919144Y-123000710D01*
X96870763Y-122940233D01*
X96774001Y-122879757D01*
X96580478Y-122879757D01*
X96483716Y-122940233D01*
X95999906Y-123605471D02*
X95951525Y-123665948D01*
X95999906Y-123726424D01*
X96048287Y-123665948D01*
X95999906Y-123605471D01*
X95999906Y-123726424D01*
X95999906Y-122940233D02*
X95951525Y-123000710D01*
X95999906Y-123061186D01*
X96048287Y-123000710D01*
X95999906Y-122940233D01*
X95999906Y-123061186D01*
X94742001Y-123726424D02*
X94742001Y-122456424D01*
X94403335Y-123363567D01*
X94064668Y-122456424D01*
X94064668Y-123726424D01*
X93145430Y-123726424D02*
X93145430Y-123061186D01*
X93193811Y-122940233D01*
X93290573Y-122879757D01*
X93484096Y-122879757D01*
X93580858Y-122940233D01*
X93145430Y-123665948D02*
X93242192Y-123726424D01*
X93484096Y-123726424D01*
X93580858Y-123665948D01*
X93629239Y-123544995D01*
X93629239Y-123424043D01*
X93580858Y-123303090D01*
X93484096Y-123242614D01*
X93242192Y-123242614D01*
X93145430Y-123182138D01*
X92661620Y-122879757D02*
X92661620Y-124149757D01*
X92661620Y-122940233D02*
X92564858Y-122879757D01*
X92371335Y-122879757D01*
X92274573Y-122940233D01*
X92226192Y-123000710D01*
X92177811Y-123121662D01*
X92177811Y-123484519D01*
X92226192Y-123605471D01*
X92274573Y-123665948D01*
X92371335Y-123726424D01*
X92564858Y-123726424D01*
X92661620Y-123665948D01*
X90532859Y-122879757D02*
X90532859Y-123726424D01*
X90968287Y-122879757D02*
X90968287Y-123544995D01*
X90919906Y-123665948D01*
X90823144Y-123726424D01*
X90678002Y-123726424D01*
X90581240Y-123665948D01*
X90532859Y-123605471D01*
X90049049Y-122879757D02*
X90049049Y-124149757D01*
X90049049Y-122940233D02*
X89952287Y-122879757D01*
X89758764Y-122879757D01*
X89662002Y-122940233D01*
X89613621Y-123000710D01*
X89565240Y-123121662D01*
X89565240Y-123484519D01*
X89613621Y-123605471D01*
X89662002Y-123665948D01*
X89758764Y-123726424D01*
X89952287Y-123726424D01*
X90049049Y-123665948D01*
X89129811Y-122879757D02*
X89129811Y-124149757D01*
X89129811Y-122940233D02*
X89033049Y-122879757D01*
X88839526Y-122879757D01*
X88742764Y-122940233D01*
X88694383Y-123000710D01*
X88646002Y-123121662D01*
X88646002Y-123484519D01*
X88694383Y-123605471D01*
X88742764Y-123665948D01*
X88839526Y-123726424D01*
X89033049Y-123726424D01*
X89129811Y-123665948D01*
X87823526Y-123665948D02*
X87920288Y-123726424D01*
X88113811Y-123726424D01*
X88210573Y-123665948D01*
X88258954Y-123544995D01*
X88258954Y-123061186D01*
X88210573Y-122940233D01*
X88113811Y-122879757D01*
X87920288Y-122879757D01*
X87823526Y-122940233D01*
X87775145Y-123061186D01*
X87775145Y-123182138D01*
X88258954Y-123303090D01*
X87339716Y-123726424D02*
X87339716Y-122879757D01*
X87339716Y-123121662D02*
X87291335Y-123000710D01*
X87242954Y-122940233D01*
X87146192Y-122879757D01*
X87049431Y-122879757D01*
X85501241Y-122456424D02*
X85694764Y-122456424D01*
X85791526Y-122516900D01*
X85839907Y-122577376D01*
X85936669Y-122758805D01*
X85985050Y-123000710D01*
X85985050Y-123484519D01*
X85936669Y-123605471D01*
X85888288Y-123665948D01*
X85791526Y-123726424D01*
X85598003Y-123726424D01*
X85501241Y-123665948D01*
X85452860Y-123605471D01*
X85404479Y-123484519D01*
X85404479Y-123182138D01*
X85452860Y-123061186D01*
X85501241Y-123000710D01*
X85598003Y-122940233D01*
X85791526Y-122940233D01*
X85888288Y-123000710D01*
X85936669Y-123061186D01*
X85985050Y-123182138D01*
X84533622Y-122879757D02*
X84533622Y-123726424D01*
X84775526Y-122395948D02*
X85017431Y-123303090D01*
X84388479Y-123303090D01*
X83227336Y-123726424D02*
X83227336Y-122456424D01*
X82646765Y-123726424D02*
X83082193Y-123000710D01*
X82646765Y-122456424D02*
X83227336Y-123182138D01*
X82211336Y-123726424D02*
X82211336Y-122879757D01*
X82211336Y-122456424D02*
X82259717Y-122516900D01*
X82211336Y-122577376D01*
X82162955Y-122516900D01*
X82211336Y-122456424D01*
X82211336Y-122577376D01*
X81388860Y-123061186D02*
X81243717Y-123121662D01*
X81195336Y-123182138D01*
X81146955Y-123303090D01*
X81146955Y-123484519D01*
X81195336Y-123605471D01*
X81243717Y-123665948D01*
X81340479Y-123726424D01*
X81727526Y-123726424D01*
X81727526Y-122456424D01*
X81388860Y-122456424D01*
X81292098Y-122516900D01*
X81243717Y-122577376D01*
X81195336Y-122698329D01*
X81195336Y-122819281D01*
X81243717Y-122940233D01*
X81292098Y-123000710D01*
X81388860Y-123061186D01*
X81727526Y-123061186D01*
X79792288Y-123726424D02*
X79889050Y-123665948D01*
X79937431Y-123605471D01*
X79985812Y-123484519D01*
X79985812Y-123121662D01*
X79937431Y-123000710D01*
X79889050Y-122940233D01*
X79792288Y-122879757D01*
X79647146Y-122879757D01*
X79550384Y-122940233D01*
X79502003Y-123000710D01*
X79453622Y-123121662D01*
X79453622Y-123484519D01*
X79502003Y-123605471D01*
X79550384Y-123665948D01*
X79647146Y-123726424D01*
X79792288Y-123726424D01*
X79163336Y-122879757D02*
X78776288Y-122879757D01*
X79018193Y-123726424D02*
X79018193Y-122637852D01*
X78969812Y-122516900D01*
X78873050Y-122456424D01*
X78776288Y-122456424D01*
X77324861Y-123061186D02*
X77663527Y-123061186D01*
X77663527Y-123726424D02*
X77663527Y-122456424D01*
X77179718Y-122456424D01*
X76647527Y-123726424D02*
X76744289Y-123665948D01*
X76792670Y-123544995D01*
X76792670Y-122456424D01*
X75825052Y-123726424D02*
X75825052Y-123061186D01*
X75873433Y-122940233D01*
X75970195Y-122879757D01*
X76163718Y-122879757D01*
X76260480Y-122940233D01*
X75825052Y-123665948D02*
X75921814Y-123726424D01*
X76163718Y-123726424D01*
X76260480Y-123665948D01*
X76308861Y-123544995D01*
X76308861Y-123424043D01*
X76260480Y-123303090D01*
X76163718Y-123242614D01*
X75921814Y-123242614D01*
X75825052Y-123182138D01*
X75389623Y-123665948D02*
X75292861Y-123726424D01*
X75099337Y-123726424D01*
X75002576Y-123665948D01*
X74954195Y-123544995D01*
X74954195Y-123484519D01*
X75002576Y-123363567D01*
X75099337Y-123303090D01*
X75244480Y-123303090D01*
X75341242Y-123242614D01*
X75389623Y-123121662D01*
X75389623Y-123061186D01*
X75341242Y-122940233D01*
X75244480Y-122879757D01*
X75099337Y-122879757D01*
X75002576Y-122940233D01*
X74518766Y-123726424D02*
X74518766Y-122456424D01*
X74083338Y-123726424D02*
X74083338Y-123061186D01*
X74131719Y-122940233D01*
X74228481Y-122879757D01*
X74373623Y-122879757D01*
X74470385Y-122940233D01*
X74518766Y-123000710D01*
X72244862Y-123726424D02*
X72583528Y-123121662D01*
X72825433Y-123726424D02*
X72825433Y-122456424D01*
X72438386Y-122456424D01*
X72341624Y-122516900D01*
X72293243Y-122577376D01*
X72244862Y-122698329D01*
X72244862Y-122879757D01*
X72293243Y-123000710D01*
X72341624Y-123061186D01*
X72438386Y-123121662D01*
X72825433Y-123121662D01*
X71615909Y-122456424D02*
X71422386Y-122456424D01*
X71325624Y-122516900D01*
X71228862Y-122637852D01*
X71180481Y-122879757D01*
X71180481Y-123303090D01*
X71228862Y-123544995D01*
X71325624Y-123665948D01*
X71422386Y-123726424D01*
X71615909Y-123726424D01*
X71712671Y-123665948D01*
X71809433Y-123544995D01*
X71857814Y-123303090D01*
X71857814Y-122879757D01*
X71809433Y-122637852D01*
X71712671Y-122516900D01*
X71615909Y-122456424D01*
X70745052Y-123726424D02*
X70745052Y-122456424D01*
X70406386Y-123363567D01*
X70067719Y-122456424D01*
X70067719Y-123726424D01*
X102337810Y-124437624D02*
X102337810Y-125344767D01*
X102386190Y-125526195D01*
X102482952Y-125647148D01*
X102628095Y-125707624D01*
X102724857Y-125707624D01*
X101854000Y-125707624D02*
X101854000Y-124437624D01*
X101466953Y-124437624D01*
X101370191Y-124498100D01*
X101321810Y-124558576D01*
X101273429Y-124679529D01*
X101273429Y-124860957D01*
X101321810Y-124981910D01*
X101370191Y-125042386D01*
X101466953Y-125102862D01*
X101854000Y-125102862D01*
X100886381Y-124558576D02*
X100838000Y-124498100D01*
X100741238Y-124437624D01*
X100499334Y-124437624D01*
X100402572Y-124498100D01*
X100354191Y-124558576D01*
X100305810Y-124679529D01*
X100305810Y-124800481D01*
X100354191Y-124981910D01*
X100934762Y-125707624D01*
X100305810Y-125707624D01*
X99096286Y-125223814D02*
X98322191Y-125223814D01*
X96483715Y-125586671D02*
X96532096Y-125647148D01*
X96677239Y-125707624D01*
X96774001Y-125707624D01*
X96919143Y-125647148D01*
X97015905Y-125526195D01*
X97064286Y-125405243D01*
X97112667Y-125163338D01*
X97112667Y-124981910D01*
X97064286Y-124740005D01*
X97015905Y-124619052D01*
X96919143Y-124498100D01*
X96774001Y-124437624D01*
X96677239Y-124437624D01*
X96532096Y-124498100D01*
X96483715Y-124558576D01*
X96048286Y-125707624D02*
X96048286Y-124860957D01*
X96048286Y-125102862D02*
X95999905Y-124981910D01*
X95951524Y-124921433D01*
X95854762Y-124860957D01*
X95758001Y-124860957D01*
X95516096Y-124860957D02*
X95274191Y-125707624D01*
X95032287Y-124860957D02*
X95274191Y-125707624D01*
X95370953Y-126010005D01*
X95419334Y-126070481D01*
X95516096Y-126130957D01*
X94693620Y-125647148D02*
X94596858Y-125707624D01*
X94403334Y-125707624D01*
X94306573Y-125647148D01*
X94258192Y-125526195D01*
X94258192Y-125465719D01*
X94306573Y-125344767D01*
X94403334Y-125284290D01*
X94548477Y-125284290D01*
X94645239Y-125223814D01*
X94693620Y-125102862D01*
X94693620Y-125042386D01*
X94645239Y-124921433D01*
X94548477Y-124860957D01*
X94403334Y-124860957D01*
X94306573Y-124921433D01*
X93967906Y-124860957D02*
X93580858Y-124860957D01*
X93822763Y-124437624D02*
X93822763Y-125526195D01*
X93774382Y-125647148D01*
X93677620Y-125707624D01*
X93580858Y-125707624D01*
X92806764Y-125707624D02*
X92806764Y-125042386D01*
X92855145Y-124921433D01*
X92951907Y-124860957D01*
X93145430Y-124860957D01*
X93242192Y-124921433D01*
X92806764Y-125647148D02*
X92903526Y-125707624D01*
X93145430Y-125707624D01*
X93242192Y-125647148D01*
X93290573Y-125526195D01*
X93290573Y-125405243D01*
X93242192Y-125284290D01*
X93145430Y-125223814D01*
X92903526Y-125223814D01*
X92806764Y-125163338D01*
X92177811Y-125707624D02*
X92274573Y-125647148D01*
X92322954Y-125526195D01*
X92322954Y-124437624D01*
X90726384Y-126191433D02*
X90774764Y-126130957D01*
X90871526Y-125949529D01*
X90919907Y-125828576D01*
X90968288Y-125647148D01*
X91016669Y-125344767D01*
X91016669Y-125102862D01*
X90968288Y-124800481D01*
X90919907Y-124619052D01*
X90871526Y-124498100D01*
X90774764Y-124316671D01*
X90726384Y-124256195D01*
X90436098Y-124437624D02*
X89758765Y-125707624D01*
X89758765Y-124437624D02*
X90436098Y-125707624D01*
X88839527Y-125707624D02*
X89420098Y-125707624D01*
X89129812Y-125707624D02*
X89129812Y-124437624D01*
X89226574Y-124619052D01*
X89323336Y-124740005D01*
X89420098Y-124800481D01*
X88500860Y-126191433D02*
X88452479Y-126130957D01*
X88355717Y-125949529D01*
X88307336Y-125828576D01*
X88258955Y-125647148D01*
X88210574Y-125344767D01*
X88210574Y-125102862D01*
X88258955Y-124800481D01*
X88307336Y-124619052D01*
X88355717Y-124498100D01*
X88452479Y-124316671D01*
X88500860Y-124256195D01*
X86614004Y-125042386D02*
X86952670Y-125042386D01*
X86952670Y-125707624D02*
X86952670Y-124437624D01*
X86468861Y-124437624D01*
X86081813Y-125707624D02*
X86081813Y-124860957D01*
X86081813Y-125102862D02*
X86033432Y-124981910D01*
X85985051Y-124921433D01*
X85888289Y-124860957D01*
X85791528Y-124860957D01*
X85065814Y-125647148D02*
X85162576Y-125707624D01*
X85356099Y-125707624D01*
X85452861Y-125647148D01*
X85501242Y-125526195D01*
X85501242Y-125042386D01*
X85452861Y-124921433D01*
X85356099Y-124860957D01*
X85162576Y-124860957D01*
X85065814Y-124921433D01*
X85017433Y-125042386D01*
X85017433Y-125163338D01*
X85501242Y-125284290D01*
X84146576Y-124860957D02*
X84146576Y-126130957D01*
X84146576Y-125647148D02*
X84243338Y-125707624D01*
X84436861Y-125707624D01*
X84533623Y-125647148D01*
X84582004Y-125586671D01*
X84630385Y-125465719D01*
X84630385Y-125102862D01*
X84582004Y-124981910D01*
X84533623Y-124921433D01*
X84436861Y-124860957D01*
X84243338Y-124860957D01*
X84146576Y-124921433D01*
X83227338Y-124860957D02*
X83227338Y-125707624D01*
X83662766Y-124860957D02*
X83662766Y-125526195D01*
X83614385Y-125647148D01*
X83517623Y-125707624D01*
X83372481Y-125707624D01*
X83275719Y-125647148D01*
X83227338Y-125586671D01*
X82356481Y-125647148D02*
X82453243Y-125707624D01*
X82646766Y-125707624D01*
X82743528Y-125647148D01*
X82791909Y-125526195D01*
X82791909Y-125042386D01*
X82743528Y-124921433D01*
X82646766Y-124860957D01*
X82453243Y-124860957D01*
X82356481Y-124921433D01*
X82308100Y-125042386D01*
X82308100Y-125163338D01*
X82791909Y-125284290D01*
X81872671Y-124860957D02*
X81872671Y-125707624D01*
X81872671Y-124981910D02*
X81824290Y-124921433D01*
X81727528Y-124860957D01*
X81582386Y-124860957D01*
X81485624Y-124921433D01*
X81437243Y-125042386D01*
X81437243Y-125707624D01*
X80518005Y-125647148D02*
X80614767Y-125707624D01*
X80808290Y-125707624D01*
X80905052Y-125647148D01*
X80953433Y-125586671D01*
X81001814Y-125465719D01*
X81001814Y-125102862D01*
X80953433Y-124981910D01*
X80905052Y-124921433D01*
X80808290Y-124860957D01*
X80614767Y-124860957D01*
X80518005Y-124921433D01*
X80179338Y-124860957D02*
X79937433Y-125707624D01*
X79695529Y-124860957D02*
X79937433Y-125707624D01*
X80034195Y-126010005D01*
X80082576Y-126070481D01*
X80179338Y-126130957D01*
X78582767Y-125647148D02*
X78437624Y-125707624D01*
X78195720Y-125707624D01*
X78098958Y-125647148D01*
X78050577Y-125586671D01*
X78002196Y-125465719D01*
X78002196Y-125344767D01*
X78050577Y-125223814D01*
X78098958Y-125163338D01*
X78195720Y-125102862D01*
X78389243Y-125042386D01*
X78486005Y-124981910D01*
X78534386Y-124921433D01*
X78582767Y-124800481D01*
X78582767Y-124679529D01*
X78534386Y-124558576D01*
X78486005Y-124498100D01*
X78389243Y-124437624D01*
X78147339Y-124437624D01*
X78002196Y-124498100D01*
X77179720Y-125647148D02*
X77276482Y-125707624D01*
X77470005Y-125707624D01*
X77566767Y-125647148D01*
X77615148Y-125526195D01*
X77615148Y-125042386D01*
X77566767Y-124921433D01*
X77470005Y-124860957D01*
X77276482Y-124860957D01*
X77179720Y-124921433D01*
X77131339Y-125042386D01*
X77131339Y-125163338D01*
X77615148Y-125284290D01*
X76550767Y-125707624D02*
X76647529Y-125647148D01*
X76695910Y-125526195D01*
X76695910Y-124437624D01*
X75776673Y-125647148D02*
X75873435Y-125707624D01*
X76066958Y-125707624D01*
X76163720Y-125647148D01*
X76212101Y-125526195D01*
X76212101Y-125042386D01*
X76163720Y-124921433D01*
X76066958Y-124860957D01*
X75873435Y-124860957D01*
X75776673Y-124921433D01*
X75728292Y-125042386D01*
X75728292Y-125163338D01*
X76212101Y-125284290D01*
X74857435Y-125647148D02*
X74954197Y-125707624D01*
X75147720Y-125707624D01*
X75244482Y-125647148D01*
X75292863Y-125586671D01*
X75341244Y-125465719D01*
X75341244Y-125102862D01*
X75292863Y-124981910D01*
X75244482Y-124921433D01*
X75147720Y-124860957D01*
X74954197Y-124860957D01*
X74857435Y-124921433D01*
X74567149Y-124860957D02*
X74180101Y-124860957D01*
X74422006Y-124437624D02*
X74422006Y-125526195D01*
X74373625Y-125647148D01*
X74276863Y-125707624D01*
X74180101Y-125707624D01*
X73841435Y-125586671D02*
X73793054Y-125647148D01*
X73841435Y-125707624D01*
X73889816Y-125647148D01*
X73841435Y-125586671D01*
X73841435Y-125707624D01*
X73841435Y-124921433D02*
X73793054Y-124981910D01*
X73841435Y-125042386D01*
X73889816Y-124981910D01*
X73841435Y-124921433D01*
X73841435Y-125042386D01*
X100886381Y-126418824D02*
X100692858Y-126418824D01*
X100596096Y-126479300D01*
X100499334Y-126600252D01*
X100450953Y-126842157D01*
X100450953Y-127265490D01*
X100499334Y-127507395D01*
X100596096Y-127628348D01*
X100692858Y-127688824D01*
X100886381Y-127688824D01*
X100983143Y-127628348D01*
X101079905Y-127507395D01*
X101128286Y-127265490D01*
X101128286Y-126842157D01*
X101079905Y-126600252D01*
X100983143Y-126479300D01*
X100886381Y-126418824D01*
X100015524Y-126842157D02*
X100015524Y-128112157D01*
X100015524Y-126902633D02*
X99918762Y-126842157D01*
X99725239Y-126842157D01*
X99628477Y-126902633D01*
X99580096Y-126963110D01*
X99531715Y-127084062D01*
X99531715Y-127446919D01*
X99580096Y-127567871D01*
X99628477Y-127628348D01*
X99725239Y-127688824D01*
X99918762Y-127688824D01*
X100015524Y-127628348D01*
X98709239Y-127628348D02*
X98806001Y-127688824D01*
X98999524Y-127688824D01*
X99096286Y-127628348D01*
X99144667Y-127507395D01*
X99144667Y-127023586D01*
X99096286Y-126902633D01*
X98999524Y-126842157D01*
X98806001Y-126842157D01*
X98709239Y-126902633D01*
X98660858Y-127023586D01*
X98660858Y-127144538D01*
X99144667Y-127265490D01*
X98225429Y-126842157D02*
X98225429Y-127688824D01*
X98225429Y-126963110D02*
X98177048Y-126902633D01*
X98080286Y-126842157D01*
X97935144Y-126842157D01*
X97838382Y-126902633D01*
X97790001Y-127023586D01*
X97790001Y-127688824D01*
X97306191Y-127567871D02*
X97257810Y-127628348D01*
X97306191Y-127688824D01*
X97354572Y-127628348D01*
X97306191Y-127567871D01*
X97306191Y-127688824D01*
X97306191Y-126902633D02*
X97257810Y-126963110D01*
X97306191Y-127023586D01*
X97354572Y-126963110D01*
X97306191Y-126902633D01*
X97306191Y-127023586D01*
X94742001Y-127688824D02*
X95322572Y-127688824D01*
X95032286Y-127688824D02*
X95032286Y-126418824D01*
X95129048Y-126600252D01*
X95225810Y-126721205D01*
X95322572Y-126781681D01*
X93871144Y-126842157D02*
X93871144Y-127688824D01*
X94113048Y-126358348D02*
X94354953Y-127265490D01*
X93726001Y-127265490D01*
X93338953Y-127567871D02*
X93290572Y-127628348D01*
X93338953Y-127688824D01*
X93387334Y-127628348D01*
X93338953Y-127567871D01*
X93338953Y-127688824D01*
X92951905Y-126418824D02*
X92322953Y-126418824D01*
X92661619Y-126902633D01*
X92516477Y-126902633D01*
X92419715Y-126963110D01*
X92371334Y-127023586D01*
X92322953Y-127144538D01*
X92322953Y-127446919D01*
X92371334Y-127567871D01*
X92419715Y-127628348D01*
X92516477Y-127688824D01*
X92806762Y-127688824D01*
X92903524Y-127628348D01*
X92951905Y-127567871D01*
X91355334Y-127688824D02*
X91935905Y-127688824D01*
X91645619Y-127688824D02*
X91645619Y-126418824D01*
X91742381Y-126600252D01*
X91839143Y-126721205D01*
X91935905Y-126781681D01*
X90774762Y-126963110D02*
X90871524Y-126902633D01*
X90919905Y-126842157D01*
X90968286Y-126721205D01*
X90968286Y-126660729D01*
X90919905Y-126539776D01*
X90871524Y-126479300D01*
X90774762Y-126418824D01*
X90581239Y-126418824D01*
X90484477Y-126479300D01*
X90436096Y-126539776D01*
X90387715Y-126660729D01*
X90387715Y-126721205D01*
X90436096Y-126842157D01*
X90484477Y-126902633D01*
X90581239Y-126963110D01*
X90774762Y-126963110D01*
X90871524Y-127023586D01*
X90919905Y-127084062D01*
X90968286Y-127205014D01*
X90968286Y-127446919D01*
X90919905Y-127567871D01*
X90871524Y-127628348D01*
X90774762Y-127688824D01*
X90581239Y-127688824D01*
X90484477Y-127628348D01*
X90436096Y-127567871D01*
X90387715Y-127446919D01*
X90387715Y-127205014D01*
X90436096Y-127084062D01*
X90484477Y-127023586D01*
X90581239Y-126963110D01*
X89420096Y-127688824D02*
X90000667Y-127688824D01*
X89710381Y-127688824D02*
X89710381Y-126418824D01*
X89807143Y-126600252D01*
X89903905Y-126721205D01*
X90000667Y-126781681D01*
X88839524Y-126963110D02*
X88936286Y-126902633D01*
X88984667Y-126842157D01*
X89033048Y-126721205D01*
X89033048Y-126660729D01*
X88984667Y-126539776D01*
X88936286Y-126479300D01*
X88839524Y-126418824D01*
X88646001Y-126418824D01*
X88549239Y-126479300D01*
X88500858Y-126539776D01*
X88452477Y-126660729D01*
X88452477Y-126721205D01*
X88500858Y-126842157D01*
X88549239Y-126902633D01*
X88646001Y-126963110D01*
X88839524Y-126963110D01*
X88936286Y-127023586D01*
X88984667Y-127084062D01*
X89033048Y-127205014D01*
X89033048Y-127446919D01*
X88984667Y-127567871D01*
X88936286Y-127628348D01*
X88839524Y-127688824D01*
X88646001Y-127688824D01*
X88549239Y-127628348D01*
X88500858Y-127567871D01*
X88452477Y-127446919D01*
X88452477Y-127205014D01*
X88500858Y-127084062D01*
X88549239Y-127023586D01*
X88646001Y-126963110D01*
X87242953Y-127688824D02*
X87242953Y-126418824D01*
X86904287Y-127325967D01*
X86565620Y-126418824D01*
X86565620Y-127688824D01*
X86081810Y-127688824D02*
X86081810Y-126418824D01*
X86081810Y-127023586D02*
X85501239Y-127023586D01*
X85501239Y-127688824D02*
X85501239Y-126418824D01*
X85114191Y-126842157D02*
X84582001Y-126842157D01*
X85114191Y-127688824D01*
X84582001Y-127688824D01*
X83130573Y-128172633D02*
X83178953Y-128112157D01*
X83275715Y-127930729D01*
X83324096Y-127809776D01*
X83372477Y-127628348D01*
X83420858Y-127325967D01*
X83420858Y-127084062D01*
X83372477Y-126781681D01*
X83324096Y-126600252D01*
X83275715Y-126479300D01*
X83178953Y-126297871D01*
X83130573Y-126237395D01*
X82308097Y-127688824D02*
X82308097Y-126418824D01*
X82308097Y-127628348D02*
X82404859Y-127688824D01*
X82598382Y-127688824D01*
X82695144Y-127628348D01*
X82743525Y-127567871D01*
X82791906Y-127446919D01*
X82791906Y-127084062D01*
X82743525Y-126963110D01*
X82695144Y-126902633D01*
X82598382Y-126842157D01*
X82404859Y-126842157D01*
X82308097Y-126902633D01*
X81437240Y-127628348D02*
X81534002Y-127688824D01*
X81727525Y-127688824D01*
X81824287Y-127628348D01*
X81872668Y-127507395D01*
X81872668Y-127023586D01*
X81824287Y-126902633D01*
X81727525Y-126842157D01*
X81534002Y-126842157D01*
X81437240Y-126902633D01*
X81388859Y-127023586D01*
X81388859Y-127144538D01*
X81872668Y-127265490D01*
X81098573Y-126842157D02*
X80711525Y-126842157D01*
X80953430Y-127688824D02*
X80953430Y-126600252D01*
X80905049Y-126479300D01*
X80808287Y-126418824D01*
X80711525Y-126418824D01*
X79937431Y-127688824D02*
X79937431Y-127023586D01*
X79985812Y-126902633D01*
X80082574Y-126842157D01*
X80276097Y-126842157D01*
X80372859Y-126902633D01*
X79937431Y-127628348D02*
X80034193Y-127688824D01*
X80276097Y-127688824D01*
X80372859Y-127628348D01*
X80421240Y-127507395D01*
X80421240Y-127386443D01*
X80372859Y-127265490D01*
X80276097Y-127205014D01*
X80034193Y-127205014D01*
X79937431Y-127144538D01*
X79018193Y-126842157D02*
X79018193Y-127688824D01*
X79453621Y-126842157D02*
X79453621Y-127507395D01*
X79405240Y-127628348D01*
X79308478Y-127688824D01*
X79163336Y-127688824D01*
X79066574Y-127628348D01*
X79018193Y-127567871D01*
X78389240Y-127688824D02*
X78486002Y-127628348D01*
X78534383Y-127507395D01*
X78534383Y-126418824D01*
X78147336Y-126842157D02*
X77760288Y-126842157D01*
X78002193Y-126418824D02*
X78002193Y-127507395D01*
X77953812Y-127628348D01*
X77857050Y-127688824D01*
X77760288Y-127688824D01*
X77518384Y-128172633D02*
X77470003Y-128112157D01*
X77373241Y-127930729D01*
X77324860Y-127809776D01*
X77276479Y-127628348D01*
X77228098Y-127325967D01*
X77228098Y-127084062D01*
X77276479Y-126781681D01*
X77324860Y-126600252D01*
X77373241Y-126479300D01*
X77470003Y-126297871D01*
X77518384Y-126237395D01*
X100499334Y-129549071D02*
X100547715Y-129609548D01*
X100692858Y-129670024D01*
X100789620Y-129670024D01*
X100934762Y-129609548D01*
X101031524Y-129488595D01*
X101079905Y-129367643D01*
X101128286Y-129125738D01*
X101128286Y-128944310D01*
X101079905Y-128702405D01*
X101031524Y-128581452D01*
X100934762Y-128460500D01*
X100789620Y-128400024D01*
X100692858Y-128400024D01*
X100547715Y-128460500D01*
X100499334Y-128520976D01*
X99918762Y-129670024D02*
X100015524Y-129609548D01*
X100063905Y-129488595D01*
X100063905Y-128400024D01*
X99386572Y-129670024D02*
X99483334Y-129609548D01*
X99531715Y-129549071D01*
X99580096Y-129428119D01*
X99580096Y-129065262D01*
X99531715Y-128944310D01*
X99483334Y-128883833D01*
X99386572Y-128823357D01*
X99241430Y-128823357D01*
X99144668Y-128883833D01*
X99096287Y-128944310D01*
X99047906Y-129065262D01*
X99047906Y-129428119D01*
X99096287Y-129549071D01*
X99144668Y-129609548D01*
X99241430Y-129670024D01*
X99386572Y-129670024D01*
X98660858Y-129609548D02*
X98564096Y-129670024D01*
X98370572Y-129670024D01*
X98273811Y-129609548D01*
X98225430Y-129488595D01*
X98225430Y-129428119D01*
X98273811Y-129307167D01*
X98370572Y-129246690D01*
X98515715Y-129246690D01*
X98612477Y-129186214D01*
X98660858Y-129065262D01*
X98660858Y-129004786D01*
X98612477Y-128883833D01*
X98515715Y-128823357D01*
X98370572Y-128823357D01*
X98273811Y-128883833D01*
X97402954Y-129609548D02*
X97499716Y-129670024D01*
X97693239Y-129670024D01*
X97790001Y-129609548D01*
X97838382Y-129488595D01*
X97838382Y-129004786D01*
X97790001Y-128883833D01*
X97693239Y-128823357D01*
X97499716Y-128823357D01*
X97402954Y-128883833D01*
X97354573Y-129004786D01*
X97354573Y-129125738D01*
X97838382Y-129246690D01*
X96483716Y-129670024D02*
X96483716Y-128400024D01*
X96483716Y-129609548D02*
X96580478Y-129670024D01*
X96774001Y-129670024D01*
X96870763Y-129609548D01*
X96919144Y-129549071D01*
X96967525Y-129428119D01*
X96967525Y-129065262D01*
X96919144Y-128944310D01*
X96870763Y-128883833D01*
X96774001Y-128823357D01*
X96580478Y-128823357D01*
X96483716Y-128883833D01*
X95999906Y-129549071D02*
X95951525Y-129609548D01*
X95999906Y-129670024D01*
X96048287Y-129609548D01*
X95999906Y-129549071D01*
X95999906Y-129670024D01*
X95999906Y-128883833D02*
X95951525Y-128944310D01*
X95999906Y-129004786D01*
X96048287Y-128944310D01*
X95999906Y-128883833D01*
X95999906Y-129004786D01*
X94790382Y-128520976D02*
X94742001Y-128460500D01*
X94645239Y-128400024D01*
X94403335Y-128400024D01*
X94306573Y-128460500D01*
X94258192Y-128520976D01*
X94209811Y-128641929D01*
X94209811Y-128762881D01*
X94258192Y-128944310D01*
X94838763Y-129670024D01*
X94209811Y-129670024D01*
X93629239Y-128944310D02*
X93726001Y-128883833D01*
X93774382Y-128823357D01*
X93822763Y-128702405D01*
X93822763Y-128641929D01*
X93774382Y-128520976D01*
X93726001Y-128460500D01*
X93629239Y-128400024D01*
X93435716Y-128400024D01*
X93338954Y-128460500D01*
X93290573Y-128520976D01*
X93242192Y-128641929D01*
X93242192Y-128702405D01*
X93290573Y-128823357D01*
X93338954Y-128883833D01*
X93435716Y-128944310D01*
X93629239Y-128944310D01*
X93726001Y-129004786D01*
X93774382Y-129065262D01*
X93822763Y-129186214D01*
X93822763Y-129428119D01*
X93774382Y-129549071D01*
X93726001Y-129609548D01*
X93629239Y-129670024D01*
X93435716Y-129670024D01*
X93338954Y-129609548D01*
X93290573Y-129549071D01*
X93242192Y-129428119D01*
X93242192Y-129186214D01*
X93290573Y-129065262D01*
X93338954Y-129004786D01*
X93435716Y-128944310D01*
X92806763Y-129549071D02*
X92758382Y-129609548D01*
X92806763Y-129670024D01*
X92855144Y-129609548D01*
X92806763Y-129549071D01*
X92806763Y-129670024D01*
X91887525Y-128400024D02*
X92081048Y-128400024D01*
X92177810Y-128460500D01*
X92226191Y-128520976D01*
X92322953Y-128702405D01*
X92371334Y-128944310D01*
X92371334Y-129428119D01*
X92322953Y-129549071D01*
X92274572Y-129609548D01*
X92177810Y-129670024D01*
X91984287Y-129670024D01*
X91887525Y-129609548D01*
X91839144Y-129549071D01*
X91790763Y-129428119D01*
X91790763Y-129125738D01*
X91839144Y-129004786D01*
X91887525Y-128944310D01*
X91984287Y-128883833D01*
X92177810Y-128883833D01*
X92274572Y-128944310D01*
X92322953Y-129004786D01*
X92371334Y-129125738D01*
X91452096Y-128400024D02*
X90823144Y-128400024D01*
X91161810Y-128883833D01*
X91016668Y-128883833D01*
X90919906Y-128944310D01*
X90871525Y-129004786D01*
X90823144Y-129125738D01*
X90823144Y-129428119D01*
X90871525Y-129549071D01*
X90919906Y-129609548D01*
X91016668Y-129670024D01*
X91306953Y-129670024D01*
X91403715Y-129609548D01*
X91452096Y-129549071D01*
X89952287Y-128400024D02*
X90145810Y-128400024D01*
X90242572Y-128460500D01*
X90290953Y-128520976D01*
X90387715Y-128702405D01*
X90436096Y-128944310D01*
X90436096Y-129428119D01*
X90387715Y-129549071D01*
X90339334Y-129609548D01*
X90242572Y-129670024D01*
X90049049Y-129670024D01*
X89952287Y-129609548D01*
X89903906Y-129549071D01*
X89855525Y-129428119D01*
X89855525Y-129125738D01*
X89903906Y-129004786D01*
X89952287Y-128944310D01*
X90049049Y-128883833D01*
X90242572Y-128883833D01*
X90339334Y-128944310D01*
X90387715Y-129004786D01*
X90436096Y-129125738D01*
X89516858Y-128400024D02*
X88887906Y-128400024D01*
X89226572Y-128883833D01*
X89081430Y-128883833D01*
X88984668Y-128944310D01*
X88936287Y-129004786D01*
X88887906Y-129125738D01*
X88887906Y-129428119D01*
X88936287Y-129549071D01*
X88984668Y-129609548D01*
X89081430Y-129670024D01*
X89371715Y-129670024D01*
X89468477Y-129609548D01*
X89516858Y-129549071D01*
X88017049Y-128400024D02*
X88210572Y-128400024D01*
X88307334Y-128460500D01*
X88355715Y-128520976D01*
X88452477Y-128702405D01*
X88500858Y-128944310D01*
X88500858Y-129428119D01*
X88452477Y-129549071D01*
X88404096Y-129609548D01*
X88307334Y-129670024D01*
X88113811Y-129670024D01*
X88017049Y-129609548D01*
X87968668Y-129549071D01*
X87920287Y-129428119D01*
X87920287Y-129125738D01*
X87968668Y-129004786D01*
X88017049Y-128944310D01*
X88113811Y-128883833D01*
X88307334Y-128883833D01*
X88404096Y-128944310D01*
X88452477Y-129004786D01*
X88500858Y-129125738D01*
X86710763Y-129670024D02*
X86710763Y-128400024D01*
X86372097Y-129307167D01*
X86033430Y-128400024D01*
X86033430Y-129670024D01*
X85549620Y-129670024D02*
X85549620Y-128400024D01*
X85549620Y-129004786D02*
X84969049Y-129004786D01*
X84969049Y-129670024D02*
X84969049Y-128400024D01*
X84582001Y-128823357D02*
X84049811Y-128823357D01*
X84582001Y-129670024D01*
X84049811Y-129670024D01*
X102676476Y-99383548D02*
X102531333Y-99444024D01*
X102289429Y-99444024D01*
X102192667Y-99383548D01*
X102144286Y-99323071D01*
X102095905Y-99202119D01*
X102095905Y-99081167D01*
X102144286Y-98960214D01*
X102192667Y-98899738D01*
X102289429Y-98839262D01*
X102482952Y-98778786D01*
X102579714Y-98718310D01*
X102628095Y-98657833D01*
X102676476Y-98536881D01*
X102676476Y-98415929D01*
X102628095Y-98294976D01*
X102579714Y-98234500D01*
X102482952Y-98174024D01*
X102241048Y-98174024D01*
X102095905Y-98234500D01*
X101757238Y-98174024D02*
X101515333Y-99444024D01*
X101321810Y-98536881D01*
X101128286Y-99444024D01*
X100886381Y-98174024D01*
X100596095Y-98174024D02*
X99967143Y-98174024D01*
X100305809Y-98657833D01*
X100160667Y-98657833D01*
X100063905Y-98718310D01*
X100015524Y-98778786D01*
X99967143Y-98899738D01*
X99967143Y-99202119D01*
X100015524Y-99323071D01*
X100063905Y-99383548D01*
X100160667Y-99444024D01*
X100450952Y-99444024D01*
X100547714Y-99383548D01*
X100596095Y-99323071D01*
X98757619Y-98960214D02*
X97983524Y-98960214D01*
X96725619Y-98174024D02*
X96725619Y-99202119D01*
X96677238Y-99323071D01*
X96628857Y-99383548D01*
X96532095Y-99444024D01*
X96338572Y-99444024D01*
X96241810Y-99383548D01*
X96193429Y-99323071D01*
X96145048Y-99202119D01*
X96145048Y-98174024D01*
X95661238Y-99444024D02*
X95661238Y-98174024D01*
X95322572Y-99081167D01*
X94983905Y-98174024D01*
X94983905Y-99444024D01*
X94161429Y-98778786D02*
X94016286Y-98839262D01*
X93967905Y-98899738D01*
X93919524Y-99020690D01*
X93919524Y-99202119D01*
X93967905Y-99323071D01*
X94016286Y-99383548D01*
X94113048Y-99444024D01*
X94500095Y-99444024D01*
X94500095Y-98174024D01*
X94161429Y-98174024D01*
X94064667Y-98234500D01*
X94016286Y-98294976D01*
X93967905Y-98415929D01*
X93967905Y-98536881D01*
X94016286Y-98657833D01*
X94064667Y-98718310D01*
X94161429Y-98778786D01*
X94500095Y-98778786D01*
X92129429Y-99323071D02*
X92177810Y-99383548D01*
X92322953Y-99444024D01*
X92419715Y-99444024D01*
X92564857Y-99383548D01*
X92661619Y-99262595D01*
X92710000Y-99141643D01*
X92758381Y-98899738D01*
X92758381Y-98718310D01*
X92710000Y-98476405D01*
X92661619Y-98355452D01*
X92564857Y-98234500D01*
X92419715Y-98174024D01*
X92322953Y-98174024D01*
X92177810Y-98234500D01*
X92129429Y-98294976D01*
X91548857Y-99444024D02*
X91645619Y-99383548D01*
X91694000Y-99323071D01*
X91742381Y-99202119D01*
X91742381Y-98839262D01*
X91694000Y-98718310D01*
X91645619Y-98657833D01*
X91548857Y-98597357D01*
X91403715Y-98597357D01*
X91306953Y-98657833D01*
X91258572Y-98718310D01*
X91210191Y-98839262D01*
X91210191Y-99202119D01*
X91258572Y-99323071D01*
X91306953Y-99383548D01*
X91403715Y-99444024D01*
X91548857Y-99444024D01*
X90774762Y-98597357D02*
X90774762Y-99444024D01*
X90774762Y-98718310D02*
X90726381Y-98657833D01*
X90629619Y-98597357D01*
X90484477Y-98597357D01*
X90387715Y-98657833D01*
X90339334Y-98778786D01*
X90339334Y-99444024D01*
X90000667Y-98597357D02*
X89613619Y-98597357D01*
X89855524Y-99444024D02*
X89855524Y-98355452D01*
X89807143Y-98234500D01*
X89710381Y-98174024D01*
X89613619Y-98174024D01*
X89274953Y-99444024D02*
X89274953Y-98597357D01*
X89274953Y-98174024D02*
X89323334Y-98234500D01*
X89274953Y-98294976D01*
X89226572Y-98234500D01*
X89274953Y-98174024D01*
X89274953Y-98294976D01*
X88355715Y-98597357D02*
X88355715Y-99625452D01*
X88404096Y-99746405D01*
X88452477Y-99806881D01*
X88549238Y-99867357D01*
X88694381Y-99867357D01*
X88791143Y-99806881D01*
X88355715Y-99383548D02*
X88452477Y-99444024D01*
X88646000Y-99444024D01*
X88742762Y-99383548D01*
X88791143Y-99323071D01*
X88839524Y-99202119D01*
X88839524Y-98839262D01*
X88791143Y-98718310D01*
X88742762Y-98657833D01*
X88646000Y-98597357D01*
X88452477Y-98597357D01*
X88355715Y-98657833D01*
X87436477Y-98597357D02*
X87436477Y-99444024D01*
X87871905Y-98597357D02*
X87871905Y-99262595D01*
X87823524Y-99383548D01*
X87726762Y-99444024D01*
X87581620Y-99444024D01*
X87484858Y-99383548D01*
X87436477Y-99323071D01*
X86952667Y-99444024D02*
X86952667Y-98597357D01*
X86952667Y-98839262D02*
X86904286Y-98718310D01*
X86855905Y-98657833D01*
X86759143Y-98597357D01*
X86662382Y-98597357D01*
X85888287Y-99444024D02*
X85888287Y-98778786D01*
X85936668Y-98657833D01*
X86033430Y-98597357D01*
X86226953Y-98597357D01*
X86323715Y-98657833D01*
X85888287Y-99383548D02*
X85985049Y-99444024D01*
X86226953Y-99444024D01*
X86323715Y-99383548D01*
X86372096Y-99262595D01*
X86372096Y-99141643D01*
X86323715Y-99020690D01*
X86226953Y-98960214D01*
X85985049Y-98960214D01*
X85888287Y-98899738D01*
X85549620Y-98597357D02*
X85162572Y-98597357D01*
X85404477Y-98174024D02*
X85404477Y-99262595D01*
X85356096Y-99383548D01*
X85259334Y-99444024D01*
X85162572Y-99444024D01*
X84823906Y-99444024D02*
X84823906Y-98597357D01*
X84823906Y-98174024D02*
X84872287Y-98234500D01*
X84823906Y-98294976D01*
X84775525Y-98234500D01*
X84823906Y-98174024D01*
X84823906Y-98294976D01*
X84194953Y-99444024D02*
X84291715Y-99383548D01*
X84340096Y-99323071D01*
X84388477Y-99202119D01*
X84388477Y-98839262D01*
X84340096Y-98718310D01*
X84291715Y-98657833D01*
X84194953Y-98597357D01*
X84049811Y-98597357D01*
X83953049Y-98657833D01*
X83904668Y-98718310D01*
X83856287Y-98839262D01*
X83856287Y-99202119D01*
X83904668Y-99323071D01*
X83953049Y-99383548D01*
X84049811Y-99444024D01*
X84194953Y-99444024D01*
X83420858Y-98597357D02*
X83420858Y-99444024D01*
X83420858Y-98718310D02*
X83372477Y-98657833D01*
X83275715Y-98597357D01*
X83130573Y-98597357D01*
X83033811Y-98657833D01*
X82985430Y-98778786D01*
X82985430Y-99444024D01*
X82501620Y-99323071D02*
X82453239Y-99383548D01*
X82501620Y-99444024D01*
X82550001Y-99383548D01*
X82501620Y-99323071D01*
X82501620Y-99444024D01*
X82501620Y-98657833D02*
X82453239Y-98718310D01*
X82501620Y-98778786D01*
X82550001Y-98718310D01*
X82501620Y-98657833D01*
X82501620Y-98778786D01*
X101128286Y-101364748D02*
X100983143Y-101425224D01*
X100741239Y-101425224D01*
X100644477Y-101364748D01*
X100596096Y-101304271D01*
X100547715Y-101183319D01*
X100547715Y-101062367D01*
X100596096Y-100941414D01*
X100644477Y-100880938D01*
X100741239Y-100820462D01*
X100934762Y-100759986D01*
X101031524Y-100699510D01*
X101079905Y-100639033D01*
X101128286Y-100518081D01*
X101128286Y-100397129D01*
X101079905Y-100276176D01*
X101031524Y-100215700D01*
X100934762Y-100155224D01*
X100692858Y-100155224D01*
X100547715Y-100215700D01*
X100209048Y-100155224D02*
X99967143Y-101425224D01*
X99773620Y-100518081D01*
X99580096Y-101425224D01*
X99338191Y-100155224D01*
X99047905Y-100155224D02*
X98418953Y-100155224D01*
X98757619Y-100639033D01*
X98612477Y-100639033D01*
X98515715Y-100699510D01*
X98467334Y-100759986D01*
X98418953Y-100880938D01*
X98418953Y-101183319D01*
X98467334Y-101304271D01*
X98515715Y-101364748D01*
X98612477Y-101425224D01*
X98902762Y-101425224D01*
X98999524Y-101364748D01*
X99047905Y-101304271D01*
X97983524Y-101304271D02*
X97935143Y-101364748D01*
X97983524Y-101425224D01*
X98031905Y-101364748D01*
X97983524Y-101304271D01*
X97983524Y-101425224D01*
X96967524Y-101425224D02*
X97548095Y-101425224D01*
X97257809Y-101425224D02*
X97257809Y-100155224D01*
X97354571Y-100336652D01*
X97451333Y-100457605D01*
X97548095Y-100518081D01*
X95758000Y-100759986D02*
X94983905Y-100759986D01*
X94983905Y-101122843D02*
X95758000Y-101122843D01*
X93532476Y-100155224D02*
X93338953Y-100155224D01*
X93242191Y-100215700D01*
X93145429Y-100336652D01*
X93097048Y-100578557D01*
X93097048Y-101001890D01*
X93145429Y-101243795D01*
X93242191Y-101364748D01*
X93338953Y-101425224D01*
X93532476Y-101425224D01*
X93629238Y-101364748D01*
X93726000Y-101243795D01*
X93774381Y-101001890D01*
X93774381Y-100578557D01*
X93726000Y-100336652D01*
X93629238Y-100215700D01*
X93532476Y-100155224D01*
X92661619Y-101425224D02*
X92661619Y-100155224D01*
X92081048Y-101425224D01*
X92081048Y-100155224D01*
X91597238Y-101304271D02*
X91548857Y-101364748D01*
X91597238Y-101425224D01*
X91645619Y-101364748D01*
X91597238Y-101304271D01*
X91597238Y-101425224D01*
X91597238Y-100639033D02*
X91548857Y-100699510D01*
X91597238Y-100759986D01*
X91645619Y-100699510D01*
X91597238Y-100639033D01*
X91597238Y-100759986D01*
X90339333Y-100759986D02*
X90000667Y-100759986D01*
X89855524Y-101425224D02*
X90339333Y-101425224D01*
X90339333Y-100155224D01*
X89855524Y-100155224D01*
X89420095Y-100578557D02*
X89420095Y-101425224D01*
X89420095Y-100699510D02*
X89371714Y-100639033D01*
X89274952Y-100578557D01*
X89129810Y-100578557D01*
X89033048Y-100639033D01*
X88984667Y-100759986D01*
X88984667Y-101425224D01*
X88065429Y-101425224D02*
X88065429Y-100759986D01*
X88113810Y-100639033D01*
X88210572Y-100578557D01*
X88404095Y-100578557D01*
X88500857Y-100639033D01*
X88065429Y-101364748D02*
X88162191Y-101425224D01*
X88404095Y-101425224D01*
X88500857Y-101364748D01*
X88549238Y-101243795D01*
X88549238Y-101122843D01*
X88500857Y-101001890D01*
X88404095Y-100941414D01*
X88162191Y-100941414D01*
X88065429Y-100880938D01*
X87581619Y-101425224D02*
X87581619Y-100155224D01*
X87581619Y-100639033D02*
X87484857Y-100578557D01*
X87291334Y-100578557D01*
X87194572Y-100639033D01*
X87146191Y-100699510D01*
X87097810Y-100820462D01*
X87097810Y-101183319D01*
X87146191Y-101304271D01*
X87194572Y-101364748D01*
X87291334Y-101425224D01*
X87484857Y-101425224D01*
X87581619Y-101364748D01*
X86517238Y-101425224D02*
X86614000Y-101364748D01*
X86662381Y-101243795D01*
X86662381Y-100155224D01*
X85743144Y-101364748D02*
X85839906Y-101425224D01*
X86033429Y-101425224D01*
X86130191Y-101364748D01*
X86178572Y-101243795D01*
X86178572Y-100759986D01*
X86130191Y-100639033D01*
X86033429Y-100578557D01*
X85839906Y-100578557D01*
X85743144Y-100639033D01*
X85694763Y-100759986D01*
X85694763Y-100880938D01*
X86178572Y-101001890D01*
X84291715Y-100155224D02*
X84194954Y-100155224D01*
X84098192Y-100215700D01*
X84049811Y-100276176D01*
X84001430Y-100397129D01*
X83953049Y-100639033D01*
X83953049Y-100941414D01*
X84001430Y-101183319D01*
X84049811Y-101304271D01*
X84098192Y-101364748D01*
X84194954Y-101425224D01*
X84291715Y-101425224D01*
X84388477Y-101364748D01*
X84436858Y-101304271D01*
X84485239Y-101183319D01*
X84533620Y-100941414D01*
X84533620Y-100639033D01*
X84485239Y-100397129D01*
X84436858Y-100276176D01*
X84388477Y-100215700D01*
X84291715Y-100155224D01*
X83614382Y-101425224D02*
X83082192Y-100578557D01*
X83614382Y-100578557D02*
X83082192Y-101425224D01*
X82114573Y-101304271D02*
X82162954Y-101364748D01*
X82308097Y-101425224D01*
X82404859Y-101425224D01*
X82550001Y-101364748D01*
X82646763Y-101243795D01*
X82695144Y-101122843D01*
X82743525Y-100880938D01*
X82743525Y-100699510D01*
X82695144Y-100457605D01*
X82646763Y-100336652D01*
X82550001Y-100215700D01*
X82404859Y-100155224D01*
X82308097Y-100155224D01*
X82162954Y-100215700D01*
X82114573Y-100276176D01*
X81485620Y-100155224D02*
X81388859Y-100155224D01*
X81292097Y-100215700D01*
X81243716Y-100276176D01*
X81195335Y-100397129D01*
X81146954Y-100639033D01*
X81146954Y-100941414D01*
X81195335Y-101183319D01*
X81243716Y-101304271D01*
X81292097Y-101364748D01*
X81388859Y-101425224D01*
X81485620Y-101425224D01*
X81582382Y-101364748D01*
X81630763Y-101304271D01*
X81679144Y-101183319D01*
X81727525Y-100941414D01*
X81727525Y-100639033D01*
X81679144Y-100397129D01*
X81630763Y-100276176D01*
X81582382Y-100215700D01*
X81485620Y-100155224D01*
X80518001Y-100155224D02*
X80421240Y-100155224D01*
X80324478Y-100215700D01*
X80276097Y-100276176D01*
X80227716Y-100397129D01*
X80179335Y-100639033D01*
X80179335Y-100941414D01*
X80227716Y-101183319D01*
X80276097Y-101304271D01*
X80324478Y-101364748D01*
X80421240Y-101425224D01*
X80518001Y-101425224D01*
X80614763Y-101364748D01*
X80663144Y-101304271D01*
X80711525Y-101183319D01*
X80759906Y-100941414D01*
X80759906Y-100639033D01*
X80711525Y-100397129D01*
X80663144Y-100276176D01*
X80614763Y-100215700D01*
X80518001Y-100155224D01*
X79550382Y-100155224D02*
X79453621Y-100155224D01*
X79356859Y-100215700D01*
X79308478Y-100276176D01*
X79260097Y-100397129D01*
X79211716Y-100639033D01*
X79211716Y-100941414D01*
X79260097Y-101183319D01*
X79308478Y-101304271D01*
X79356859Y-101364748D01*
X79453621Y-101425224D01*
X79550382Y-101425224D01*
X79647144Y-101364748D01*
X79695525Y-101304271D01*
X79743906Y-101183319D01*
X79792287Y-100941414D01*
X79792287Y-100639033D01*
X79743906Y-100397129D01*
X79695525Y-100276176D01*
X79647144Y-100215700D01*
X79550382Y-100155224D01*
X78582763Y-100155224D02*
X78486002Y-100155224D01*
X78389240Y-100215700D01*
X78340859Y-100276176D01*
X78292478Y-100397129D01*
X78244097Y-100639033D01*
X78244097Y-100941414D01*
X78292478Y-101183319D01*
X78340859Y-101304271D01*
X78389240Y-101364748D01*
X78486002Y-101425224D01*
X78582763Y-101425224D01*
X78679525Y-101364748D01*
X78727906Y-101304271D01*
X78776287Y-101183319D01*
X78824668Y-100941414D01*
X78824668Y-100639033D01*
X78776287Y-100397129D01*
X78727906Y-100276176D01*
X78679525Y-100215700D01*
X78582763Y-100155224D01*
X77808668Y-100941414D02*
X77034573Y-100941414D01*
X76357239Y-100155224D02*
X76260478Y-100155224D01*
X76163716Y-100215700D01*
X76115335Y-100276176D01*
X76066954Y-100397129D01*
X76018573Y-100639033D01*
X76018573Y-100941414D01*
X76066954Y-101183319D01*
X76115335Y-101304271D01*
X76163716Y-101364748D01*
X76260478Y-101425224D01*
X76357239Y-101425224D01*
X76454001Y-101364748D01*
X76502382Y-101304271D01*
X76550763Y-101183319D01*
X76599144Y-100941414D01*
X76599144Y-100639033D01*
X76550763Y-100397129D01*
X76502382Y-100276176D01*
X76454001Y-100215700D01*
X76357239Y-100155224D01*
X75679906Y-101425224D02*
X75147716Y-100578557D01*
X75679906Y-100578557D02*
X75147716Y-101425224D01*
X74180097Y-101304271D02*
X74228478Y-101364748D01*
X74373621Y-101425224D01*
X74470383Y-101425224D01*
X74615525Y-101364748D01*
X74712287Y-101243795D01*
X74760668Y-101122843D01*
X74809049Y-100880938D01*
X74809049Y-100699510D01*
X74760668Y-100457605D01*
X74712287Y-100336652D01*
X74615525Y-100215700D01*
X74470383Y-100155224D01*
X74373621Y-100155224D01*
X74228478Y-100215700D01*
X74180097Y-100276176D01*
X73841430Y-100155224D02*
X73164097Y-100155224D01*
X73599525Y-101425224D01*
X72438383Y-100759986D02*
X72777049Y-100759986D01*
X72777049Y-101425224D02*
X72777049Y-100155224D01*
X72293240Y-100155224D01*
X71567526Y-100759986D02*
X71906192Y-100759986D01*
X71906192Y-101425224D02*
X71906192Y-100155224D01*
X71422383Y-100155224D01*
X70696669Y-100759986D02*
X71035335Y-100759986D01*
X71035335Y-101425224D02*
X71035335Y-100155224D01*
X70551526Y-100155224D01*
X101128286Y-103345948D02*
X100983143Y-103406424D01*
X100741239Y-103406424D01*
X100644477Y-103345948D01*
X100596096Y-103285471D01*
X100547715Y-103164519D01*
X100547715Y-103043567D01*
X100596096Y-102922614D01*
X100644477Y-102862138D01*
X100741239Y-102801662D01*
X100934762Y-102741186D01*
X101031524Y-102680710D01*
X101079905Y-102620233D01*
X101128286Y-102499281D01*
X101128286Y-102378329D01*
X101079905Y-102257376D01*
X101031524Y-102196900D01*
X100934762Y-102136424D01*
X100692858Y-102136424D01*
X100547715Y-102196900D01*
X100209048Y-102136424D02*
X99967143Y-103406424D01*
X99773620Y-102499281D01*
X99580096Y-103406424D01*
X99338191Y-102136424D01*
X99047905Y-102136424D02*
X98418953Y-102136424D01*
X98757619Y-102620233D01*
X98612477Y-102620233D01*
X98515715Y-102680710D01*
X98467334Y-102741186D01*
X98418953Y-102862138D01*
X98418953Y-103164519D01*
X98467334Y-103285471D01*
X98515715Y-103345948D01*
X98612477Y-103406424D01*
X98902762Y-103406424D01*
X98999524Y-103345948D01*
X99047905Y-103285471D01*
X97983524Y-103285471D02*
X97935143Y-103345948D01*
X97983524Y-103406424D01*
X98031905Y-103345948D01*
X97983524Y-103285471D01*
X97983524Y-103406424D01*
X97548095Y-102257376D02*
X97499714Y-102196900D01*
X97402952Y-102136424D01*
X97161048Y-102136424D01*
X97064286Y-102196900D01*
X97015905Y-102257376D01*
X96967524Y-102378329D01*
X96967524Y-102499281D01*
X97015905Y-102680710D01*
X97596476Y-103406424D01*
X96967524Y-103406424D01*
X95758000Y-102741186D02*
X94983905Y-102741186D01*
X94983905Y-103104043D02*
X95758000Y-103104043D01*
X93532476Y-102136424D02*
X93338953Y-102136424D01*
X93242191Y-102196900D01*
X93145429Y-102317852D01*
X93097048Y-102559757D01*
X93097048Y-102983090D01*
X93145429Y-103224995D01*
X93242191Y-103345948D01*
X93338953Y-103406424D01*
X93532476Y-103406424D01*
X93629238Y-103345948D01*
X93726000Y-103224995D01*
X93774381Y-102983090D01*
X93774381Y-102559757D01*
X93726000Y-102317852D01*
X93629238Y-102196900D01*
X93532476Y-102136424D01*
X92661619Y-103406424D02*
X92661619Y-102136424D01*
X92081048Y-103406424D01*
X92081048Y-102136424D01*
X91597238Y-103285471D02*
X91548857Y-103345948D01*
X91597238Y-103406424D01*
X91645619Y-103345948D01*
X91597238Y-103285471D01*
X91597238Y-103406424D01*
X91597238Y-102620233D02*
X91548857Y-102680710D01*
X91597238Y-102741186D01*
X91645619Y-102680710D01*
X91597238Y-102620233D01*
X91597238Y-102741186D01*
X90339333Y-102741186D02*
X90000667Y-102741186D01*
X89855524Y-103406424D02*
X90339333Y-103406424D01*
X90339333Y-102136424D01*
X89855524Y-102136424D01*
X89420095Y-102559757D02*
X89420095Y-103406424D01*
X89420095Y-102680710D02*
X89371714Y-102620233D01*
X89274952Y-102559757D01*
X89129810Y-102559757D01*
X89033048Y-102620233D01*
X88984667Y-102741186D01*
X88984667Y-103406424D01*
X88065429Y-103406424D02*
X88065429Y-102741186D01*
X88113810Y-102620233D01*
X88210572Y-102559757D01*
X88404095Y-102559757D01*
X88500857Y-102620233D01*
X88065429Y-103345948D02*
X88162191Y-103406424D01*
X88404095Y-103406424D01*
X88500857Y-103345948D01*
X88549238Y-103224995D01*
X88549238Y-103104043D01*
X88500857Y-102983090D01*
X88404095Y-102922614D01*
X88162191Y-102922614D01*
X88065429Y-102862138D01*
X87581619Y-103406424D02*
X87581619Y-102136424D01*
X87581619Y-102620233D02*
X87484857Y-102559757D01*
X87291334Y-102559757D01*
X87194572Y-102620233D01*
X87146191Y-102680710D01*
X87097810Y-102801662D01*
X87097810Y-103164519D01*
X87146191Y-103285471D01*
X87194572Y-103345948D01*
X87291334Y-103406424D01*
X87484857Y-103406424D01*
X87581619Y-103345948D01*
X86517238Y-103406424D02*
X86614000Y-103345948D01*
X86662381Y-103224995D01*
X86662381Y-102136424D01*
X85743144Y-103345948D02*
X85839906Y-103406424D01*
X86033429Y-103406424D01*
X86130191Y-103345948D01*
X86178572Y-103224995D01*
X86178572Y-102741186D01*
X86130191Y-102620233D01*
X86033429Y-102559757D01*
X85839906Y-102559757D01*
X85743144Y-102620233D01*
X85694763Y-102741186D01*
X85694763Y-102862138D01*
X86178572Y-102983090D01*
X84291715Y-102136424D02*
X84194954Y-102136424D01*
X84098192Y-102196900D01*
X84049811Y-102257376D01*
X84001430Y-102378329D01*
X83953049Y-102620233D01*
X83953049Y-102922614D01*
X84001430Y-103164519D01*
X84049811Y-103285471D01*
X84098192Y-103345948D01*
X84194954Y-103406424D01*
X84291715Y-103406424D01*
X84388477Y-103345948D01*
X84436858Y-103285471D01*
X84485239Y-103164519D01*
X84533620Y-102922614D01*
X84533620Y-102620233D01*
X84485239Y-102378329D01*
X84436858Y-102257376D01*
X84388477Y-102196900D01*
X84291715Y-102136424D01*
X83614382Y-103406424D02*
X83082192Y-102559757D01*
X83614382Y-102559757D02*
X83082192Y-103406424D01*
X82114573Y-103285471D02*
X82162954Y-103345948D01*
X82308097Y-103406424D01*
X82404859Y-103406424D01*
X82550001Y-103345948D01*
X82646763Y-103224995D01*
X82695144Y-103104043D01*
X82743525Y-102862138D01*
X82743525Y-102680710D01*
X82695144Y-102438805D01*
X82646763Y-102317852D01*
X82550001Y-102196900D01*
X82404859Y-102136424D01*
X82308097Y-102136424D01*
X82162954Y-102196900D01*
X82114573Y-102257376D01*
X81534001Y-102680710D02*
X81630763Y-102620233D01*
X81679144Y-102559757D01*
X81727525Y-102438805D01*
X81727525Y-102378329D01*
X81679144Y-102257376D01*
X81630763Y-102196900D01*
X81534001Y-102136424D01*
X81340478Y-102136424D01*
X81243716Y-102196900D01*
X81195335Y-102257376D01*
X81146954Y-102378329D01*
X81146954Y-102438805D01*
X81195335Y-102559757D01*
X81243716Y-102620233D01*
X81340478Y-102680710D01*
X81534001Y-102680710D01*
X81630763Y-102741186D01*
X81679144Y-102801662D01*
X81727525Y-102922614D01*
X81727525Y-103164519D01*
X81679144Y-103285471D01*
X81630763Y-103345948D01*
X81534001Y-103406424D01*
X81340478Y-103406424D01*
X81243716Y-103345948D01*
X81195335Y-103285471D01*
X81146954Y-103164519D01*
X81146954Y-102922614D01*
X81195335Y-102801662D01*
X81243716Y-102741186D01*
X81340478Y-102680710D01*
X80518001Y-102136424D02*
X80421240Y-102136424D01*
X80324478Y-102196900D01*
X80276097Y-102257376D01*
X80227716Y-102378329D01*
X80179335Y-102620233D01*
X80179335Y-102922614D01*
X80227716Y-103164519D01*
X80276097Y-103285471D01*
X80324478Y-103345948D01*
X80421240Y-103406424D01*
X80518001Y-103406424D01*
X80614763Y-103345948D01*
X80663144Y-103285471D01*
X80711525Y-103164519D01*
X80759906Y-102922614D01*
X80759906Y-102620233D01*
X80711525Y-102378329D01*
X80663144Y-102257376D01*
X80614763Y-102196900D01*
X80518001Y-102136424D01*
X79550382Y-102136424D02*
X79453621Y-102136424D01*
X79356859Y-102196900D01*
X79308478Y-102257376D01*
X79260097Y-102378329D01*
X79211716Y-102620233D01*
X79211716Y-102922614D01*
X79260097Y-103164519D01*
X79308478Y-103285471D01*
X79356859Y-103345948D01*
X79453621Y-103406424D01*
X79550382Y-103406424D01*
X79647144Y-103345948D01*
X79695525Y-103285471D01*
X79743906Y-103164519D01*
X79792287Y-102922614D01*
X79792287Y-102620233D01*
X79743906Y-102378329D01*
X79695525Y-102257376D01*
X79647144Y-102196900D01*
X79550382Y-102136424D01*
X78582763Y-102136424D02*
X78486002Y-102136424D01*
X78389240Y-102196900D01*
X78340859Y-102257376D01*
X78292478Y-102378329D01*
X78244097Y-102620233D01*
X78244097Y-102922614D01*
X78292478Y-103164519D01*
X78340859Y-103285471D01*
X78389240Y-103345948D01*
X78486002Y-103406424D01*
X78582763Y-103406424D01*
X78679525Y-103345948D01*
X78727906Y-103285471D01*
X78776287Y-103164519D01*
X78824668Y-102922614D01*
X78824668Y-102620233D01*
X78776287Y-102378329D01*
X78727906Y-102257376D01*
X78679525Y-102196900D01*
X78582763Y-102136424D01*
X77808668Y-102922614D02*
X77034573Y-102922614D01*
X76357239Y-102136424D02*
X76260478Y-102136424D01*
X76163716Y-102196900D01*
X76115335Y-102257376D01*
X76066954Y-102378329D01*
X76018573Y-102620233D01*
X76018573Y-102922614D01*
X76066954Y-103164519D01*
X76115335Y-103285471D01*
X76163716Y-103345948D01*
X76260478Y-103406424D01*
X76357239Y-103406424D01*
X76454001Y-103345948D01*
X76502382Y-103285471D01*
X76550763Y-103164519D01*
X76599144Y-102922614D01*
X76599144Y-102620233D01*
X76550763Y-102378329D01*
X76502382Y-102257376D01*
X76454001Y-102196900D01*
X76357239Y-102136424D01*
X75679906Y-103406424D02*
X75147716Y-102559757D01*
X75679906Y-102559757D02*
X75147716Y-103406424D01*
X74180097Y-103285471D02*
X74228478Y-103345948D01*
X74373621Y-103406424D01*
X74470383Y-103406424D01*
X74615525Y-103345948D01*
X74712287Y-103224995D01*
X74760668Y-103104043D01*
X74809049Y-102862138D01*
X74809049Y-102680710D01*
X74760668Y-102438805D01*
X74712287Y-102317852D01*
X74615525Y-102196900D01*
X74470383Y-102136424D01*
X74373621Y-102136424D01*
X74228478Y-102196900D01*
X74180097Y-102257376D01*
X73406002Y-102741186D02*
X73744668Y-102741186D01*
X73744668Y-103406424D02*
X73744668Y-102136424D01*
X73260859Y-102136424D01*
X72535145Y-102741186D02*
X72873811Y-102741186D01*
X72873811Y-103406424D02*
X72873811Y-102136424D01*
X72390002Y-102136424D01*
X71664288Y-102741186D02*
X72002954Y-102741186D01*
X72002954Y-103406424D02*
X72002954Y-102136424D01*
X71519145Y-102136424D01*
X70793431Y-102741186D02*
X71132097Y-102741186D01*
X71132097Y-103406424D02*
X71132097Y-102136424D01*
X70648288Y-102136424D01*
X101128286Y-105327148D02*
X100983143Y-105387624D01*
X100741239Y-105387624D01*
X100644477Y-105327148D01*
X100596096Y-105266671D01*
X100547715Y-105145719D01*
X100547715Y-105024767D01*
X100596096Y-104903814D01*
X100644477Y-104843338D01*
X100741239Y-104782862D01*
X100934762Y-104722386D01*
X101031524Y-104661910D01*
X101079905Y-104601433D01*
X101128286Y-104480481D01*
X101128286Y-104359529D01*
X101079905Y-104238576D01*
X101031524Y-104178100D01*
X100934762Y-104117624D01*
X100692858Y-104117624D01*
X100547715Y-104178100D01*
X100209048Y-104117624D02*
X99967143Y-105387624D01*
X99773620Y-104480481D01*
X99580096Y-105387624D01*
X99338191Y-104117624D01*
X99047905Y-104117624D02*
X98418953Y-104117624D01*
X98757619Y-104601433D01*
X98612477Y-104601433D01*
X98515715Y-104661910D01*
X98467334Y-104722386D01*
X98418953Y-104843338D01*
X98418953Y-105145719D01*
X98467334Y-105266671D01*
X98515715Y-105327148D01*
X98612477Y-105387624D01*
X98902762Y-105387624D01*
X98999524Y-105327148D01*
X99047905Y-105266671D01*
X97983524Y-105266671D02*
X97935143Y-105327148D01*
X97983524Y-105387624D01*
X98031905Y-105327148D01*
X97983524Y-105266671D01*
X97983524Y-105387624D01*
X97596476Y-104117624D02*
X96967524Y-104117624D01*
X97306190Y-104601433D01*
X97161048Y-104601433D01*
X97064286Y-104661910D01*
X97015905Y-104722386D01*
X96967524Y-104843338D01*
X96967524Y-105145719D01*
X97015905Y-105266671D01*
X97064286Y-105327148D01*
X97161048Y-105387624D01*
X97451333Y-105387624D01*
X97548095Y-105327148D01*
X97596476Y-105266671D01*
X95758000Y-104722386D02*
X94983905Y-104722386D01*
X94983905Y-105085243D02*
X95758000Y-105085243D01*
X93532476Y-104117624D02*
X93338953Y-104117624D01*
X93242191Y-104178100D01*
X93145429Y-104299052D01*
X93097048Y-104540957D01*
X93097048Y-104964290D01*
X93145429Y-105206195D01*
X93242191Y-105327148D01*
X93338953Y-105387624D01*
X93532476Y-105387624D01*
X93629238Y-105327148D01*
X93726000Y-105206195D01*
X93774381Y-104964290D01*
X93774381Y-104540957D01*
X93726000Y-104299052D01*
X93629238Y-104178100D01*
X93532476Y-104117624D01*
X92661619Y-105387624D02*
X92661619Y-104117624D01*
X92081048Y-105387624D01*
X92081048Y-104117624D01*
X91597238Y-105266671D02*
X91548857Y-105327148D01*
X91597238Y-105387624D01*
X91645619Y-105327148D01*
X91597238Y-105266671D01*
X91597238Y-105387624D01*
X91597238Y-104601433D02*
X91548857Y-104661910D01*
X91597238Y-104722386D01*
X91645619Y-104661910D01*
X91597238Y-104601433D01*
X91597238Y-104722386D01*
X90339333Y-104722386D02*
X90000667Y-104722386D01*
X89855524Y-105387624D02*
X90339333Y-105387624D01*
X90339333Y-104117624D01*
X89855524Y-104117624D01*
X89420095Y-104540957D02*
X89420095Y-105387624D01*
X89420095Y-104661910D02*
X89371714Y-104601433D01*
X89274952Y-104540957D01*
X89129810Y-104540957D01*
X89033048Y-104601433D01*
X88984667Y-104722386D01*
X88984667Y-105387624D01*
X88065429Y-105387624D02*
X88065429Y-104722386D01*
X88113810Y-104601433D01*
X88210572Y-104540957D01*
X88404095Y-104540957D01*
X88500857Y-104601433D01*
X88065429Y-105327148D02*
X88162191Y-105387624D01*
X88404095Y-105387624D01*
X88500857Y-105327148D01*
X88549238Y-105206195D01*
X88549238Y-105085243D01*
X88500857Y-104964290D01*
X88404095Y-104903814D01*
X88162191Y-104903814D01*
X88065429Y-104843338D01*
X87581619Y-105387624D02*
X87581619Y-104117624D01*
X87581619Y-104601433D02*
X87484857Y-104540957D01*
X87291334Y-104540957D01*
X87194572Y-104601433D01*
X87146191Y-104661910D01*
X87097810Y-104782862D01*
X87097810Y-105145719D01*
X87146191Y-105266671D01*
X87194572Y-105327148D01*
X87291334Y-105387624D01*
X87484857Y-105387624D01*
X87581619Y-105327148D01*
X86517238Y-105387624D02*
X86614000Y-105327148D01*
X86662381Y-105206195D01*
X86662381Y-104117624D01*
X85743144Y-105327148D02*
X85839906Y-105387624D01*
X86033429Y-105387624D01*
X86130191Y-105327148D01*
X86178572Y-105206195D01*
X86178572Y-104722386D01*
X86130191Y-104601433D01*
X86033429Y-104540957D01*
X85839906Y-104540957D01*
X85743144Y-104601433D01*
X85694763Y-104722386D01*
X85694763Y-104843338D01*
X86178572Y-104964290D01*
X84291715Y-104117624D02*
X84194954Y-104117624D01*
X84098192Y-104178100D01*
X84049811Y-104238576D01*
X84001430Y-104359529D01*
X83953049Y-104601433D01*
X83953049Y-104903814D01*
X84001430Y-105145719D01*
X84049811Y-105266671D01*
X84098192Y-105327148D01*
X84194954Y-105387624D01*
X84291715Y-105387624D01*
X84388477Y-105327148D01*
X84436858Y-105266671D01*
X84485239Y-105145719D01*
X84533620Y-104903814D01*
X84533620Y-104601433D01*
X84485239Y-104359529D01*
X84436858Y-104238576D01*
X84388477Y-104178100D01*
X84291715Y-104117624D01*
X83614382Y-105387624D02*
X83082192Y-104540957D01*
X83614382Y-104540957D02*
X83082192Y-105387624D01*
X82695144Y-105387624D02*
X82695144Y-104117624D01*
X82453239Y-104117624D01*
X82308097Y-104178100D01*
X82211335Y-104299052D01*
X82162954Y-104420005D01*
X82114573Y-104661910D01*
X82114573Y-104843338D01*
X82162954Y-105085243D01*
X82211335Y-105206195D01*
X82308097Y-105327148D01*
X82453239Y-105387624D01*
X82695144Y-105387624D01*
X81485620Y-104117624D02*
X81388859Y-104117624D01*
X81292097Y-104178100D01*
X81243716Y-104238576D01*
X81195335Y-104359529D01*
X81146954Y-104601433D01*
X81146954Y-104903814D01*
X81195335Y-105145719D01*
X81243716Y-105266671D01*
X81292097Y-105327148D01*
X81388859Y-105387624D01*
X81485620Y-105387624D01*
X81582382Y-105327148D01*
X81630763Y-105266671D01*
X81679144Y-105145719D01*
X81727525Y-104903814D01*
X81727525Y-104601433D01*
X81679144Y-104359529D01*
X81630763Y-104238576D01*
X81582382Y-104178100D01*
X81485620Y-104117624D01*
X80518001Y-104117624D02*
X80421240Y-104117624D01*
X80324478Y-104178100D01*
X80276097Y-104238576D01*
X80227716Y-104359529D01*
X80179335Y-104601433D01*
X80179335Y-104903814D01*
X80227716Y-105145719D01*
X80276097Y-105266671D01*
X80324478Y-105327148D01*
X80421240Y-105387624D01*
X80518001Y-105387624D01*
X80614763Y-105327148D01*
X80663144Y-105266671D01*
X80711525Y-105145719D01*
X80759906Y-104903814D01*
X80759906Y-104601433D01*
X80711525Y-104359529D01*
X80663144Y-104238576D01*
X80614763Y-104178100D01*
X80518001Y-104117624D01*
X79550382Y-104117624D02*
X79453621Y-104117624D01*
X79356859Y-104178100D01*
X79308478Y-104238576D01*
X79260097Y-104359529D01*
X79211716Y-104601433D01*
X79211716Y-104903814D01*
X79260097Y-105145719D01*
X79308478Y-105266671D01*
X79356859Y-105327148D01*
X79453621Y-105387624D01*
X79550382Y-105387624D01*
X79647144Y-105327148D01*
X79695525Y-105266671D01*
X79743906Y-105145719D01*
X79792287Y-104903814D01*
X79792287Y-104601433D01*
X79743906Y-104359529D01*
X79695525Y-104238576D01*
X79647144Y-104178100D01*
X79550382Y-104117624D01*
X78582763Y-104117624D02*
X78486002Y-104117624D01*
X78389240Y-104178100D01*
X78340859Y-104238576D01*
X78292478Y-104359529D01*
X78244097Y-104601433D01*
X78244097Y-104903814D01*
X78292478Y-105145719D01*
X78340859Y-105266671D01*
X78389240Y-105327148D01*
X78486002Y-105387624D01*
X78582763Y-105387624D01*
X78679525Y-105327148D01*
X78727906Y-105266671D01*
X78776287Y-105145719D01*
X78824668Y-104903814D01*
X78824668Y-104601433D01*
X78776287Y-104359529D01*
X78727906Y-104238576D01*
X78679525Y-104178100D01*
X78582763Y-104117624D01*
X77808668Y-104903814D02*
X77034573Y-104903814D01*
X76357239Y-104117624D02*
X76260478Y-104117624D01*
X76163716Y-104178100D01*
X76115335Y-104238576D01*
X76066954Y-104359529D01*
X76018573Y-104601433D01*
X76018573Y-104903814D01*
X76066954Y-105145719D01*
X76115335Y-105266671D01*
X76163716Y-105327148D01*
X76260478Y-105387624D01*
X76357239Y-105387624D01*
X76454001Y-105327148D01*
X76502382Y-105266671D01*
X76550763Y-105145719D01*
X76599144Y-104903814D01*
X76599144Y-104601433D01*
X76550763Y-104359529D01*
X76502382Y-104238576D01*
X76454001Y-104178100D01*
X76357239Y-104117624D01*
X75679906Y-105387624D02*
X75147716Y-104540957D01*
X75679906Y-104540957D02*
X75147716Y-105387624D01*
X74760668Y-105387624D02*
X74760668Y-104117624D01*
X74518763Y-104117624D01*
X74373621Y-104178100D01*
X74276859Y-104299052D01*
X74228478Y-104420005D01*
X74180097Y-104661910D01*
X74180097Y-104843338D01*
X74228478Y-105085243D01*
X74276859Y-105206195D01*
X74373621Y-105327148D01*
X74518763Y-105387624D01*
X74760668Y-105387624D01*
X73841430Y-104117624D02*
X73164097Y-104117624D01*
X73599525Y-105387624D01*
X72438383Y-104722386D02*
X72777049Y-104722386D01*
X72777049Y-105387624D02*
X72777049Y-104117624D01*
X72293240Y-104117624D01*
X71567526Y-104722386D02*
X71906192Y-104722386D01*
X71906192Y-105387624D02*
X71906192Y-104117624D01*
X71422383Y-104117624D01*
X70696669Y-104722386D02*
X71035335Y-104722386D01*
X71035335Y-105387624D02*
X71035335Y-104117624D01*
X70551526Y-104117624D01*
X101128286Y-107308348D02*
X100983143Y-107368824D01*
X100741239Y-107368824D01*
X100644477Y-107308348D01*
X100596096Y-107247871D01*
X100547715Y-107126919D01*
X100547715Y-107005967D01*
X100596096Y-106885014D01*
X100644477Y-106824538D01*
X100741239Y-106764062D01*
X100934762Y-106703586D01*
X101031524Y-106643110D01*
X101079905Y-106582633D01*
X101128286Y-106461681D01*
X101128286Y-106340729D01*
X101079905Y-106219776D01*
X101031524Y-106159300D01*
X100934762Y-106098824D01*
X100692858Y-106098824D01*
X100547715Y-106159300D01*
X100209048Y-106098824D02*
X99967143Y-107368824D01*
X99773620Y-106461681D01*
X99580096Y-107368824D01*
X99338191Y-106098824D01*
X99047905Y-106098824D02*
X98418953Y-106098824D01*
X98757619Y-106582633D01*
X98612477Y-106582633D01*
X98515715Y-106643110D01*
X98467334Y-106703586D01*
X98418953Y-106824538D01*
X98418953Y-107126919D01*
X98467334Y-107247871D01*
X98515715Y-107308348D01*
X98612477Y-107368824D01*
X98902762Y-107368824D01*
X98999524Y-107308348D01*
X99047905Y-107247871D01*
X97983524Y-107247871D02*
X97935143Y-107308348D01*
X97983524Y-107368824D01*
X98031905Y-107308348D01*
X97983524Y-107247871D01*
X97983524Y-107368824D01*
X97064286Y-106522157D02*
X97064286Y-107368824D01*
X97306190Y-106038348D02*
X97548095Y-106945490D01*
X96919143Y-106945490D01*
X95758000Y-106703586D02*
X94983905Y-106703586D01*
X94983905Y-107066443D02*
X95758000Y-107066443D01*
X93532476Y-106098824D02*
X93338953Y-106098824D01*
X93242191Y-106159300D01*
X93145429Y-106280252D01*
X93097048Y-106522157D01*
X93097048Y-106945490D01*
X93145429Y-107187395D01*
X93242191Y-107308348D01*
X93338953Y-107368824D01*
X93532476Y-107368824D01*
X93629238Y-107308348D01*
X93726000Y-107187395D01*
X93774381Y-106945490D01*
X93774381Y-106522157D01*
X93726000Y-106280252D01*
X93629238Y-106159300D01*
X93532476Y-106098824D01*
X92661619Y-107368824D02*
X92661619Y-106098824D01*
X92081048Y-107368824D01*
X92081048Y-106098824D01*
X91597238Y-107247871D02*
X91548857Y-107308348D01*
X91597238Y-107368824D01*
X91645619Y-107308348D01*
X91597238Y-107247871D01*
X91597238Y-107368824D01*
X91597238Y-106582633D02*
X91548857Y-106643110D01*
X91597238Y-106703586D01*
X91645619Y-106643110D01*
X91597238Y-106582633D01*
X91597238Y-106703586D01*
X90339333Y-106703586D02*
X90000667Y-106703586D01*
X89855524Y-107368824D02*
X90339333Y-107368824D01*
X90339333Y-106098824D01*
X89855524Y-106098824D01*
X89420095Y-106522157D02*
X89420095Y-107368824D01*
X89420095Y-106643110D02*
X89371714Y-106582633D01*
X89274952Y-106522157D01*
X89129810Y-106522157D01*
X89033048Y-106582633D01*
X88984667Y-106703586D01*
X88984667Y-107368824D01*
X88065429Y-107368824D02*
X88065429Y-106703586D01*
X88113810Y-106582633D01*
X88210572Y-106522157D01*
X88404095Y-106522157D01*
X88500857Y-106582633D01*
X88065429Y-107308348D02*
X88162191Y-107368824D01*
X88404095Y-107368824D01*
X88500857Y-107308348D01*
X88549238Y-107187395D01*
X88549238Y-107066443D01*
X88500857Y-106945490D01*
X88404095Y-106885014D01*
X88162191Y-106885014D01*
X88065429Y-106824538D01*
X87581619Y-107368824D02*
X87581619Y-106098824D01*
X87581619Y-106582633D02*
X87484857Y-106522157D01*
X87291334Y-106522157D01*
X87194572Y-106582633D01*
X87146191Y-106643110D01*
X87097810Y-106764062D01*
X87097810Y-107126919D01*
X87146191Y-107247871D01*
X87194572Y-107308348D01*
X87291334Y-107368824D01*
X87484857Y-107368824D01*
X87581619Y-107308348D01*
X86517238Y-107368824D02*
X86614000Y-107308348D01*
X86662381Y-107187395D01*
X86662381Y-106098824D01*
X85743144Y-107308348D02*
X85839906Y-107368824D01*
X86033429Y-107368824D01*
X86130191Y-107308348D01*
X86178572Y-107187395D01*
X86178572Y-106703586D01*
X86130191Y-106582633D01*
X86033429Y-106522157D01*
X85839906Y-106522157D01*
X85743144Y-106582633D01*
X85694763Y-106703586D01*
X85694763Y-106824538D01*
X86178572Y-106945490D01*
X84291715Y-106098824D02*
X84194954Y-106098824D01*
X84098192Y-106159300D01*
X84049811Y-106219776D01*
X84001430Y-106340729D01*
X83953049Y-106582633D01*
X83953049Y-106885014D01*
X84001430Y-107126919D01*
X84049811Y-107247871D01*
X84098192Y-107308348D01*
X84194954Y-107368824D01*
X84291715Y-107368824D01*
X84388477Y-107308348D01*
X84436858Y-107247871D01*
X84485239Y-107126919D01*
X84533620Y-106885014D01*
X84533620Y-106582633D01*
X84485239Y-106340729D01*
X84436858Y-106219776D01*
X84388477Y-106159300D01*
X84291715Y-106098824D01*
X83614382Y-107368824D02*
X83082192Y-106522157D01*
X83614382Y-106522157D02*
X83082192Y-107368824D01*
X82695144Y-107368824D02*
X82695144Y-106098824D01*
X82453239Y-106098824D01*
X82308097Y-106159300D01*
X82211335Y-106280252D01*
X82162954Y-106401205D01*
X82114573Y-106643110D01*
X82114573Y-106824538D01*
X82162954Y-107066443D01*
X82211335Y-107187395D01*
X82308097Y-107308348D01*
X82453239Y-107368824D01*
X82695144Y-107368824D01*
X81534001Y-106643110D02*
X81630763Y-106582633D01*
X81679144Y-106522157D01*
X81727525Y-106401205D01*
X81727525Y-106340729D01*
X81679144Y-106219776D01*
X81630763Y-106159300D01*
X81534001Y-106098824D01*
X81340478Y-106098824D01*
X81243716Y-106159300D01*
X81195335Y-106219776D01*
X81146954Y-106340729D01*
X81146954Y-106401205D01*
X81195335Y-106522157D01*
X81243716Y-106582633D01*
X81340478Y-106643110D01*
X81534001Y-106643110D01*
X81630763Y-106703586D01*
X81679144Y-106764062D01*
X81727525Y-106885014D01*
X81727525Y-107126919D01*
X81679144Y-107247871D01*
X81630763Y-107308348D01*
X81534001Y-107368824D01*
X81340478Y-107368824D01*
X81243716Y-107308348D01*
X81195335Y-107247871D01*
X81146954Y-107126919D01*
X81146954Y-106885014D01*
X81195335Y-106764062D01*
X81243716Y-106703586D01*
X81340478Y-106643110D01*
X80518001Y-106098824D02*
X80421240Y-106098824D01*
X80324478Y-106159300D01*
X80276097Y-106219776D01*
X80227716Y-106340729D01*
X80179335Y-106582633D01*
X80179335Y-106885014D01*
X80227716Y-107126919D01*
X80276097Y-107247871D01*
X80324478Y-107308348D01*
X80421240Y-107368824D01*
X80518001Y-107368824D01*
X80614763Y-107308348D01*
X80663144Y-107247871D01*
X80711525Y-107126919D01*
X80759906Y-106885014D01*
X80759906Y-106582633D01*
X80711525Y-106340729D01*
X80663144Y-106219776D01*
X80614763Y-106159300D01*
X80518001Y-106098824D01*
X79550382Y-106098824D02*
X79453621Y-106098824D01*
X79356859Y-106159300D01*
X79308478Y-106219776D01*
X79260097Y-106340729D01*
X79211716Y-106582633D01*
X79211716Y-106885014D01*
X79260097Y-107126919D01*
X79308478Y-107247871D01*
X79356859Y-107308348D01*
X79453621Y-107368824D01*
X79550382Y-107368824D01*
X79647144Y-107308348D01*
X79695525Y-107247871D01*
X79743906Y-107126919D01*
X79792287Y-106885014D01*
X79792287Y-106582633D01*
X79743906Y-106340729D01*
X79695525Y-106219776D01*
X79647144Y-106159300D01*
X79550382Y-106098824D01*
X78582763Y-106098824D02*
X78486002Y-106098824D01*
X78389240Y-106159300D01*
X78340859Y-106219776D01*
X78292478Y-106340729D01*
X78244097Y-106582633D01*
X78244097Y-106885014D01*
X78292478Y-107126919D01*
X78340859Y-107247871D01*
X78389240Y-107308348D01*
X78486002Y-107368824D01*
X78582763Y-107368824D01*
X78679525Y-107308348D01*
X78727906Y-107247871D01*
X78776287Y-107126919D01*
X78824668Y-106885014D01*
X78824668Y-106582633D01*
X78776287Y-106340729D01*
X78727906Y-106219776D01*
X78679525Y-106159300D01*
X78582763Y-106098824D01*
X77808668Y-106885014D02*
X77034573Y-106885014D01*
X76357239Y-106098824D02*
X76260478Y-106098824D01*
X76163716Y-106159300D01*
X76115335Y-106219776D01*
X76066954Y-106340729D01*
X76018573Y-106582633D01*
X76018573Y-106885014D01*
X76066954Y-107126919D01*
X76115335Y-107247871D01*
X76163716Y-107308348D01*
X76260478Y-107368824D01*
X76357239Y-107368824D01*
X76454001Y-107308348D01*
X76502382Y-107247871D01*
X76550763Y-107126919D01*
X76599144Y-106885014D01*
X76599144Y-106582633D01*
X76550763Y-106340729D01*
X76502382Y-106219776D01*
X76454001Y-106159300D01*
X76357239Y-106098824D01*
X75679906Y-107368824D02*
X75147716Y-106522157D01*
X75679906Y-106522157D02*
X75147716Y-107368824D01*
X74760668Y-107368824D02*
X74760668Y-106098824D01*
X74518763Y-106098824D01*
X74373621Y-106159300D01*
X74276859Y-106280252D01*
X74228478Y-106401205D01*
X74180097Y-106643110D01*
X74180097Y-106824538D01*
X74228478Y-107066443D01*
X74276859Y-107187395D01*
X74373621Y-107308348D01*
X74518763Y-107368824D01*
X74760668Y-107368824D01*
X73406002Y-106703586D02*
X73744668Y-106703586D01*
X73744668Y-107368824D02*
X73744668Y-106098824D01*
X73260859Y-106098824D01*
X72535145Y-106703586D02*
X72873811Y-106703586D01*
X72873811Y-107368824D02*
X72873811Y-106098824D01*
X72390002Y-106098824D01*
X71664288Y-106703586D02*
X72002954Y-106703586D01*
X72002954Y-107368824D02*
X72002954Y-106098824D01*
X71519145Y-106098824D01*
X70793431Y-106703586D02*
X71132097Y-106703586D01*
X71132097Y-107368824D02*
X71132097Y-106098824D01*
X70648288Y-106098824D01*
X101128286Y-109289548D02*
X100983143Y-109350024D01*
X100741239Y-109350024D01*
X100644477Y-109289548D01*
X100596096Y-109229071D01*
X100547715Y-109108119D01*
X100547715Y-108987167D01*
X100596096Y-108866214D01*
X100644477Y-108805738D01*
X100741239Y-108745262D01*
X100934762Y-108684786D01*
X101031524Y-108624310D01*
X101079905Y-108563833D01*
X101128286Y-108442881D01*
X101128286Y-108321929D01*
X101079905Y-108200976D01*
X101031524Y-108140500D01*
X100934762Y-108080024D01*
X100692858Y-108080024D01*
X100547715Y-108140500D01*
X100209048Y-108080024D02*
X99967143Y-109350024D01*
X99773620Y-108442881D01*
X99580096Y-109350024D01*
X99338191Y-108080024D01*
X99047905Y-108080024D02*
X98418953Y-108080024D01*
X98757619Y-108563833D01*
X98612477Y-108563833D01*
X98515715Y-108624310D01*
X98467334Y-108684786D01*
X98418953Y-108805738D01*
X98418953Y-109108119D01*
X98467334Y-109229071D01*
X98515715Y-109289548D01*
X98612477Y-109350024D01*
X98902762Y-109350024D01*
X98999524Y-109289548D01*
X99047905Y-109229071D01*
X97983524Y-109229071D02*
X97935143Y-109289548D01*
X97983524Y-109350024D01*
X98031905Y-109289548D01*
X97983524Y-109229071D01*
X97983524Y-109350024D01*
X97015905Y-108080024D02*
X97499714Y-108080024D01*
X97548095Y-108684786D01*
X97499714Y-108624310D01*
X97402952Y-108563833D01*
X97161048Y-108563833D01*
X97064286Y-108624310D01*
X97015905Y-108684786D01*
X96967524Y-108805738D01*
X96967524Y-109108119D01*
X97015905Y-109229071D01*
X97064286Y-109289548D01*
X97161048Y-109350024D01*
X97402952Y-109350024D01*
X97499714Y-109289548D01*
X97548095Y-109229071D01*
X95758000Y-108684786D02*
X94983905Y-108684786D01*
X94983905Y-109047643D02*
X95758000Y-109047643D01*
X93532476Y-108080024D02*
X93338953Y-108080024D01*
X93242191Y-108140500D01*
X93145429Y-108261452D01*
X93097048Y-108503357D01*
X93097048Y-108926690D01*
X93145429Y-109168595D01*
X93242191Y-109289548D01*
X93338953Y-109350024D01*
X93532476Y-109350024D01*
X93629238Y-109289548D01*
X93726000Y-109168595D01*
X93774381Y-108926690D01*
X93774381Y-108503357D01*
X93726000Y-108261452D01*
X93629238Y-108140500D01*
X93532476Y-108080024D01*
X92661619Y-109350024D02*
X92661619Y-108080024D01*
X92081048Y-109350024D01*
X92081048Y-108080024D01*
X91597238Y-109229071D02*
X91548857Y-109289548D01*
X91597238Y-109350024D01*
X91645619Y-109289548D01*
X91597238Y-109229071D01*
X91597238Y-109350024D01*
X91597238Y-108563833D02*
X91548857Y-108624310D01*
X91597238Y-108684786D01*
X91645619Y-108624310D01*
X91597238Y-108563833D01*
X91597238Y-108684786D01*
X90339333Y-108684786D02*
X90000667Y-108684786D01*
X89855524Y-109350024D02*
X90339333Y-109350024D01*
X90339333Y-108080024D01*
X89855524Y-108080024D01*
X89420095Y-108503357D02*
X89420095Y-109350024D01*
X89420095Y-108624310D02*
X89371714Y-108563833D01*
X89274952Y-108503357D01*
X89129810Y-108503357D01*
X89033048Y-108563833D01*
X88984667Y-108684786D01*
X88984667Y-109350024D01*
X88065429Y-109350024D02*
X88065429Y-108684786D01*
X88113810Y-108563833D01*
X88210572Y-108503357D01*
X88404095Y-108503357D01*
X88500857Y-108563833D01*
X88065429Y-109289548D02*
X88162191Y-109350024D01*
X88404095Y-109350024D01*
X88500857Y-109289548D01*
X88549238Y-109168595D01*
X88549238Y-109047643D01*
X88500857Y-108926690D01*
X88404095Y-108866214D01*
X88162191Y-108866214D01*
X88065429Y-108805738D01*
X87581619Y-109350024D02*
X87581619Y-108080024D01*
X87581619Y-108563833D02*
X87484857Y-108503357D01*
X87291334Y-108503357D01*
X87194572Y-108563833D01*
X87146191Y-108624310D01*
X87097810Y-108745262D01*
X87097810Y-109108119D01*
X87146191Y-109229071D01*
X87194572Y-109289548D01*
X87291334Y-109350024D01*
X87484857Y-109350024D01*
X87581619Y-109289548D01*
X86517238Y-109350024D02*
X86614000Y-109289548D01*
X86662381Y-109168595D01*
X86662381Y-108080024D01*
X85743144Y-109289548D02*
X85839906Y-109350024D01*
X86033429Y-109350024D01*
X86130191Y-109289548D01*
X86178572Y-109168595D01*
X86178572Y-108684786D01*
X86130191Y-108563833D01*
X86033429Y-108503357D01*
X85839906Y-108503357D01*
X85743144Y-108563833D01*
X85694763Y-108684786D01*
X85694763Y-108805738D01*
X86178572Y-108926690D01*
X84291715Y-108080024D02*
X84194954Y-108080024D01*
X84098192Y-108140500D01*
X84049811Y-108200976D01*
X84001430Y-108321929D01*
X83953049Y-108563833D01*
X83953049Y-108866214D01*
X84001430Y-109108119D01*
X84049811Y-109229071D01*
X84098192Y-109289548D01*
X84194954Y-109350024D01*
X84291715Y-109350024D01*
X84388477Y-109289548D01*
X84436858Y-109229071D01*
X84485239Y-109108119D01*
X84533620Y-108866214D01*
X84533620Y-108563833D01*
X84485239Y-108321929D01*
X84436858Y-108200976D01*
X84388477Y-108140500D01*
X84291715Y-108080024D01*
X83614382Y-109350024D02*
X83082192Y-108503357D01*
X83614382Y-108503357D02*
X83082192Y-109350024D01*
X82695144Y-108684786D02*
X82356478Y-108684786D01*
X82211335Y-109350024D02*
X82695144Y-109350024D01*
X82695144Y-108080024D01*
X82211335Y-108080024D01*
X81582382Y-108080024D02*
X81485621Y-108080024D01*
X81388859Y-108140500D01*
X81340478Y-108200976D01*
X81292097Y-108321929D01*
X81243716Y-108563833D01*
X81243716Y-108866214D01*
X81292097Y-109108119D01*
X81340478Y-109229071D01*
X81388859Y-109289548D01*
X81485621Y-109350024D01*
X81582382Y-109350024D01*
X81679144Y-109289548D01*
X81727525Y-109229071D01*
X81775906Y-109108119D01*
X81824287Y-108866214D01*
X81824287Y-108563833D01*
X81775906Y-108321929D01*
X81727525Y-108200976D01*
X81679144Y-108140500D01*
X81582382Y-108080024D01*
X80614763Y-108080024D02*
X80518002Y-108080024D01*
X80421240Y-108140500D01*
X80372859Y-108200976D01*
X80324478Y-108321929D01*
X80276097Y-108563833D01*
X80276097Y-108866214D01*
X80324478Y-109108119D01*
X80372859Y-109229071D01*
X80421240Y-109289548D01*
X80518002Y-109350024D01*
X80614763Y-109350024D01*
X80711525Y-109289548D01*
X80759906Y-109229071D01*
X80808287Y-109108119D01*
X80856668Y-108866214D01*
X80856668Y-108563833D01*
X80808287Y-108321929D01*
X80759906Y-108200976D01*
X80711525Y-108140500D01*
X80614763Y-108080024D01*
X79647144Y-108080024D02*
X79550383Y-108080024D01*
X79453621Y-108140500D01*
X79405240Y-108200976D01*
X79356859Y-108321929D01*
X79308478Y-108563833D01*
X79308478Y-108866214D01*
X79356859Y-109108119D01*
X79405240Y-109229071D01*
X79453621Y-109289548D01*
X79550383Y-109350024D01*
X79647144Y-109350024D01*
X79743906Y-109289548D01*
X79792287Y-109229071D01*
X79840668Y-109108119D01*
X79889049Y-108866214D01*
X79889049Y-108563833D01*
X79840668Y-108321929D01*
X79792287Y-108200976D01*
X79743906Y-108140500D01*
X79647144Y-108080024D01*
X78679525Y-108080024D02*
X78582764Y-108080024D01*
X78486002Y-108140500D01*
X78437621Y-108200976D01*
X78389240Y-108321929D01*
X78340859Y-108563833D01*
X78340859Y-108866214D01*
X78389240Y-109108119D01*
X78437621Y-109229071D01*
X78486002Y-109289548D01*
X78582764Y-109350024D01*
X78679525Y-109350024D01*
X78776287Y-109289548D01*
X78824668Y-109229071D01*
X78873049Y-109108119D01*
X78921430Y-108866214D01*
X78921430Y-108563833D01*
X78873049Y-108321929D01*
X78824668Y-108200976D01*
X78776287Y-108140500D01*
X78679525Y-108080024D01*
X77905430Y-108866214D02*
X77131335Y-108866214D01*
X76454001Y-108080024D02*
X76357240Y-108080024D01*
X76260478Y-108140500D01*
X76212097Y-108200976D01*
X76163716Y-108321929D01*
X76115335Y-108563833D01*
X76115335Y-108866214D01*
X76163716Y-109108119D01*
X76212097Y-109229071D01*
X76260478Y-109289548D01*
X76357240Y-109350024D01*
X76454001Y-109350024D01*
X76550763Y-109289548D01*
X76599144Y-109229071D01*
X76647525Y-109108119D01*
X76695906Y-108866214D01*
X76695906Y-108563833D01*
X76647525Y-108321929D01*
X76599144Y-108200976D01*
X76550763Y-108140500D01*
X76454001Y-108080024D01*
X75776668Y-109350024D02*
X75244478Y-108503357D01*
X75776668Y-108503357D02*
X75244478Y-109350024D01*
X74857430Y-108684786D02*
X74518764Y-108684786D01*
X74373621Y-109350024D02*
X74857430Y-109350024D01*
X74857430Y-108080024D01*
X74373621Y-108080024D01*
X73599526Y-108684786D02*
X73938192Y-108684786D01*
X73938192Y-109350024D02*
X73938192Y-108080024D01*
X73454383Y-108080024D01*
X72728669Y-108684786D02*
X73067335Y-108684786D01*
X73067335Y-109350024D02*
X73067335Y-108080024D01*
X72583526Y-108080024D01*
X71857812Y-108684786D02*
X72196478Y-108684786D01*
X72196478Y-109350024D02*
X72196478Y-108080024D01*
X71712669Y-108080024D01*
X70986955Y-108684786D02*
X71325621Y-108684786D01*
X71325621Y-109350024D02*
X71325621Y-108080024D01*
X70841812Y-108080024D01*
X190306476Y-75723448D02*
X190161333Y-75783924D01*
X189919429Y-75783924D01*
X189822667Y-75723448D01*
X189774286Y-75662971D01*
X189725905Y-75542019D01*
X189725905Y-75421067D01*
X189774286Y-75300114D01*
X189822667Y-75239638D01*
X189919429Y-75179162D01*
X190112952Y-75118686D01*
X190209714Y-75058210D01*
X190258095Y-74997733D01*
X190306476Y-74876781D01*
X190306476Y-74755829D01*
X190258095Y-74634876D01*
X190209714Y-74574400D01*
X190112952Y-74513924D01*
X189871048Y-74513924D01*
X189725905Y-74574400D01*
X189387238Y-74513924D02*
X189145333Y-75783924D01*
X188951810Y-74876781D01*
X188758286Y-75783924D01*
X188516381Y-74513924D01*
X188177714Y-74634876D02*
X188129333Y-74574400D01*
X188032571Y-74513924D01*
X187790667Y-74513924D01*
X187693905Y-74574400D01*
X187645524Y-74634876D01*
X187597143Y-74755829D01*
X187597143Y-74876781D01*
X187645524Y-75058210D01*
X188226095Y-75783924D01*
X187597143Y-75783924D01*
X187161714Y-75662971D02*
X187113333Y-75723448D01*
X187161714Y-75783924D01*
X187210095Y-75723448D01*
X187161714Y-75662971D01*
X187161714Y-75783924D01*
X186774666Y-74513924D02*
X186145714Y-74513924D01*
X186484380Y-74997733D01*
X186339238Y-74997733D01*
X186242476Y-75058210D01*
X186194095Y-75118686D01*
X186145714Y-75239638D01*
X186145714Y-75542019D01*
X186194095Y-75662971D01*
X186242476Y-75723448D01*
X186339238Y-75783924D01*
X186629523Y-75783924D01*
X186726285Y-75723448D01*
X186774666Y-75662971D01*
X184936190Y-75300114D02*
X184162095Y-75300114D01*
X182904190Y-75783924D02*
X182904190Y-74513924D01*
X182323619Y-75783924D02*
X182759047Y-75058210D01*
X182323619Y-74513924D02*
X182904190Y-75239638D01*
X181501143Y-75723448D02*
X181597905Y-75783924D01*
X181791428Y-75783924D01*
X181888190Y-75723448D01*
X181936571Y-75602495D01*
X181936571Y-75118686D01*
X181888190Y-74997733D01*
X181791428Y-74937257D01*
X181597905Y-74937257D01*
X181501143Y-74997733D01*
X181452762Y-75118686D01*
X181452762Y-75239638D01*
X181936571Y-75360590D01*
X181114095Y-74937257D02*
X180872190Y-75783924D01*
X180630286Y-74937257D02*
X180872190Y-75783924D01*
X180968952Y-76086305D01*
X181017333Y-76146781D01*
X181114095Y-76207257D01*
X180243238Y-75783924D02*
X180243238Y-74513924D01*
X180243238Y-74997733D02*
X180146476Y-74937257D01*
X179952953Y-74937257D01*
X179856191Y-74997733D01*
X179807810Y-75058210D01*
X179759429Y-75179162D01*
X179759429Y-75542019D01*
X179807810Y-75662971D01*
X179856191Y-75723448D01*
X179952953Y-75783924D01*
X180146476Y-75783924D01*
X180243238Y-75723448D01*
X179178857Y-75783924D02*
X179275619Y-75723448D01*
X179324000Y-75662971D01*
X179372381Y-75542019D01*
X179372381Y-75179162D01*
X179324000Y-75058210D01*
X179275619Y-74997733D01*
X179178857Y-74937257D01*
X179033715Y-74937257D01*
X178936953Y-74997733D01*
X178888572Y-75058210D01*
X178840191Y-75179162D01*
X178840191Y-75542019D01*
X178888572Y-75662971D01*
X178936953Y-75723448D01*
X179033715Y-75783924D01*
X179178857Y-75783924D01*
X177969334Y-75783924D02*
X177969334Y-75118686D01*
X178017715Y-74997733D01*
X178114477Y-74937257D01*
X178308000Y-74937257D01*
X178404762Y-74997733D01*
X177969334Y-75723448D02*
X178066096Y-75783924D01*
X178308000Y-75783924D01*
X178404762Y-75723448D01*
X178453143Y-75602495D01*
X178453143Y-75481543D01*
X178404762Y-75360590D01*
X178308000Y-75300114D01*
X178066096Y-75300114D01*
X177969334Y-75239638D01*
X177485524Y-75783924D02*
X177485524Y-74937257D01*
X177485524Y-75179162D02*
X177437143Y-75058210D01*
X177388762Y-74997733D01*
X177292000Y-74937257D01*
X177195239Y-74937257D01*
X176421144Y-75783924D02*
X176421144Y-74513924D01*
X176421144Y-75723448D02*
X176517906Y-75783924D01*
X176711429Y-75783924D01*
X176808191Y-75723448D01*
X176856572Y-75662971D01*
X176904953Y-75542019D01*
X176904953Y-75179162D01*
X176856572Y-75058210D01*
X176808191Y-74997733D01*
X176711429Y-74937257D01*
X176517906Y-74937257D01*
X176421144Y-74997733D01*
X174969715Y-74513924D02*
X174872954Y-74513924D01*
X174776192Y-74574400D01*
X174727811Y-74634876D01*
X174679430Y-74755829D01*
X174631049Y-74997733D01*
X174631049Y-75300114D01*
X174679430Y-75542019D01*
X174727811Y-75662971D01*
X174776192Y-75723448D01*
X174872954Y-75783924D01*
X174969715Y-75783924D01*
X175066477Y-75723448D01*
X175114858Y-75662971D01*
X175163239Y-75542019D01*
X175211620Y-75300114D01*
X175211620Y-74997733D01*
X175163239Y-74755829D01*
X175114858Y-74634876D01*
X175066477Y-74574400D01*
X174969715Y-74513924D01*
X174292382Y-75783924D02*
X173760192Y-74937257D01*
X174292382Y-74937257D02*
X173760192Y-75783924D01*
X173373144Y-75118686D02*
X173034478Y-75118686D01*
X172889335Y-75783924D02*
X173373144Y-75783924D01*
X173373144Y-74513924D01*
X172889335Y-74513924D01*
X172260382Y-74513924D02*
X172163621Y-74513924D01*
X172066859Y-74574400D01*
X172018478Y-74634876D01*
X171970097Y-74755829D01*
X171921716Y-74997733D01*
X171921716Y-75300114D01*
X171970097Y-75542019D01*
X172018478Y-75662971D01*
X172066859Y-75723448D01*
X172163621Y-75783924D01*
X172260382Y-75783924D01*
X172357144Y-75723448D01*
X172405525Y-75662971D01*
X172453906Y-75542019D01*
X172502287Y-75300114D01*
X172502287Y-74997733D01*
X172453906Y-74755829D01*
X172405525Y-74634876D01*
X172357144Y-74574400D01*
X172260382Y-74513924D01*
X170760573Y-75723448D02*
X170663811Y-75783924D01*
X170470287Y-75783924D01*
X170373526Y-75723448D01*
X170325145Y-75602495D01*
X170325145Y-75542019D01*
X170373526Y-75421067D01*
X170470287Y-75360590D01*
X170615430Y-75360590D01*
X170712192Y-75300114D01*
X170760573Y-75179162D01*
X170760573Y-75118686D01*
X170712192Y-74997733D01*
X170615430Y-74937257D01*
X170470287Y-74937257D01*
X170373526Y-74997733D01*
X169454288Y-75723448D02*
X169551050Y-75783924D01*
X169744573Y-75783924D01*
X169841335Y-75723448D01*
X169889716Y-75662971D01*
X169938097Y-75542019D01*
X169938097Y-75179162D01*
X169889716Y-75058210D01*
X169841335Y-74997733D01*
X169744573Y-74937257D01*
X169551050Y-74937257D01*
X169454288Y-74997733D01*
X168583431Y-75783924D02*
X168583431Y-75118686D01*
X168631812Y-74997733D01*
X168728574Y-74937257D01*
X168922097Y-74937257D01*
X169018859Y-74997733D01*
X168583431Y-75723448D02*
X168680193Y-75783924D01*
X168922097Y-75783924D01*
X169018859Y-75723448D01*
X169067240Y-75602495D01*
X169067240Y-75481543D01*
X169018859Y-75360590D01*
X168922097Y-75300114D01*
X168680193Y-75300114D01*
X168583431Y-75239638D01*
X168099621Y-74937257D02*
X168099621Y-75783924D01*
X168099621Y-75058210D02*
X168051240Y-74997733D01*
X167954478Y-74937257D01*
X167809336Y-74937257D01*
X167712574Y-74997733D01*
X167664193Y-75118686D01*
X167664193Y-75783924D01*
X165970860Y-75723448D02*
X166067622Y-75783924D01*
X166261145Y-75783924D01*
X166357907Y-75723448D01*
X166406288Y-75662971D01*
X166454669Y-75542019D01*
X166454669Y-75179162D01*
X166406288Y-75058210D01*
X166357907Y-74997733D01*
X166261145Y-74937257D01*
X166067622Y-74937257D01*
X165970860Y-74997733D01*
X165390288Y-75783924D02*
X165487050Y-75723448D01*
X165535431Y-75662971D01*
X165583812Y-75542019D01*
X165583812Y-75179162D01*
X165535431Y-75058210D01*
X165487050Y-74997733D01*
X165390288Y-74937257D01*
X165245146Y-74937257D01*
X165148384Y-74997733D01*
X165100003Y-75058210D01*
X165051622Y-75179162D01*
X165051622Y-75542019D01*
X165100003Y-75662971D01*
X165148384Y-75723448D01*
X165245146Y-75783924D01*
X165390288Y-75783924D01*
X164180765Y-75783924D02*
X164180765Y-74513924D01*
X164180765Y-75723448D02*
X164277527Y-75783924D01*
X164471050Y-75783924D01*
X164567812Y-75723448D01*
X164616193Y-75662971D01*
X164664574Y-75542019D01*
X164664574Y-75179162D01*
X164616193Y-75058210D01*
X164567812Y-74997733D01*
X164471050Y-74937257D01*
X164277527Y-74937257D01*
X164180765Y-74997733D01*
X163309908Y-75723448D02*
X163406670Y-75783924D01*
X163600193Y-75783924D01*
X163696955Y-75723448D01*
X163745336Y-75602495D01*
X163745336Y-75118686D01*
X163696955Y-74997733D01*
X163600193Y-74937257D01*
X163406670Y-74937257D01*
X163309908Y-74997733D01*
X163261527Y-75118686D01*
X163261527Y-75239638D01*
X163745336Y-75360590D01*
X162052003Y-74937257D02*
X162052003Y-76207257D01*
X162052003Y-74997733D02*
X161955241Y-74937257D01*
X161761718Y-74937257D01*
X161664956Y-74997733D01*
X161616575Y-75058210D01*
X161568194Y-75179162D01*
X161568194Y-75542019D01*
X161616575Y-75662971D01*
X161664956Y-75723448D01*
X161761718Y-75783924D01*
X161955241Y-75783924D01*
X162052003Y-75723448D01*
X160697337Y-75783924D02*
X160697337Y-75118686D01*
X160745718Y-74997733D01*
X160842480Y-74937257D01*
X161036003Y-74937257D01*
X161132765Y-74997733D01*
X160697337Y-75723448D02*
X160794099Y-75783924D01*
X161036003Y-75783924D01*
X161132765Y-75723448D01*
X161181146Y-75602495D01*
X161181146Y-75481543D01*
X161132765Y-75360590D01*
X161036003Y-75300114D01*
X160794099Y-75300114D01*
X160697337Y-75239638D01*
X160261908Y-75723448D02*
X160165146Y-75783924D01*
X159971622Y-75783924D01*
X159874861Y-75723448D01*
X159826480Y-75602495D01*
X159826480Y-75542019D01*
X159874861Y-75421067D01*
X159971622Y-75360590D01*
X160116765Y-75360590D01*
X160213527Y-75300114D01*
X160261908Y-75179162D01*
X160261908Y-75118686D01*
X160213527Y-74997733D01*
X160116765Y-74937257D01*
X159971622Y-74937257D01*
X159874861Y-74997733D01*
X159439432Y-75723448D02*
X159342670Y-75783924D01*
X159149146Y-75783924D01*
X159052385Y-75723448D01*
X159004004Y-75602495D01*
X159004004Y-75542019D01*
X159052385Y-75421067D01*
X159149146Y-75360590D01*
X159294289Y-75360590D01*
X159391051Y-75300114D01*
X159439432Y-75179162D01*
X159439432Y-75118686D01*
X159391051Y-74997733D01*
X159294289Y-74937257D01*
X159149146Y-74937257D01*
X159052385Y-74997733D01*
X157939623Y-74937257D02*
X157552575Y-74937257D01*
X157794480Y-74513924D02*
X157794480Y-75602495D01*
X157746099Y-75723448D01*
X157649337Y-75783924D01*
X157552575Y-75783924D01*
X157213909Y-75783924D02*
X157213909Y-74513924D01*
X156778481Y-75783924D02*
X156778481Y-75118686D01*
X156826862Y-74997733D01*
X156923624Y-74937257D01*
X157068766Y-74937257D01*
X157165528Y-74997733D01*
X157213909Y-75058210D01*
X156294671Y-75783924D02*
X156294671Y-74937257D01*
X156294671Y-75179162D02*
X156246290Y-75058210D01*
X156197909Y-74997733D01*
X156101147Y-74937257D01*
X156004386Y-74937257D01*
X155520576Y-75783924D02*
X155617338Y-75723448D01*
X155665719Y-75662971D01*
X155714100Y-75542019D01*
X155714100Y-75179162D01*
X155665719Y-75058210D01*
X155617338Y-74997733D01*
X155520576Y-74937257D01*
X155375434Y-74937257D01*
X155278672Y-74997733D01*
X155230291Y-75058210D01*
X155181910Y-75179162D01*
X155181910Y-75542019D01*
X155230291Y-75662971D01*
X155278672Y-75723448D01*
X155375434Y-75783924D01*
X155520576Y-75783924D01*
X154311053Y-74937257D02*
X154311053Y-75783924D01*
X154746481Y-74937257D02*
X154746481Y-75602495D01*
X154698100Y-75723448D01*
X154601338Y-75783924D01*
X154456196Y-75783924D01*
X154359434Y-75723448D01*
X154311053Y-75662971D01*
X153391815Y-74937257D02*
X153391815Y-75965352D01*
X153440196Y-76086305D01*
X153488577Y-76146781D01*
X153585338Y-76207257D01*
X153730481Y-76207257D01*
X153827243Y-76146781D01*
X153391815Y-75723448D02*
X153488577Y-75783924D01*
X153682100Y-75783924D01*
X153778862Y-75723448D01*
X153827243Y-75662971D01*
X153875624Y-75542019D01*
X153875624Y-75179162D01*
X153827243Y-75058210D01*
X153778862Y-74997733D01*
X153682100Y-74937257D01*
X153488577Y-74937257D01*
X153391815Y-74997733D01*
X152908005Y-75783924D02*
X152908005Y-74513924D01*
X152472577Y-75783924D02*
X152472577Y-75118686D01*
X152520958Y-74997733D01*
X152617720Y-74937257D01*
X152762862Y-74937257D01*
X152859624Y-74997733D01*
X152908005Y-75058210D01*
X151988767Y-75662971D02*
X151940386Y-75723448D01*
X151988767Y-75783924D01*
X152037148Y-75723448D01*
X151988767Y-75662971D01*
X151988767Y-75783924D01*
X151988767Y-74997733D02*
X151940386Y-75058210D01*
X151988767Y-75118686D01*
X152037148Y-75058210D01*
X151988767Y-74997733D01*
X151988767Y-75118686D01*
X188758286Y-77704648D02*
X188613143Y-77765124D01*
X188371239Y-77765124D01*
X188274477Y-77704648D01*
X188226096Y-77644171D01*
X188177715Y-77523219D01*
X188177715Y-77402267D01*
X188226096Y-77281314D01*
X188274477Y-77220838D01*
X188371239Y-77160362D01*
X188564762Y-77099886D01*
X188661524Y-77039410D01*
X188709905Y-76978933D01*
X188758286Y-76857981D01*
X188758286Y-76737029D01*
X188709905Y-76616076D01*
X188661524Y-76555600D01*
X188564762Y-76495124D01*
X188322858Y-76495124D01*
X188177715Y-76555600D01*
X187839048Y-76495124D02*
X187597143Y-77765124D01*
X187403620Y-76857981D01*
X187210096Y-77765124D01*
X186968191Y-76495124D01*
X186629524Y-76616076D02*
X186581143Y-76555600D01*
X186484381Y-76495124D01*
X186242477Y-76495124D01*
X186145715Y-76555600D01*
X186097334Y-76616076D01*
X186048953Y-76737029D01*
X186048953Y-76857981D01*
X186097334Y-77039410D01*
X186677905Y-77765124D01*
X186048953Y-77765124D01*
X185613524Y-77644171D02*
X185565143Y-77704648D01*
X185613524Y-77765124D01*
X185661905Y-77704648D01*
X185613524Y-77644171D01*
X185613524Y-77765124D01*
X185226476Y-76495124D02*
X184597524Y-76495124D01*
X184936190Y-76978933D01*
X184791048Y-76978933D01*
X184694286Y-77039410D01*
X184645905Y-77099886D01*
X184597524Y-77220838D01*
X184597524Y-77523219D01*
X184645905Y-77644171D01*
X184694286Y-77704648D01*
X184791048Y-77765124D01*
X185081333Y-77765124D01*
X185178095Y-77704648D01*
X185226476Y-77644171D01*
X183388000Y-77099886D02*
X182613905Y-77099886D01*
X182613905Y-77462743D02*
X183388000Y-77462743D01*
X181162476Y-76495124D02*
X180968953Y-76495124D01*
X180872191Y-76555600D01*
X180775429Y-76676552D01*
X180727048Y-76918457D01*
X180727048Y-77341790D01*
X180775429Y-77583695D01*
X180872191Y-77704648D01*
X180968953Y-77765124D01*
X181162476Y-77765124D01*
X181259238Y-77704648D01*
X181356000Y-77583695D01*
X181404381Y-77341790D01*
X181404381Y-76918457D01*
X181356000Y-76676552D01*
X181259238Y-76555600D01*
X181162476Y-76495124D01*
X179952953Y-77099886D02*
X180291619Y-77099886D01*
X180291619Y-77765124D02*
X180291619Y-76495124D01*
X179807810Y-76495124D01*
X179082096Y-77099886D02*
X179420762Y-77099886D01*
X179420762Y-77765124D02*
X179420762Y-76495124D01*
X178936953Y-76495124D01*
X178549905Y-77644171D02*
X178501524Y-77704648D01*
X178549905Y-77765124D01*
X178598286Y-77704648D01*
X178549905Y-77644171D01*
X178549905Y-77765124D01*
X178549905Y-76978933D02*
X178501524Y-77039410D01*
X178549905Y-77099886D01*
X178598286Y-77039410D01*
X178549905Y-76978933D01*
X178549905Y-77099886D01*
X177292000Y-77765124D02*
X177292000Y-76495124D01*
X177050095Y-76495124D01*
X176904953Y-76555600D01*
X176808191Y-76676552D01*
X176759810Y-76797505D01*
X176711429Y-77039410D01*
X176711429Y-77220838D01*
X176759810Y-77462743D01*
X176808191Y-77583695D01*
X176904953Y-77704648D01*
X177050095Y-77765124D01*
X177292000Y-77765124D01*
X176276000Y-77765124D02*
X176276000Y-76918457D01*
X176276000Y-76495124D02*
X176324381Y-76555600D01*
X176276000Y-76616076D01*
X176227619Y-76555600D01*
X176276000Y-76495124D01*
X176276000Y-76616076D01*
X175840571Y-77704648D02*
X175743809Y-77765124D01*
X175550285Y-77765124D01*
X175453524Y-77704648D01*
X175405143Y-77583695D01*
X175405143Y-77523219D01*
X175453524Y-77402267D01*
X175550285Y-77341790D01*
X175695428Y-77341790D01*
X175792190Y-77281314D01*
X175840571Y-77160362D01*
X175840571Y-77099886D01*
X175792190Y-76978933D01*
X175695428Y-76918457D01*
X175550285Y-76918457D01*
X175453524Y-76978933D01*
X174534286Y-77765124D02*
X174534286Y-77099886D01*
X174582667Y-76978933D01*
X174679429Y-76918457D01*
X174872952Y-76918457D01*
X174969714Y-76978933D01*
X174534286Y-77704648D02*
X174631048Y-77765124D01*
X174872952Y-77765124D01*
X174969714Y-77704648D01*
X175018095Y-77583695D01*
X175018095Y-77462743D01*
X174969714Y-77341790D01*
X174872952Y-77281314D01*
X174631048Y-77281314D01*
X174534286Y-77220838D01*
X174050476Y-77765124D02*
X174050476Y-76495124D01*
X174050476Y-76978933D02*
X173953714Y-76918457D01*
X173760191Y-76918457D01*
X173663429Y-76978933D01*
X173615048Y-77039410D01*
X173566667Y-77160362D01*
X173566667Y-77523219D01*
X173615048Y-77644171D01*
X173663429Y-77704648D01*
X173760191Y-77765124D01*
X173953714Y-77765124D01*
X174050476Y-77704648D01*
X172986095Y-77765124D02*
X173082857Y-77704648D01*
X173131238Y-77583695D01*
X173131238Y-76495124D01*
X172212001Y-77704648D02*
X172308763Y-77765124D01*
X172502286Y-77765124D01*
X172599048Y-77704648D01*
X172647429Y-77583695D01*
X172647429Y-77099886D01*
X172599048Y-76978933D01*
X172502286Y-76918457D01*
X172308763Y-76918457D01*
X172212001Y-76978933D01*
X172163620Y-77099886D01*
X172163620Y-77220838D01*
X172647429Y-77341790D01*
X171679810Y-77704648D02*
X171679810Y-77765124D01*
X171728191Y-77886076D01*
X171776572Y-77946552D01*
X171728191Y-76978933D02*
X171679810Y-77039410D01*
X171728191Y-77099886D01*
X171776572Y-77039410D01*
X171728191Y-76978933D01*
X171728191Y-77099886D01*
X170518667Y-77704648D02*
X170373524Y-77765124D01*
X170131620Y-77765124D01*
X170034858Y-77704648D01*
X169986477Y-77644171D01*
X169938096Y-77523219D01*
X169938096Y-77402267D01*
X169986477Y-77281314D01*
X170034858Y-77220838D01*
X170131620Y-77160362D01*
X170325143Y-77099886D01*
X170421905Y-77039410D01*
X170470286Y-76978933D01*
X170518667Y-76857981D01*
X170518667Y-76737029D01*
X170470286Y-76616076D01*
X170421905Y-76555600D01*
X170325143Y-76495124D01*
X170083239Y-76495124D01*
X169938096Y-76555600D01*
X169599429Y-76495124D02*
X169357524Y-77765124D01*
X169164001Y-76857981D01*
X168970477Y-77765124D01*
X168728572Y-76495124D01*
X167809334Y-77765124D02*
X168389905Y-77765124D01*
X168099619Y-77765124D02*
X168099619Y-76495124D01*
X168196381Y-76676552D01*
X168293143Y-76797505D01*
X168389905Y-76857981D01*
X167373905Y-77644171D02*
X167325524Y-77704648D01*
X167373905Y-77765124D01*
X167422286Y-77704648D01*
X167373905Y-77644171D01*
X167373905Y-77765124D01*
X166986857Y-76495124D02*
X166357905Y-76495124D01*
X166696571Y-76978933D01*
X166551429Y-76978933D01*
X166454667Y-77039410D01*
X166406286Y-77099886D01*
X166357905Y-77220838D01*
X166357905Y-77523219D01*
X166406286Y-77644171D01*
X166454667Y-77704648D01*
X166551429Y-77765124D01*
X166841714Y-77765124D01*
X166938476Y-77704648D01*
X166986857Y-77644171D01*
X165148381Y-77099886D02*
X164374286Y-77099886D01*
X164374286Y-77462743D02*
X165148381Y-77462743D01*
X162922857Y-76495124D02*
X162729334Y-76495124D01*
X162632572Y-76555600D01*
X162535810Y-76676552D01*
X162487429Y-76918457D01*
X162487429Y-77341790D01*
X162535810Y-77583695D01*
X162632572Y-77704648D01*
X162729334Y-77765124D01*
X162922857Y-77765124D01*
X163019619Y-77704648D01*
X163116381Y-77583695D01*
X163164762Y-77341790D01*
X163164762Y-76918457D01*
X163116381Y-76676552D01*
X163019619Y-76555600D01*
X162922857Y-76495124D01*
X162052000Y-77765124D02*
X162052000Y-76495124D01*
X161471429Y-77765124D01*
X161471429Y-76495124D01*
X160987619Y-77644171D02*
X160939238Y-77704648D01*
X160987619Y-77765124D01*
X161036000Y-77704648D01*
X160987619Y-77644171D01*
X160987619Y-77765124D01*
X160987619Y-76978933D02*
X160939238Y-77039410D01*
X160987619Y-77099886D01*
X161036000Y-77039410D01*
X160987619Y-76978933D01*
X160987619Y-77099886D01*
X159729714Y-77099886D02*
X159391048Y-77099886D01*
X159245905Y-77765124D02*
X159729714Y-77765124D01*
X159729714Y-76495124D01*
X159245905Y-76495124D01*
X158810476Y-76918457D02*
X158810476Y-77765124D01*
X158810476Y-77039410D02*
X158762095Y-76978933D01*
X158665333Y-76918457D01*
X158520191Y-76918457D01*
X158423429Y-76978933D01*
X158375048Y-77099886D01*
X158375048Y-77765124D01*
X157455810Y-77765124D02*
X157455810Y-77099886D01*
X157504191Y-76978933D01*
X157600953Y-76918457D01*
X157794476Y-76918457D01*
X157891238Y-76978933D01*
X157455810Y-77704648D02*
X157552572Y-77765124D01*
X157794476Y-77765124D01*
X157891238Y-77704648D01*
X157939619Y-77583695D01*
X157939619Y-77462743D01*
X157891238Y-77341790D01*
X157794476Y-77281314D01*
X157552572Y-77281314D01*
X157455810Y-77220838D01*
X156972000Y-77765124D02*
X156972000Y-76495124D01*
X156972000Y-76978933D02*
X156875238Y-76918457D01*
X156681715Y-76918457D01*
X156584953Y-76978933D01*
X156536572Y-77039410D01*
X156488191Y-77160362D01*
X156488191Y-77523219D01*
X156536572Y-77644171D01*
X156584953Y-77704648D01*
X156681715Y-77765124D01*
X156875238Y-77765124D01*
X156972000Y-77704648D01*
X155907619Y-77765124D02*
X156004381Y-77704648D01*
X156052762Y-77583695D01*
X156052762Y-76495124D01*
X155133525Y-77704648D02*
X155230287Y-77765124D01*
X155423810Y-77765124D01*
X155520572Y-77704648D01*
X155568953Y-77583695D01*
X155568953Y-77099886D01*
X155520572Y-76978933D01*
X155423810Y-76918457D01*
X155230287Y-76918457D01*
X155133525Y-76978933D01*
X155085144Y-77099886D01*
X155085144Y-77220838D01*
X155568953Y-77341790D01*
X190941476Y-54971648D02*
X190796333Y-55032124D01*
X190554429Y-55032124D01*
X190457667Y-54971648D01*
X190409286Y-54911171D01*
X190360905Y-54790219D01*
X190360905Y-54669267D01*
X190409286Y-54548314D01*
X190457667Y-54487838D01*
X190554429Y-54427362D01*
X190747952Y-54366886D01*
X190844714Y-54306410D01*
X190893095Y-54245933D01*
X190941476Y-54124981D01*
X190941476Y-54004029D01*
X190893095Y-53883076D01*
X190844714Y-53822600D01*
X190747952Y-53762124D01*
X190506048Y-53762124D01*
X190360905Y-53822600D01*
X190022238Y-53762124D02*
X189780333Y-55032124D01*
X189586810Y-54124981D01*
X189393286Y-55032124D01*
X189151381Y-53762124D01*
X188812714Y-53883076D02*
X188764333Y-53822600D01*
X188667571Y-53762124D01*
X188425667Y-53762124D01*
X188328905Y-53822600D01*
X188280524Y-53883076D01*
X188232143Y-54004029D01*
X188232143Y-54124981D01*
X188280524Y-54306410D01*
X188861095Y-55032124D01*
X188232143Y-55032124D01*
X187796714Y-54911171D02*
X187748333Y-54971648D01*
X187796714Y-55032124D01*
X187845095Y-54971648D01*
X187796714Y-54911171D01*
X187796714Y-55032124D01*
X186780714Y-55032124D02*
X187361285Y-55032124D01*
X187070999Y-55032124D02*
X187070999Y-53762124D01*
X187167761Y-53943552D01*
X187264523Y-54064505D01*
X187361285Y-54124981D01*
X186296904Y-54971648D02*
X186296904Y-55032124D01*
X186345285Y-55153076D01*
X186393666Y-55213552D01*
X185135761Y-54971648D02*
X184990618Y-55032124D01*
X184748714Y-55032124D01*
X184651952Y-54971648D01*
X184603571Y-54911171D01*
X184555190Y-54790219D01*
X184555190Y-54669267D01*
X184603571Y-54548314D01*
X184651952Y-54487838D01*
X184748714Y-54427362D01*
X184942237Y-54366886D01*
X185038999Y-54306410D01*
X185087380Y-54245933D01*
X185135761Y-54124981D01*
X185135761Y-54004029D01*
X185087380Y-53883076D01*
X185038999Y-53822600D01*
X184942237Y-53762124D01*
X184700333Y-53762124D01*
X184555190Y-53822600D01*
X184216523Y-53762124D02*
X183974618Y-55032124D01*
X183781095Y-54124981D01*
X183587571Y-55032124D01*
X183345666Y-53762124D01*
X183006999Y-53883076D02*
X182958618Y-53822600D01*
X182861856Y-53762124D01*
X182619952Y-53762124D01*
X182523190Y-53822600D01*
X182474809Y-53883076D01*
X182426428Y-54004029D01*
X182426428Y-54124981D01*
X182474809Y-54306410D01*
X183055380Y-55032124D01*
X182426428Y-55032124D01*
X181990999Y-54911171D02*
X181942618Y-54971648D01*
X181990999Y-55032124D01*
X182039380Y-54971648D01*
X181990999Y-54911171D01*
X181990999Y-55032124D01*
X181555570Y-53883076D02*
X181507189Y-53822600D01*
X181410427Y-53762124D01*
X181168523Y-53762124D01*
X181071761Y-53822600D01*
X181023380Y-53883076D01*
X180974999Y-54004029D01*
X180974999Y-54124981D01*
X181023380Y-54306410D01*
X181603951Y-55032124D01*
X180974999Y-55032124D01*
X179765475Y-54548314D02*
X178991380Y-54548314D01*
X177878618Y-53762124D02*
X177539951Y-55032124D01*
X177201285Y-53762124D01*
X176862618Y-55032124D02*
X176862618Y-54185457D01*
X176862618Y-53762124D02*
X176910999Y-53822600D01*
X176862618Y-53883076D01*
X176814237Y-53822600D01*
X176862618Y-53762124D01*
X176862618Y-53883076D01*
X175943380Y-55032124D02*
X175943380Y-53762124D01*
X175943380Y-54971648D02*
X176040142Y-55032124D01*
X176233665Y-55032124D01*
X176330427Y-54971648D01*
X176378808Y-54911171D01*
X176427189Y-54790219D01*
X176427189Y-54427362D01*
X176378808Y-54306410D01*
X176330427Y-54245933D01*
X176233665Y-54185457D01*
X176040142Y-54185457D01*
X175943380Y-54245933D01*
X175072523Y-54971648D02*
X175169285Y-55032124D01*
X175362808Y-55032124D01*
X175459570Y-54971648D01*
X175507951Y-54850695D01*
X175507951Y-54366886D01*
X175459570Y-54245933D01*
X175362808Y-54185457D01*
X175169285Y-54185457D01*
X175072523Y-54245933D01*
X175024142Y-54366886D01*
X175024142Y-54487838D01*
X175507951Y-54608790D01*
X174443570Y-55032124D02*
X174540332Y-54971648D01*
X174588713Y-54911171D01*
X174637094Y-54790219D01*
X174637094Y-54427362D01*
X174588713Y-54306410D01*
X174540332Y-54245933D01*
X174443570Y-54185457D01*
X174298428Y-54185457D01*
X174201666Y-54245933D01*
X174153285Y-54306410D01*
X174104904Y-54427362D01*
X174104904Y-54790219D01*
X174153285Y-54911171D01*
X174201666Y-54971648D01*
X174298428Y-55032124D01*
X174443570Y-55032124D01*
X172895380Y-55032124D02*
X172895380Y-54185457D01*
X172895380Y-54306410D02*
X172846999Y-54245933D01*
X172750237Y-54185457D01*
X172605095Y-54185457D01*
X172508333Y-54245933D01*
X172459952Y-54366886D01*
X172459952Y-55032124D01*
X172459952Y-54366886D02*
X172411571Y-54245933D01*
X172314809Y-54185457D01*
X172169666Y-54185457D01*
X172072904Y-54245933D01*
X172024523Y-54366886D01*
X172024523Y-55032124D01*
X171395570Y-55032124D02*
X171492332Y-54971648D01*
X171540713Y-54911171D01*
X171589094Y-54790219D01*
X171589094Y-54427362D01*
X171540713Y-54306410D01*
X171492332Y-54245933D01*
X171395570Y-54185457D01*
X171250428Y-54185457D01*
X171153666Y-54245933D01*
X171105285Y-54306410D01*
X171056904Y-54427362D01*
X171056904Y-54790219D01*
X171105285Y-54911171D01*
X171153666Y-54971648D01*
X171250428Y-55032124D01*
X171395570Y-55032124D01*
X170186047Y-55032124D02*
X170186047Y-53762124D01*
X170186047Y-54971648D02*
X170282809Y-55032124D01*
X170476332Y-55032124D01*
X170573094Y-54971648D01*
X170621475Y-54911171D01*
X170669856Y-54790219D01*
X170669856Y-54427362D01*
X170621475Y-54306410D01*
X170573094Y-54245933D01*
X170476332Y-54185457D01*
X170282809Y-54185457D01*
X170186047Y-54245933D01*
X169315190Y-54971648D02*
X169411952Y-55032124D01*
X169605475Y-55032124D01*
X169702237Y-54971648D01*
X169750618Y-54850695D01*
X169750618Y-54366886D01*
X169702237Y-54245933D01*
X169605475Y-54185457D01*
X169411952Y-54185457D01*
X169315190Y-54245933D01*
X169266809Y-54366886D01*
X169266809Y-54487838D01*
X169750618Y-54608790D01*
X168105666Y-54971648D02*
X168008904Y-55032124D01*
X167815380Y-55032124D01*
X167718619Y-54971648D01*
X167670238Y-54850695D01*
X167670238Y-54790219D01*
X167718619Y-54669267D01*
X167815380Y-54608790D01*
X167960523Y-54608790D01*
X168057285Y-54548314D01*
X168105666Y-54427362D01*
X168105666Y-54366886D01*
X168057285Y-54245933D01*
X167960523Y-54185457D01*
X167815380Y-54185457D01*
X167718619Y-54245933D01*
X166847762Y-54971648D02*
X166944524Y-55032124D01*
X167138047Y-55032124D01*
X167234809Y-54971648D01*
X167283190Y-54850695D01*
X167283190Y-54366886D01*
X167234809Y-54245933D01*
X167138047Y-54185457D01*
X166944524Y-54185457D01*
X166847762Y-54245933D01*
X166799381Y-54366886D01*
X166799381Y-54487838D01*
X167283190Y-54608790D01*
X166218809Y-55032124D02*
X166315571Y-54971648D01*
X166363952Y-54850695D01*
X166363952Y-53762124D01*
X165444715Y-54971648D02*
X165541477Y-55032124D01*
X165735000Y-55032124D01*
X165831762Y-54971648D01*
X165880143Y-54850695D01*
X165880143Y-54366886D01*
X165831762Y-54245933D01*
X165735000Y-54185457D01*
X165541477Y-54185457D01*
X165444715Y-54245933D01*
X165396334Y-54366886D01*
X165396334Y-54487838D01*
X165880143Y-54608790D01*
X164525477Y-54971648D02*
X164622239Y-55032124D01*
X164815762Y-55032124D01*
X164912524Y-54971648D01*
X164960905Y-54911171D01*
X165009286Y-54790219D01*
X165009286Y-54427362D01*
X164960905Y-54306410D01*
X164912524Y-54245933D01*
X164815762Y-54185457D01*
X164622239Y-54185457D01*
X164525477Y-54245933D01*
X164235191Y-54185457D02*
X163848143Y-54185457D01*
X164090048Y-53762124D02*
X164090048Y-54850695D01*
X164041667Y-54971648D01*
X163944905Y-55032124D01*
X163848143Y-55032124D01*
X163509477Y-54911171D02*
X163461096Y-54971648D01*
X163509477Y-55032124D01*
X163557858Y-54971648D01*
X163509477Y-54911171D01*
X163509477Y-55032124D01*
X163509477Y-54245933D02*
X163461096Y-54306410D01*
X163509477Y-54366886D01*
X163557858Y-54306410D01*
X163509477Y-54245933D01*
X163509477Y-54366886D01*
X189393286Y-56952848D02*
X189248143Y-57013324D01*
X189006239Y-57013324D01*
X188909477Y-56952848D01*
X188861096Y-56892371D01*
X188812715Y-56771419D01*
X188812715Y-56650467D01*
X188861096Y-56529514D01*
X188909477Y-56469038D01*
X189006239Y-56408562D01*
X189199762Y-56348086D01*
X189296524Y-56287610D01*
X189344905Y-56227133D01*
X189393286Y-56106181D01*
X189393286Y-55985229D01*
X189344905Y-55864276D01*
X189296524Y-55803800D01*
X189199762Y-55743324D01*
X188957858Y-55743324D01*
X188812715Y-55803800D01*
X188474048Y-55743324D02*
X188232143Y-57013324D01*
X188038620Y-56106181D01*
X187845096Y-57013324D01*
X187603191Y-55743324D01*
X187264524Y-55864276D02*
X187216143Y-55803800D01*
X187119381Y-55743324D01*
X186877477Y-55743324D01*
X186780715Y-55803800D01*
X186732334Y-55864276D01*
X186683953Y-55985229D01*
X186683953Y-56106181D01*
X186732334Y-56287610D01*
X187312905Y-57013324D01*
X186683953Y-57013324D01*
X186248524Y-56892371D02*
X186200143Y-56952848D01*
X186248524Y-57013324D01*
X186296905Y-56952848D01*
X186248524Y-56892371D01*
X186248524Y-57013324D01*
X185232524Y-57013324D02*
X185813095Y-57013324D01*
X185522809Y-57013324D02*
X185522809Y-55743324D01*
X185619571Y-55924752D01*
X185716333Y-56045705D01*
X185813095Y-56106181D01*
X184023000Y-56348086D02*
X183248905Y-56348086D01*
X183248905Y-56710943D02*
X184023000Y-56710943D01*
X181797476Y-55743324D02*
X181603953Y-55743324D01*
X181507191Y-55803800D01*
X181410429Y-55924752D01*
X181362048Y-56166657D01*
X181362048Y-56589990D01*
X181410429Y-56831895D01*
X181507191Y-56952848D01*
X181603953Y-57013324D01*
X181797476Y-57013324D01*
X181894238Y-56952848D01*
X181991000Y-56831895D01*
X182039381Y-56589990D01*
X182039381Y-56166657D01*
X181991000Y-55924752D01*
X181894238Y-55803800D01*
X181797476Y-55743324D01*
X180587953Y-56348086D02*
X180926619Y-56348086D01*
X180926619Y-57013324D02*
X180926619Y-55743324D01*
X180442810Y-55743324D01*
X179717096Y-56348086D02*
X180055762Y-56348086D01*
X180055762Y-57013324D02*
X180055762Y-55743324D01*
X179571953Y-55743324D01*
X179136524Y-56952848D02*
X179136524Y-57013324D01*
X179184905Y-57134276D01*
X179233286Y-57194752D01*
X177975381Y-56952848D02*
X177830238Y-57013324D01*
X177588334Y-57013324D01*
X177491572Y-56952848D01*
X177443191Y-56892371D01*
X177394810Y-56771419D01*
X177394810Y-56650467D01*
X177443191Y-56529514D01*
X177491572Y-56469038D01*
X177588334Y-56408562D01*
X177781857Y-56348086D01*
X177878619Y-56287610D01*
X177927000Y-56227133D01*
X177975381Y-56106181D01*
X177975381Y-55985229D01*
X177927000Y-55864276D01*
X177878619Y-55803800D01*
X177781857Y-55743324D01*
X177539953Y-55743324D01*
X177394810Y-55803800D01*
X177056143Y-55743324D02*
X176814238Y-57013324D01*
X176620715Y-56106181D01*
X176427191Y-57013324D01*
X176185286Y-55743324D01*
X175846619Y-55864276D02*
X175798238Y-55803800D01*
X175701476Y-55743324D01*
X175459572Y-55743324D01*
X175362810Y-55803800D01*
X175314429Y-55864276D01*
X175266048Y-55985229D01*
X175266048Y-56106181D01*
X175314429Y-56287610D01*
X175895000Y-57013324D01*
X175266048Y-57013324D01*
X174830619Y-56892371D02*
X174782238Y-56952848D01*
X174830619Y-57013324D01*
X174879000Y-56952848D01*
X174830619Y-56892371D01*
X174830619Y-57013324D01*
X174395190Y-55864276D02*
X174346809Y-55803800D01*
X174250047Y-55743324D01*
X174008143Y-55743324D01*
X173911381Y-55803800D01*
X173863000Y-55864276D01*
X173814619Y-55985229D01*
X173814619Y-56106181D01*
X173863000Y-56287610D01*
X174443571Y-57013324D01*
X173814619Y-57013324D01*
X172605095Y-56348086D02*
X171831000Y-56348086D01*
X171831000Y-56710943D02*
X172605095Y-56710943D01*
X170379571Y-55743324D02*
X170186048Y-55743324D01*
X170089286Y-55803800D01*
X169992524Y-55924752D01*
X169944143Y-56166657D01*
X169944143Y-56589990D01*
X169992524Y-56831895D01*
X170089286Y-56952848D01*
X170186048Y-57013324D01*
X170379571Y-57013324D01*
X170476333Y-56952848D01*
X170573095Y-56831895D01*
X170621476Y-56589990D01*
X170621476Y-56166657D01*
X170573095Y-55924752D01*
X170476333Y-55803800D01*
X170379571Y-55743324D01*
X169170048Y-56348086D02*
X169508714Y-56348086D01*
X169508714Y-57013324D02*
X169508714Y-55743324D01*
X169024905Y-55743324D01*
X168299191Y-56348086D02*
X168637857Y-56348086D01*
X168637857Y-57013324D02*
X168637857Y-55743324D01*
X168154048Y-55743324D01*
X167767000Y-56892371D02*
X167718619Y-56952848D01*
X167767000Y-57013324D01*
X167815381Y-56952848D01*
X167767000Y-56892371D01*
X167767000Y-57013324D01*
X167767000Y-56227133D02*
X167718619Y-56287610D01*
X167767000Y-56348086D01*
X167815381Y-56287610D01*
X167767000Y-56227133D01*
X167767000Y-56348086D01*
X166509095Y-57013324D02*
X166509095Y-55743324D01*
X166170429Y-56650467D01*
X165831762Y-55743324D01*
X165831762Y-57013324D01*
X165347952Y-57013324D02*
X165347952Y-55743324D01*
X165106047Y-55743324D01*
X164960905Y-55803800D01*
X164864143Y-55924752D01*
X164815762Y-56045705D01*
X164767381Y-56287610D01*
X164767381Y-56469038D01*
X164815762Y-56710943D01*
X164864143Y-56831895D01*
X164960905Y-56952848D01*
X165106047Y-57013324D01*
X165347952Y-57013324D01*
X164380333Y-56650467D02*
X163896524Y-56650467D01*
X164477095Y-57013324D02*
X164138428Y-55743324D01*
X163799762Y-57013324D01*
X162541857Y-57013324D02*
X162638619Y-56952848D01*
X162687000Y-56892371D01*
X162735381Y-56771419D01*
X162735381Y-56408562D01*
X162687000Y-56287610D01*
X162638619Y-56227133D01*
X162541857Y-56166657D01*
X162396715Y-56166657D01*
X162299953Y-56227133D01*
X162251572Y-56287610D01*
X162203191Y-56408562D01*
X162203191Y-56771419D01*
X162251572Y-56892371D01*
X162299953Y-56952848D01*
X162396715Y-57013324D01*
X162541857Y-57013324D01*
X161767762Y-57013324D02*
X161767762Y-56166657D01*
X161767762Y-56408562D02*
X161719381Y-56287610D01*
X161671000Y-56227133D01*
X161574238Y-56166657D01*
X161477477Y-56166657D01*
X160364715Y-57013324D02*
X160364715Y-55743324D01*
X160364715Y-56348086D02*
X159784144Y-56348086D01*
X159784144Y-57013324D02*
X159784144Y-55743324D01*
X158913287Y-56952848D02*
X159010049Y-57013324D01*
X159203572Y-57013324D01*
X159300334Y-56952848D01*
X159348715Y-56831895D01*
X159348715Y-56348086D01*
X159300334Y-56227133D01*
X159203572Y-56166657D01*
X159010049Y-56166657D01*
X158913287Y-56227133D01*
X158864906Y-56348086D01*
X158864906Y-56469038D01*
X159348715Y-56589990D01*
X158429477Y-57013324D02*
X158429477Y-56166657D01*
X158429477Y-56408562D02*
X158381096Y-56287610D01*
X158332715Y-56227133D01*
X158235953Y-56166657D01*
X158139192Y-56166657D01*
X157365097Y-56952848D02*
X157461859Y-57013324D01*
X157655382Y-57013324D01*
X157752144Y-56952848D01*
X157800525Y-56892371D01*
X157848906Y-56771419D01*
X157848906Y-56408562D01*
X157800525Y-56287610D01*
X157752144Y-56227133D01*
X157655382Y-56166657D01*
X157461859Y-56166657D01*
X157365097Y-56227133D01*
X156494240Y-56166657D02*
X156494240Y-57013324D01*
X156929668Y-56166657D02*
X156929668Y-56831895D01*
X156881287Y-56952848D01*
X156784525Y-57013324D01*
X156639383Y-57013324D01*
X156542621Y-56952848D01*
X156494240Y-56892371D01*
X155865287Y-57013324D02*
X155962049Y-56952848D01*
X156010430Y-56831895D01*
X156010430Y-55743324D01*
X155091193Y-56952848D02*
X155187955Y-57013324D01*
X155381478Y-57013324D01*
X155478240Y-56952848D01*
X155526621Y-56831895D01*
X155526621Y-56348086D01*
X155478240Y-56227133D01*
X155381478Y-56166657D01*
X155187955Y-56166657D01*
X155091193Y-56227133D01*
X155042812Y-56348086D01*
X155042812Y-56469038D01*
X155526621Y-56589990D01*
X154655764Y-56952848D02*
X154559002Y-57013324D01*
X154365478Y-57013324D01*
X154268717Y-56952848D01*
X154220336Y-56831895D01*
X154220336Y-56771419D01*
X154268717Y-56650467D01*
X154365478Y-56589990D01*
X154510621Y-56589990D01*
X154607383Y-56529514D01*
X154655764Y-56408562D01*
X154655764Y-56348086D01*
X154607383Y-56227133D01*
X154510621Y-56166657D01*
X154365478Y-56166657D01*
X154268717Y-56227133D01*
X189393286Y-58934048D02*
X189248143Y-58994524D01*
X189006239Y-58994524D01*
X188909477Y-58934048D01*
X188861096Y-58873571D01*
X188812715Y-58752619D01*
X188812715Y-58631667D01*
X188861096Y-58510714D01*
X188909477Y-58450238D01*
X189006239Y-58389762D01*
X189199762Y-58329286D01*
X189296524Y-58268810D01*
X189344905Y-58208333D01*
X189393286Y-58087381D01*
X189393286Y-57966429D01*
X189344905Y-57845476D01*
X189296524Y-57785000D01*
X189199762Y-57724524D01*
X188957858Y-57724524D01*
X188812715Y-57785000D01*
X188474048Y-57724524D02*
X188232143Y-58994524D01*
X188038620Y-58087381D01*
X187845096Y-58994524D01*
X187603191Y-57724524D01*
X187264524Y-57845476D02*
X187216143Y-57785000D01*
X187119381Y-57724524D01*
X186877477Y-57724524D01*
X186780715Y-57785000D01*
X186732334Y-57845476D01*
X186683953Y-57966429D01*
X186683953Y-58087381D01*
X186732334Y-58268810D01*
X187312905Y-58994524D01*
X186683953Y-58994524D01*
X186248524Y-58873571D02*
X186200143Y-58934048D01*
X186248524Y-58994524D01*
X186296905Y-58934048D01*
X186248524Y-58873571D01*
X186248524Y-58994524D01*
X185232524Y-58994524D02*
X185813095Y-58994524D01*
X185522809Y-58994524D02*
X185522809Y-57724524D01*
X185619571Y-57905952D01*
X185716333Y-58026905D01*
X185813095Y-58087381D01*
X184023000Y-58329286D02*
X183248905Y-58329286D01*
X183248905Y-58692143D02*
X184023000Y-58692143D01*
X181797476Y-57724524D02*
X181603953Y-57724524D01*
X181507191Y-57785000D01*
X181410429Y-57905952D01*
X181362048Y-58147857D01*
X181362048Y-58571190D01*
X181410429Y-58813095D01*
X181507191Y-58934048D01*
X181603953Y-58994524D01*
X181797476Y-58994524D01*
X181894238Y-58934048D01*
X181991000Y-58813095D01*
X182039381Y-58571190D01*
X182039381Y-58147857D01*
X181991000Y-57905952D01*
X181894238Y-57785000D01*
X181797476Y-57724524D01*
X180926619Y-58994524D02*
X180926619Y-57724524D01*
X180346048Y-58994524D01*
X180346048Y-57724524D01*
X179813857Y-58934048D02*
X179813857Y-58994524D01*
X179862238Y-59115476D01*
X179910619Y-59175952D01*
X177878619Y-58934048D02*
X177733476Y-58994524D01*
X177491572Y-58994524D01*
X177394810Y-58934048D01*
X177346429Y-58873571D01*
X177298048Y-58752619D01*
X177298048Y-58631667D01*
X177346429Y-58510714D01*
X177394810Y-58450238D01*
X177491572Y-58389762D01*
X177685095Y-58329286D01*
X177781857Y-58268810D01*
X177830238Y-58208333D01*
X177878619Y-58087381D01*
X177878619Y-57966429D01*
X177830238Y-57845476D01*
X177781857Y-57785000D01*
X177685095Y-57724524D01*
X177443191Y-57724524D01*
X177298048Y-57785000D01*
X176959381Y-57724524D02*
X176717476Y-58994524D01*
X176523953Y-58087381D01*
X176330429Y-58994524D01*
X176088524Y-57724524D01*
X175749857Y-57845476D02*
X175701476Y-57785000D01*
X175604714Y-57724524D01*
X175362810Y-57724524D01*
X175266048Y-57785000D01*
X175217667Y-57845476D01*
X175169286Y-57966429D01*
X175169286Y-58087381D01*
X175217667Y-58268810D01*
X175798238Y-58994524D01*
X175169286Y-58994524D01*
X174733857Y-58873571D02*
X174685476Y-58934048D01*
X174733857Y-58994524D01*
X174782238Y-58934048D01*
X174733857Y-58873571D01*
X174733857Y-58994524D01*
X174298428Y-57845476D02*
X174250047Y-57785000D01*
X174153285Y-57724524D01*
X173911381Y-57724524D01*
X173814619Y-57785000D01*
X173766238Y-57845476D01*
X173717857Y-57966429D01*
X173717857Y-58087381D01*
X173766238Y-58268810D01*
X174346809Y-58994524D01*
X173717857Y-58994524D01*
X172508333Y-58329286D02*
X171734238Y-58329286D01*
X171734238Y-58692143D02*
X172508333Y-58692143D01*
X170282809Y-57724524D02*
X170089286Y-57724524D01*
X169992524Y-57785000D01*
X169895762Y-57905952D01*
X169847381Y-58147857D01*
X169847381Y-58571190D01*
X169895762Y-58813095D01*
X169992524Y-58934048D01*
X170089286Y-58994524D01*
X170282809Y-58994524D01*
X170379571Y-58934048D01*
X170476333Y-58813095D01*
X170524714Y-58571190D01*
X170524714Y-58147857D01*
X170476333Y-57905952D01*
X170379571Y-57785000D01*
X170282809Y-57724524D01*
X169073286Y-58329286D02*
X169411952Y-58329286D01*
X169411952Y-58994524D02*
X169411952Y-57724524D01*
X168928143Y-57724524D01*
X168202429Y-58329286D02*
X168541095Y-58329286D01*
X168541095Y-58994524D02*
X168541095Y-57724524D01*
X168057286Y-57724524D01*
X167670238Y-58873571D02*
X167621857Y-58934048D01*
X167670238Y-58994524D01*
X167718619Y-58934048D01*
X167670238Y-58873571D01*
X167670238Y-58994524D01*
X167670238Y-58208333D02*
X167621857Y-58268810D01*
X167670238Y-58329286D01*
X167718619Y-58268810D01*
X167670238Y-58208333D01*
X167670238Y-58329286D01*
X166267190Y-58268810D02*
X166363952Y-58208333D01*
X166412333Y-58147857D01*
X166460714Y-58026905D01*
X166460714Y-57966429D01*
X166412333Y-57845476D01*
X166363952Y-57785000D01*
X166267190Y-57724524D01*
X166073667Y-57724524D01*
X165976905Y-57785000D01*
X165928524Y-57845476D01*
X165880143Y-57966429D01*
X165880143Y-58026905D01*
X165928524Y-58147857D01*
X165976905Y-58208333D01*
X166073667Y-58268810D01*
X166267190Y-58268810D01*
X166363952Y-58329286D01*
X166412333Y-58389762D01*
X166460714Y-58510714D01*
X166460714Y-58752619D01*
X166412333Y-58873571D01*
X166363952Y-58934048D01*
X166267190Y-58994524D01*
X166073667Y-58994524D01*
X165976905Y-58934048D01*
X165928524Y-58873571D01*
X165880143Y-58752619D01*
X165880143Y-58510714D01*
X165928524Y-58389762D01*
X165976905Y-58329286D01*
X166073667Y-58268810D01*
X165251190Y-57724524D02*
X165154429Y-57724524D01*
X165057667Y-57785000D01*
X165009286Y-57845476D01*
X164960905Y-57966429D01*
X164912524Y-58208333D01*
X164912524Y-58510714D01*
X164960905Y-58752619D01*
X165009286Y-58873571D01*
X165057667Y-58934048D01*
X165154429Y-58994524D01*
X165251190Y-58994524D01*
X165347952Y-58934048D01*
X165396333Y-58873571D01*
X165444714Y-58752619D01*
X165493095Y-58510714D01*
X165493095Y-58208333D01*
X165444714Y-57966429D01*
X165396333Y-57845476D01*
X165347952Y-57785000D01*
X165251190Y-57724524D01*
X164573857Y-58994524D02*
X164041667Y-58147857D01*
X164573857Y-58147857D02*
X164041667Y-58994524D01*
X163703000Y-57845476D02*
X163654619Y-57785000D01*
X163557857Y-57724524D01*
X163315953Y-57724524D01*
X163219191Y-57785000D01*
X163170810Y-57845476D01*
X163122429Y-57966429D01*
X163122429Y-58087381D01*
X163170810Y-58268810D01*
X163751381Y-58994524D01*
X163122429Y-58994524D01*
X162203191Y-57724524D02*
X162687000Y-57724524D01*
X162735381Y-58329286D01*
X162687000Y-58268810D01*
X162590238Y-58208333D01*
X162348334Y-58208333D01*
X162251572Y-58268810D01*
X162203191Y-58329286D01*
X162154810Y-58450238D01*
X162154810Y-58752619D01*
X162203191Y-58873571D01*
X162251572Y-58934048D01*
X162348334Y-58994524D01*
X162590238Y-58994524D01*
X162687000Y-58934048D01*
X162735381Y-58873571D01*
X160364715Y-58873571D02*
X160413096Y-58934048D01*
X160558239Y-58994524D01*
X160655001Y-58994524D01*
X160800143Y-58934048D01*
X160896905Y-58813095D01*
X160945286Y-58692143D01*
X160993667Y-58450238D01*
X160993667Y-58268810D01*
X160945286Y-58026905D01*
X160896905Y-57905952D01*
X160800143Y-57785000D01*
X160655001Y-57724524D01*
X160558239Y-57724524D01*
X160413096Y-57785000D01*
X160364715Y-57845476D01*
X159397096Y-57785000D02*
X159493858Y-57724524D01*
X159639001Y-57724524D01*
X159784143Y-57785000D01*
X159880905Y-57905952D01*
X159929286Y-58026905D01*
X159977667Y-58268810D01*
X159977667Y-58450238D01*
X159929286Y-58692143D01*
X159880905Y-58813095D01*
X159784143Y-58934048D01*
X159639001Y-58994524D01*
X159542239Y-58994524D01*
X159397096Y-58934048D01*
X159348715Y-58873571D01*
X159348715Y-58450238D01*
X159542239Y-58450238D01*
X158961667Y-58631667D02*
X158477858Y-58631667D01*
X159058429Y-58994524D02*
X158719762Y-57724524D01*
X158381096Y-58994524D01*
X189393286Y-60915248D02*
X189248143Y-60975724D01*
X189006239Y-60975724D01*
X188909477Y-60915248D01*
X188861096Y-60854771D01*
X188812715Y-60733819D01*
X188812715Y-60612867D01*
X188861096Y-60491914D01*
X188909477Y-60431438D01*
X189006239Y-60370962D01*
X189199762Y-60310486D01*
X189296524Y-60250010D01*
X189344905Y-60189533D01*
X189393286Y-60068581D01*
X189393286Y-59947629D01*
X189344905Y-59826676D01*
X189296524Y-59766200D01*
X189199762Y-59705724D01*
X188957858Y-59705724D01*
X188812715Y-59766200D01*
X188474048Y-59705724D02*
X188232143Y-60975724D01*
X188038620Y-60068581D01*
X187845096Y-60975724D01*
X187603191Y-59705724D01*
X187264524Y-59826676D02*
X187216143Y-59766200D01*
X187119381Y-59705724D01*
X186877477Y-59705724D01*
X186780715Y-59766200D01*
X186732334Y-59826676D01*
X186683953Y-59947629D01*
X186683953Y-60068581D01*
X186732334Y-60250010D01*
X187312905Y-60975724D01*
X186683953Y-60975724D01*
X186248524Y-60854771D02*
X186200143Y-60915248D01*
X186248524Y-60975724D01*
X186296905Y-60915248D01*
X186248524Y-60854771D01*
X186248524Y-60975724D01*
X185232524Y-60975724D02*
X185813095Y-60975724D01*
X185522809Y-60975724D02*
X185522809Y-59705724D01*
X185619571Y-59887152D01*
X185716333Y-60008105D01*
X185813095Y-60068581D01*
X184023000Y-60310486D02*
X183248905Y-60310486D01*
X183248905Y-60673343D02*
X184023000Y-60673343D01*
X181797476Y-59705724D02*
X181603953Y-59705724D01*
X181507191Y-59766200D01*
X181410429Y-59887152D01*
X181362048Y-60129057D01*
X181362048Y-60552390D01*
X181410429Y-60794295D01*
X181507191Y-60915248D01*
X181603953Y-60975724D01*
X181797476Y-60975724D01*
X181894238Y-60915248D01*
X181991000Y-60794295D01*
X182039381Y-60552390D01*
X182039381Y-60129057D01*
X181991000Y-59887152D01*
X181894238Y-59766200D01*
X181797476Y-59705724D01*
X180587953Y-60310486D02*
X180926619Y-60310486D01*
X180926619Y-60975724D02*
X180926619Y-59705724D01*
X180442810Y-59705724D01*
X179717096Y-60310486D02*
X180055762Y-60310486D01*
X180055762Y-60975724D02*
X180055762Y-59705724D01*
X179571953Y-59705724D01*
X179136524Y-60915248D02*
X179136524Y-60975724D01*
X179184905Y-61096676D01*
X179233286Y-61157152D01*
X177975381Y-60915248D02*
X177830238Y-60975724D01*
X177588334Y-60975724D01*
X177491572Y-60915248D01*
X177443191Y-60854771D01*
X177394810Y-60733819D01*
X177394810Y-60612867D01*
X177443191Y-60491914D01*
X177491572Y-60431438D01*
X177588334Y-60370962D01*
X177781857Y-60310486D01*
X177878619Y-60250010D01*
X177927000Y-60189533D01*
X177975381Y-60068581D01*
X177975381Y-59947629D01*
X177927000Y-59826676D01*
X177878619Y-59766200D01*
X177781857Y-59705724D01*
X177539953Y-59705724D01*
X177394810Y-59766200D01*
X177056143Y-59705724D02*
X176814238Y-60975724D01*
X176620715Y-60068581D01*
X176427191Y-60975724D01*
X176185286Y-59705724D01*
X175846619Y-59826676D02*
X175798238Y-59766200D01*
X175701476Y-59705724D01*
X175459572Y-59705724D01*
X175362810Y-59766200D01*
X175314429Y-59826676D01*
X175266048Y-59947629D01*
X175266048Y-60068581D01*
X175314429Y-60250010D01*
X175895000Y-60975724D01*
X175266048Y-60975724D01*
X174830619Y-60854771D02*
X174782238Y-60915248D01*
X174830619Y-60975724D01*
X174879000Y-60915248D01*
X174830619Y-60854771D01*
X174830619Y-60975724D01*
X174395190Y-59826676D02*
X174346809Y-59766200D01*
X174250047Y-59705724D01*
X174008143Y-59705724D01*
X173911381Y-59766200D01*
X173863000Y-59826676D01*
X173814619Y-59947629D01*
X173814619Y-60068581D01*
X173863000Y-60250010D01*
X174443571Y-60975724D01*
X173814619Y-60975724D01*
X172605095Y-60310486D02*
X171831000Y-60310486D01*
X171831000Y-60673343D02*
X172605095Y-60673343D01*
X170379571Y-59705724D02*
X170186048Y-59705724D01*
X170089286Y-59766200D01*
X169992524Y-59887152D01*
X169944143Y-60129057D01*
X169944143Y-60552390D01*
X169992524Y-60794295D01*
X170089286Y-60915248D01*
X170186048Y-60975724D01*
X170379571Y-60975724D01*
X170476333Y-60915248D01*
X170573095Y-60794295D01*
X170621476Y-60552390D01*
X170621476Y-60129057D01*
X170573095Y-59887152D01*
X170476333Y-59766200D01*
X170379571Y-59705724D01*
X169508714Y-60975724D02*
X169508714Y-59705724D01*
X168928143Y-60975724D01*
X168928143Y-59705724D01*
X168444333Y-60854771D02*
X168395952Y-60915248D01*
X168444333Y-60975724D01*
X168492714Y-60915248D01*
X168444333Y-60854771D01*
X168444333Y-60975724D01*
X168444333Y-60189533D02*
X168395952Y-60250010D01*
X168444333Y-60310486D01*
X168492714Y-60250010D01*
X168444333Y-60189533D01*
X168444333Y-60310486D01*
X165976905Y-60129057D02*
X165976905Y-60975724D01*
X166218809Y-59645248D02*
X166460714Y-60552390D01*
X165831762Y-60552390D01*
X165251190Y-59705724D02*
X165154429Y-59705724D01*
X165057667Y-59766200D01*
X165009286Y-59826676D01*
X164960905Y-59947629D01*
X164912524Y-60189533D01*
X164912524Y-60491914D01*
X164960905Y-60733819D01*
X165009286Y-60854771D01*
X165057667Y-60915248D01*
X165154429Y-60975724D01*
X165251190Y-60975724D01*
X165347952Y-60915248D01*
X165396333Y-60854771D01*
X165444714Y-60733819D01*
X165493095Y-60491914D01*
X165493095Y-60189533D01*
X165444714Y-59947629D01*
X165396333Y-59826676D01*
X165347952Y-59766200D01*
X165251190Y-59705724D01*
X164573857Y-60975724D02*
X164041667Y-60129057D01*
X164573857Y-60129057D02*
X164041667Y-60975724D01*
X163703000Y-59826676D02*
X163654619Y-59766200D01*
X163557857Y-59705724D01*
X163315953Y-59705724D01*
X163219191Y-59766200D01*
X163170810Y-59826676D01*
X163122429Y-59947629D01*
X163122429Y-60068581D01*
X163170810Y-60250010D01*
X163751381Y-60975724D01*
X163122429Y-60975724D01*
X162203191Y-59705724D02*
X162687000Y-59705724D01*
X162735381Y-60310486D01*
X162687000Y-60250010D01*
X162590238Y-60189533D01*
X162348334Y-60189533D01*
X162251572Y-60250010D01*
X162203191Y-60310486D01*
X162154810Y-60431438D01*
X162154810Y-60733819D01*
X162203191Y-60854771D01*
X162251572Y-60915248D01*
X162348334Y-60975724D01*
X162590238Y-60975724D01*
X162687000Y-60915248D01*
X162735381Y-60854771D01*
X160364715Y-60854771D02*
X160413096Y-60915248D01*
X160558239Y-60975724D01*
X160655001Y-60975724D01*
X160800143Y-60915248D01*
X160896905Y-60794295D01*
X160945286Y-60673343D01*
X160993667Y-60431438D01*
X160993667Y-60250010D01*
X160945286Y-60008105D01*
X160896905Y-59887152D01*
X160800143Y-59766200D01*
X160655001Y-59705724D01*
X160558239Y-59705724D01*
X160413096Y-59766200D01*
X160364715Y-59826676D01*
X159397096Y-59766200D02*
X159493858Y-59705724D01*
X159639001Y-59705724D01*
X159784143Y-59766200D01*
X159880905Y-59887152D01*
X159929286Y-60008105D01*
X159977667Y-60250010D01*
X159977667Y-60431438D01*
X159929286Y-60673343D01*
X159880905Y-60794295D01*
X159784143Y-60915248D01*
X159639001Y-60975724D01*
X159542239Y-60975724D01*
X159397096Y-60915248D01*
X159348715Y-60854771D01*
X159348715Y-60431438D01*
X159542239Y-60431438D01*
X158961667Y-60612867D02*
X158477858Y-60612867D01*
X159058429Y-60975724D02*
X158719762Y-59705724D01*
X158381096Y-60975724D01*
X189393286Y-62896448D02*
X189248143Y-62956924D01*
X189006239Y-62956924D01*
X188909477Y-62896448D01*
X188861096Y-62835971D01*
X188812715Y-62715019D01*
X188812715Y-62594067D01*
X188861096Y-62473114D01*
X188909477Y-62412638D01*
X189006239Y-62352162D01*
X189199762Y-62291686D01*
X189296524Y-62231210D01*
X189344905Y-62170733D01*
X189393286Y-62049781D01*
X189393286Y-61928829D01*
X189344905Y-61807876D01*
X189296524Y-61747400D01*
X189199762Y-61686924D01*
X188957858Y-61686924D01*
X188812715Y-61747400D01*
X188474048Y-61686924D02*
X188232143Y-62956924D01*
X188038620Y-62049781D01*
X187845096Y-62956924D01*
X187603191Y-61686924D01*
X187264524Y-61807876D02*
X187216143Y-61747400D01*
X187119381Y-61686924D01*
X186877477Y-61686924D01*
X186780715Y-61747400D01*
X186732334Y-61807876D01*
X186683953Y-61928829D01*
X186683953Y-62049781D01*
X186732334Y-62231210D01*
X187312905Y-62956924D01*
X186683953Y-62956924D01*
X186248524Y-62835971D02*
X186200143Y-62896448D01*
X186248524Y-62956924D01*
X186296905Y-62896448D01*
X186248524Y-62835971D01*
X186248524Y-62956924D01*
X185232524Y-62956924D02*
X185813095Y-62956924D01*
X185522809Y-62956924D02*
X185522809Y-61686924D01*
X185619571Y-61868352D01*
X185716333Y-61989305D01*
X185813095Y-62049781D01*
X184023000Y-62291686D02*
X183248905Y-62291686D01*
X183248905Y-62654543D02*
X184023000Y-62654543D01*
X181797476Y-61686924D02*
X181603953Y-61686924D01*
X181507191Y-61747400D01*
X181410429Y-61868352D01*
X181362048Y-62110257D01*
X181362048Y-62533590D01*
X181410429Y-62775495D01*
X181507191Y-62896448D01*
X181603953Y-62956924D01*
X181797476Y-62956924D01*
X181894238Y-62896448D01*
X181991000Y-62775495D01*
X182039381Y-62533590D01*
X182039381Y-62110257D01*
X181991000Y-61868352D01*
X181894238Y-61747400D01*
X181797476Y-61686924D01*
X180926619Y-62956924D02*
X180926619Y-61686924D01*
X180346048Y-62956924D01*
X180346048Y-61686924D01*
X179813857Y-62896448D02*
X179813857Y-62956924D01*
X179862238Y-63077876D01*
X179910619Y-63138352D01*
X177878619Y-62896448D02*
X177733476Y-62956924D01*
X177491572Y-62956924D01*
X177394810Y-62896448D01*
X177346429Y-62835971D01*
X177298048Y-62715019D01*
X177298048Y-62594067D01*
X177346429Y-62473114D01*
X177394810Y-62412638D01*
X177491572Y-62352162D01*
X177685095Y-62291686D01*
X177781857Y-62231210D01*
X177830238Y-62170733D01*
X177878619Y-62049781D01*
X177878619Y-61928829D01*
X177830238Y-61807876D01*
X177781857Y-61747400D01*
X177685095Y-61686924D01*
X177443191Y-61686924D01*
X177298048Y-61747400D01*
X176959381Y-61686924D02*
X176717476Y-62956924D01*
X176523953Y-62049781D01*
X176330429Y-62956924D01*
X176088524Y-61686924D01*
X175749857Y-61807876D02*
X175701476Y-61747400D01*
X175604714Y-61686924D01*
X175362810Y-61686924D01*
X175266048Y-61747400D01*
X175217667Y-61807876D01*
X175169286Y-61928829D01*
X175169286Y-62049781D01*
X175217667Y-62231210D01*
X175798238Y-62956924D01*
X175169286Y-62956924D01*
X174733857Y-62835971D02*
X174685476Y-62896448D01*
X174733857Y-62956924D01*
X174782238Y-62896448D01*
X174733857Y-62835971D01*
X174733857Y-62956924D01*
X174298428Y-61807876D02*
X174250047Y-61747400D01*
X174153285Y-61686924D01*
X173911381Y-61686924D01*
X173814619Y-61747400D01*
X173766238Y-61807876D01*
X173717857Y-61928829D01*
X173717857Y-62049781D01*
X173766238Y-62231210D01*
X174346809Y-62956924D01*
X173717857Y-62956924D01*
X172508333Y-62291686D02*
X171734238Y-62291686D01*
X171734238Y-62654543D02*
X172508333Y-62654543D01*
X170282809Y-61686924D02*
X170089286Y-61686924D01*
X169992524Y-61747400D01*
X169895762Y-61868352D01*
X169847381Y-62110257D01*
X169847381Y-62533590D01*
X169895762Y-62775495D01*
X169992524Y-62896448D01*
X170089286Y-62956924D01*
X170282809Y-62956924D01*
X170379571Y-62896448D01*
X170476333Y-62775495D01*
X170524714Y-62533590D01*
X170524714Y-62110257D01*
X170476333Y-61868352D01*
X170379571Y-61747400D01*
X170282809Y-61686924D01*
X169411952Y-62956924D02*
X169411952Y-61686924D01*
X168831381Y-62956924D01*
X168831381Y-61686924D01*
X168347571Y-62835971D02*
X168299190Y-62896448D01*
X168347571Y-62956924D01*
X168395952Y-62896448D01*
X168347571Y-62835971D01*
X168347571Y-62956924D01*
X168347571Y-62170733D02*
X168299190Y-62231210D01*
X168347571Y-62291686D01*
X168395952Y-62231210D01*
X168347571Y-62170733D01*
X168347571Y-62291686D01*
X166315571Y-62956924D02*
X166315571Y-61686924D01*
X165735000Y-62956924D01*
X165735000Y-61686924D01*
X165106047Y-62956924D02*
X165202809Y-62896448D01*
X165251190Y-62835971D01*
X165299571Y-62715019D01*
X165299571Y-62352162D01*
X165251190Y-62231210D01*
X165202809Y-62170733D01*
X165106047Y-62110257D01*
X164960905Y-62110257D01*
X164864143Y-62170733D01*
X164815762Y-62231210D01*
X164767381Y-62352162D01*
X164767381Y-62715019D01*
X164815762Y-62835971D01*
X164864143Y-62896448D01*
X164960905Y-62956924D01*
X165106047Y-62956924D01*
X164331952Y-62110257D02*
X164331952Y-62956924D01*
X164331952Y-62231210D02*
X164283571Y-62170733D01*
X164186809Y-62110257D01*
X164041667Y-62110257D01*
X163944905Y-62170733D01*
X163896524Y-62291686D01*
X163896524Y-62956924D01*
X163025667Y-62896448D02*
X163122429Y-62956924D01*
X163315952Y-62956924D01*
X163412714Y-62896448D01*
X163461095Y-62775495D01*
X163461095Y-62291686D01*
X163412714Y-62170733D01*
X163315952Y-62110257D01*
X163122429Y-62110257D01*
X163025667Y-62170733D01*
X162977286Y-62291686D01*
X162977286Y-62412638D01*
X163461095Y-62533590D01*
X162493476Y-62896448D02*
X162493476Y-62956924D01*
X162541857Y-63077876D01*
X162590238Y-63138352D01*
X161283952Y-62291686D02*
X160945286Y-62291686D01*
X160800143Y-62956924D02*
X161283952Y-62956924D01*
X161283952Y-61686924D01*
X160800143Y-61686924D01*
X159832524Y-61747400D02*
X159929286Y-61686924D01*
X160074429Y-61686924D01*
X160219571Y-61747400D01*
X160316333Y-61868352D01*
X160364714Y-61989305D01*
X160413095Y-62231210D01*
X160413095Y-62412638D01*
X160364714Y-62654543D01*
X160316333Y-62775495D01*
X160219571Y-62896448D01*
X160074429Y-62956924D01*
X159977667Y-62956924D01*
X159832524Y-62896448D01*
X159784143Y-62835971D01*
X159784143Y-62412638D01*
X159977667Y-62412638D01*
X159397095Y-62594067D02*
X158913286Y-62594067D01*
X159493857Y-62956924D02*
X159155190Y-61686924D01*
X158816524Y-62956924D01*
X157558619Y-62956924D02*
X157655381Y-62896448D01*
X157703762Y-62835971D01*
X157752143Y-62715019D01*
X157752143Y-62352162D01*
X157703762Y-62231210D01*
X157655381Y-62170733D01*
X157558619Y-62110257D01*
X157413477Y-62110257D01*
X157316715Y-62170733D01*
X157268334Y-62231210D01*
X157219953Y-62352162D01*
X157219953Y-62715019D01*
X157268334Y-62835971D01*
X157316715Y-62896448D01*
X157413477Y-62956924D01*
X157558619Y-62956924D01*
X156784524Y-62956924D02*
X156784524Y-62110257D01*
X156784524Y-62352162D02*
X156736143Y-62231210D01*
X156687762Y-62170733D01*
X156591000Y-62110257D01*
X156494239Y-62110257D01*
X155526620Y-61686924D02*
X155187953Y-62956924D01*
X154849287Y-61686924D01*
X153978430Y-61747400D02*
X154075192Y-61686924D01*
X154220335Y-61686924D01*
X154365477Y-61747400D01*
X154462239Y-61868352D01*
X154510620Y-61989305D01*
X154559001Y-62231210D01*
X154559001Y-62412638D01*
X154510620Y-62654543D01*
X154462239Y-62775495D01*
X154365477Y-62896448D01*
X154220335Y-62956924D01*
X154123573Y-62956924D01*
X153978430Y-62896448D01*
X153930049Y-62835971D01*
X153930049Y-62412638D01*
X154123573Y-62412638D01*
X153543001Y-62594067D02*
X153059192Y-62594067D01*
X153639763Y-62956924D02*
X153301096Y-61686924D01*
X152962430Y-62956924D01*
M02*
