M48
;DRILL file {KiCad 4.0.7} date 09/20/18 09:46:43
;FORMAT={-:-/ absolute / inch / decimal}
FMAT,2
INCH,TZ
T1C0.025
T2C0.032
T3C0.035
T4C0.039
T5C0.040
T6C0.051
T7C0.059
T8C0.090
T9C0.120
%
G90
G05
M72
T1
X2.375Y-2.9625
X2.7Y-3.425
X2.85Y-5.25
X2.925Y-2.7
X3.Y-3.375
X3.0875Y-2.5875
X3.1Y-3.375
X3.1375Y-2.6875
X3.15Y-2.5875
X3.2Y-3.375
X3.2625Y-5.3625
X3.35Y-3.375
X3.3875Y-5.3875
X3.425Y-2.65
X3.425Y-2.7
X3.45Y-3.325
X3.475Y-2.7
X3.5125Y-5.4125
X3.525Y-3.275
X3.5375Y-2.6875
X3.6125Y-5.4375
X3.65Y-1.95
X3.65Y-3.425
X3.7Y-3.2
X3.75Y-3.1
X3.75Y-3.525
X3.7625Y-5.4625
X3.8375Y-2.6875
X3.8875Y-5.4875
X3.9Y-3.2
X3.9125Y-2.6875
X3.95Y-3.1875
X3.95Y-4.
X4.Y-2.425
X4.Y-3.1875
X4.0125Y-5.5125
X4.05Y-3.1875
X4.05Y-4.375
X4.0625Y-2.6625
X4.1Y-3.1875
X4.15Y-3.1875
X4.15Y-4.
X4.15Y-5.5375
X4.1625Y-4.675
X4.1625Y-4.725
X4.2Y-5.1
X4.225Y-5.025
X4.3Y-4.7625
X4.3Y-4.9
X4.35Y-3.6125
X4.3875Y-4.8
X4.425Y-2.15
X4.4625Y-2.8625
X4.525Y-4.8625
X4.55Y-3.6125
X4.55Y-4.55
X4.6Y-3.2
X4.65Y-4.45
X4.7375Y-4.6375
X4.85Y-5.275
X5.0125Y-4.6375
X5.3125Y-4.9125
X5.475Y-2.9
X5.4875Y-4.
X5.525Y-3.5625
X5.5375Y-3.4
X5.5875Y-5.3375
X5.6Y-3.4625
X5.6125Y-4.425
X5.625Y-5.275
X5.65Y-3.4625
X5.65Y-3.95
X5.6875Y-5.3625
X5.7062Y-4.3312
X5.7125Y-4.6625
X5.7375Y-3.025
X5.775Y-2.9875
X5.775Y-3.0875
X5.8125Y-3.125
X5.8125Y-4.8875
X5.8125Y-5.3875
X5.85Y-3.575
X5.975Y-4.85
X6.05Y-3.775
X6.0625Y-3.6375
X6.0625Y-4.5125
X6.0625Y-4.5625
X6.075Y-5.1875
X6.1Y-3.575
X6.1375Y-4.5375
X6.1375Y-4.6875
X6.175Y-3.55
X6.175Y-4.65
X6.1875Y-5.1375
X6.225Y-4.
X6.25Y-3.575
X6.25Y-4.575
X6.2625Y-4.25
X6.2625Y-4.425
X6.2625Y-4.6625
X6.3375Y-4.1
X6.35Y-2.25
X6.4Y-4.
X6.4Y-4.25
X6.4Y-4.425
X6.4Y-4.55
X6.45Y-3.125
X6.45Y-3.95
X6.5Y-3.95
X6.5125Y-5.4125
X6.5125Y-5.4625
X6.55Y-3.125
X6.6Y-2.1
X6.65Y-3.425
X6.6625Y-2.25
X6.7Y-4.
X6.7Y-4.25
X6.7Y-4.425
X6.7Y-4.55
X6.7Y-4.725
X6.85Y-4.725
X6.9Y-4.975
X6.9125Y-5.3875
X6.9125Y-5.4375
X7.0625Y-5.1875
X7.075Y-4.95
X7.1125Y-3.8
X7.15Y-4.2
X7.1625Y-4.3
X7.1625Y-4.75
X7.2Y-5.225
X7.25Y-2.525
X7.25Y-3.125
X7.3Y-2.1
X7.3Y-4.4
X7.35Y-2.525
X7.75Y-2.7625
X7.7625Y-3.2375
X7.8Y-3.175
T2
X2.4Y-2.
X2.4Y-2.3
X2.4Y-2.4
X2.425Y-3.
X2.425Y-3.2
X2.425Y-3.8
X2.425Y-4.
X2.425Y-4.6
X2.425Y-4.8
X2.425Y-5.2125
X2.425Y-5.4125
X2.5Y-2.
X2.5Y-2.3
X2.5Y-2.4
X2.572Y-2.7
X2.6Y-2.
X2.6Y-2.3
X2.6Y-2.4
X2.6Y-3.
X2.6Y-3.6
X2.6Y-3.8
X2.6Y-4.4
X2.6Y-4.6
X2.6Y-5.2
X2.7Y-2.
X2.7Y-2.3
X2.7Y-2.4
X2.7Y-3.
X2.7Y-3.6
X2.7Y-3.7
X2.7Y-3.8
X2.7Y-4.4
X2.7Y-4.6
X2.7Y-5.2
X2.8Y-2.
X2.8Y-2.3
X2.8Y-2.4
X2.8Y-3.
X2.8Y-3.6
X2.8Y-3.8
X2.8Y-4.4
X2.8Y-4.6
X2.8Y-5.2
X2.828Y-2.7
X2.9Y-2.4
X2.9Y-3.
X2.9Y-3.6
X2.9Y-3.8
X2.9Y-4.4
X2.9Y-4.6
X2.9Y-5.2
X2.95Y-2.8
X3.Y-2.
X3.Y-2.2
X3.Y-2.5
X3.Y-2.7
X3.Y-3.
X3.Y-3.6
X3.Y-3.7
X3.Y-3.8
X3.Y-4.4
X3.Y-4.6
X3.Y-5.2
X3.1Y-2.5
X3.1Y-3.
X3.1Y-3.6
X3.1Y-3.8
X3.1Y-4.4
X3.1Y-4.6
X3.1Y-5.2
X3.2Y-2.
X3.2Y-2.3
X3.2Y-2.5
X3.2Y-2.7
X3.2Y-3.
X3.2Y-3.6
X3.2Y-3.8
X3.2Y-4.4
X3.2Y-4.6
X3.2Y-5.2
X3.25Y-2.8
X3.3Y-2.
X3.3Y-2.3
X3.3Y-2.5
X3.3Y-2.7
X3.3Y-3.
X3.3Y-3.6
X3.3Y-3.8
X3.3Y-4.4
X3.3Y-4.6
X3.3Y-5.2
X3.4Y-2.
X3.4Y-2.3
X3.4Y-3.
X3.4Y-3.6
X3.4Y-3.8
X3.4Y-4.4
X3.4Y-4.6
X3.4Y-5.2
X3.5Y-2.
X3.5Y-2.3
X3.5Y-2.4
X3.5Y-2.5
X3.5Y-2.8
X3.5Y-3.
X3.5Y-3.6
X3.5Y-3.8
X3.5Y-4.4
X3.5Y-4.6
X3.5Y-5.2
X3.6Y-2.
X3.6Y-2.3
X3.6Y-2.5
X3.6Y-2.8
X3.6Y-3.
X3.6Y-3.6
X3.6Y-3.8
X3.6Y-4.4
X3.6Y-4.6
X3.6Y-5.2
X3.7Y-2.
X3.7Y-2.3
X3.7Y-2.5
X3.7Y-2.8
X3.7Y-3.
X3.7Y-3.6
X3.7Y-3.8
X3.7Y-4.4
X3.7Y-4.6
X3.7Y-5.2
X3.8Y-2.
X3.8Y-2.3
X3.8Y-2.4
X3.8Y-2.5
X3.8Y-2.8
X3.8Y-3.
X3.8Y-3.6
X3.8Y-3.8
X3.8Y-4.4
X3.8Y-4.6
X3.8Y-5.2
X3.9Y-2.
X3.9Y-2.3
X3.9Y-2.5
X3.9Y-2.8
X3.9Y-3.
X3.9Y-3.6
X3.9Y-3.8
X3.9Y-4.4
X3.9Y-4.6
X3.9Y-5.2
X4.Y-2.
X4.Y-2.3
X4.Y-2.5
X4.Y-2.8
X4.Y-3.
X4.Y-3.6
X4.Y-3.8
X4.Y-4.4
X4.Y-4.6
X4.Y-5.2
X4.1Y-2.
X4.1Y-2.3
X4.1Y-2.5
X4.1Y-2.8
X4.1Y-3.
X4.1Y-3.6
X4.1Y-3.8
X4.1Y-4.4
X4.1Y-4.6
X4.1Y-5.2
X4.3Y-2.
X4.3Y-2.2
X4.3Y-2.5
X4.3Y-2.7
X4.3Y-3.
X4.3Y-3.2
X4.3Y-3.5
X4.3Y-3.7
X4.3Y-4.
X4.3Y-4.2
X4.3Y-4.5
X4.3Y-4.7
X4.3Y-5.
X4.3Y-5.2
X4.4Y-4.9
X4.5Y-2.
X4.5Y-2.3
X4.5Y-2.5
X4.5Y-2.8
X4.5Y-3.
X4.5Y-3.3
X4.5Y-3.5
X4.5Y-3.8
X4.5Y-4.
X4.5Y-4.3
X4.5Y-4.5
X4.5Y-4.8
X4.5Y-5.
X4.5Y-5.3
X4.6Y-2.
X4.6Y-2.3
X4.6Y-2.5
X4.6Y-2.8
X4.6Y-3.
X4.6Y-3.3
X4.6Y-3.5
X4.6Y-3.8
X4.6Y-4.
X4.6Y-4.3
X4.6Y-4.5
X4.6Y-4.8
X4.6Y-5.
X4.6Y-5.3
X4.7Y-2.
X4.7Y-2.3
X4.7Y-2.5
X4.7Y-2.8
X4.7Y-3.
X4.7Y-3.3
X4.7Y-3.5
X4.7Y-3.8
X4.7Y-4.
X4.7Y-4.3
X4.7Y-4.5
X4.7Y-4.8
X4.7Y-4.9
X4.7Y-5.
X4.7Y-5.3
X4.8Y-2.
X4.8Y-2.3
X4.8Y-2.5
X4.8Y-2.8
X4.8Y-3.
X4.8Y-3.3
X4.8Y-3.5
X4.8Y-3.8
X4.8Y-4.
X4.8Y-4.3
X4.8Y-4.5
X4.8Y-4.8
X4.8Y-4.9
X4.8Y-5.
X4.8Y-5.3
X4.9Y-2.
X4.9Y-2.3
X4.9Y-2.5
X4.9Y-2.8
X4.9Y-3.
X4.9Y-3.3
X4.9Y-3.5
X4.9Y-3.8
X4.9Y-4.
X4.9Y-4.3
X4.9Y-4.5
X4.9Y-4.8
X4.9Y-5.
X4.9Y-5.3
X5.Y-2.
X5.Y-2.3
X5.Y-2.5
X5.Y-2.8
X5.Y-3.
X5.Y-3.3
X5.Y-3.5
X5.Y-3.8
X5.Y-4.
X5.Y-4.3
X5.Y-4.5
X5.Y-4.8
X5.Y-5.
X5.Y-5.3
X5.1Y-2.
X5.1Y-2.3
X5.1Y-2.5
X5.1Y-2.8
X5.1Y-3.
X5.1Y-3.3
X5.1Y-3.5
X5.1Y-3.8
X5.1Y-4.
X5.1Y-4.3
X5.1Y-4.5
X5.1Y-4.8
X5.1Y-4.9
X5.1Y-5.
X5.1Y-5.3
X5.2Y-2.
X5.2Y-2.3
X5.2Y-2.5
X5.2Y-2.8
X5.2Y-3.
X5.2Y-3.3
X5.2Y-3.5
X5.2Y-3.8
X5.2Y-4.
X5.2Y-4.3
X5.2Y-4.5
X5.2Y-4.8
X5.2Y-5.
X5.2Y-5.3
X5.3Y-2.
X5.3Y-2.3
X5.3Y-2.5
X5.3Y-2.8
X5.3Y-3.
X5.3Y-3.3
X5.3Y-3.5
X5.3Y-3.8
X5.3Y-4.
X5.3Y-4.3
X5.3Y-4.5
X5.3Y-4.8
X5.3Y-5.
X5.3Y-5.3
X5.4Y-2.
X5.4Y-2.3
X5.4Y-2.5
X5.4Y-2.8
X5.4Y-3.
X5.4Y-3.3
X5.4Y-3.5
X5.4Y-3.8
X5.4Y-4.
X5.4Y-4.3
X5.4Y-4.5
X5.4Y-4.8
X5.4Y-5.
X5.4Y-5.3
X5.6Y-2.
X5.6Y-2.2
X5.6Y-2.5
X5.6Y-2.7
X5.6Y-2.8
X5.6Y-3.
X5.8Y-2.
X5.8Y-2.6
X5.8Y-2.8
X5.8Y-3.4
X5.8Y-3.8
X5.8Y-3.9
X5.8Y-4.
X5.8Y-4.1
X5.8Y-4.2
X5.8Y-4.3
X5.8Y-4.4
X5.8Y-4.5
X5.8Y-4.6
X5.8Y-4.7
X5.8Y-4.8
X5.8Y-5.3
X5.9Y-2.
X5.9Y-2.6
X5.9Y-2.8
X5.9Y-3.4
X5.9Y-3.7
X5.9Y-3.8
X5.9Y-3.9
X5.9Y-4.
X5.9Y-4.1
X5.9Y-4.2
X5.9Y-4.3
X5.9Y-4.4
X5.9Y-4.5
X5.9Y-4.6
X5.9Y-4.7
X5.9Y-4.8
X5.9Y-4.9
X5.9Y-5.3
X6.Y-2.
X6.Y-2.6
X6.Y-2.8
X6.Y-3.4
X6.Y-3.7
X6.Y-3.8
X6.Y-4.8
X6.Y-4.9
X6.Y-5.3
X6.1Y-2.
X6.1Y-2.6
X6.1Y-2.8
X6.1Y-3.4
X6.1Y-3.7
X6.1Y-3.8
X6.1Y-4.8
X6.1Y-4.9
X6.1Y-5.3
X6.2Y-2.
X6.2Y-2.6
X6.2Y-2.8
X6.2Y-3.4
X6.2Y-3.7
X6.2Y-3.8
X6.2Y-4.8
X6.2Y-4.9
X6.2Y-5.3
X6.3Y-2.
X6.3Y-2.6
X6.3Y-2.8
X6.3Y-3.4
X6.3Y-3.7
X6.3Y-3.8
X6.3Y-4.8
X6.3Y-4.9
X6.3Y-5.3
X6.4Y-2.
X6.4Y-2.6
X6.4Y-2.8
X6.4Y-3.4
X6.4Y-3.5
X6.4Y-3.7
X6.4Y-3.8
X6.4Y-4.8
X6.4Y-4.9
X6.4Y-5.1
X6.4Y-5.3
X6.5Y-2.
X6.5Y-2.6
X6.5Y-2.8
X6.5Y-3.4
X6.5Y-3.7
X6.5Y-3.8
X6.5Y-4.8
X6.5Y-4.9
X6.5Y-5.3
X6.6Y-2.
X6.6Y-2.6
X6.6Y-2.7
X6.6Y-2.8
X6.6Y-3.4
X6.6Y-3.5
X6.6Y-3.7
X6.6Y-3.8
X6.6Y-4.8
X6.6Y-4.9
X6.6Y-5.1
X6.6Y-5.3
X6.7Y-2.
X6.7Y-2.6
X6.7Y-2.7
X6.7Y-2.8
X6.7Y-3.4
X6.7Y-3.7
X6.7Y-3.8
X6.7Y-4.8
X6.7Y-4.9
X6.7Y-5.3
X6.8Y-2.
X6.8Y-2.6
X6.8Y-2.7
X6.8Y-2.8
X6.8Y-3.4
X6.8Y-3.7
X6.8Y-3.8
X6.8Y-4.8
X6.8Y-4.9
X6.8Y-5.3
X6.9Y-2.
X6.9Y-2.6
X6.9Y-2.7
X6.9Y-2.8
X6.9Y-3.4
X6.9Y-3.7
X6.9Y-3.8
X6.9Y-3.9
X6.9Y-4.
X6.9Y-4.1
X6.9Y-4.2
X6.9Y-4.3
X6.9Y-4.4
X6.9Y-4.5
X6.9Y-4.6
X6.9Y-4.7
X6.9Y-4.8
X6.9Y-4.9
X6.9Y-5.3
X7.Y-2.
X7.Y-2.6
X7.Y-2.7
X7.Y-2.8
X7.Y-3.4
X7.Y-3.8
X7.Y-3.9
X7.Y-4.
X7.Y-4.1
X7.Y-4.2
X7.Y-4.3
X7.Y-4.4
X7.Y-4.5
X7.Y-4.6
X7.Y-4.7
X7.Y-4.8
X7.Y-5.3
X7.1Y-2.
X7.1Y-2.6
X7.1Y-2.7
X7.1Y-2.8
X7.1Y-3.4
X7.1Y-5.3
X7.2Y-2.
X7.2Y-2.6
X7.2Y-2.7
X7.2Y-2.8
X7.2Y-3.4
X7.2Y-5.3
X7.3Y-2.
X7.3Y-2.6
X7.3Y-2.7
X7.3Y-2.8
X7.3Y-3.4
X7.3Y-3.8
X7.3Y-4.
X7.3Y-4.3039
X7.3Y-4.4961
X7.3Y-5.3
X7.4Y-2.
X7.4Y-2.6
X7.4Y-2.7
X7.4Y-2.8
X7.4Y-3.4
X7.5Y-2.
X7.5Y-2.6
X7.5Y-2.7
X7.5Y-2.8
X7.5Y-3.4
X7.5Y-3.7
X7.5Y-3.8
X7.5Y-4.1
X7.5Y-4.2
X7.5Y-4.3
X7.5Y-4.6
X7.5Y-5.
X7.5Y-5.3
X7.6Y-2.
X7.6Y-2.6
X7.6Y-2.8
X7.6Y-3.4
X7.6Y-3.8
X7.6Y-4.1
X7.6Y-4.2
X7.6Y-4.3
X7.6Y-4.5
X7.6Y-5.
X7.6Y-5.3
X7.7Y-2.
X7.7Y-2.6
X7.7Y-2.8
X7.7Y-3.4
X7.7Y-3.8
X7.7Y-4.1
X7.7Y-4.2
X7.7Y-5.
X7.7Y-5.3
X7.8Y-3.7
X7.8Y-3.8
X7.8Y-4.1
X7.8Y-4.2
X7.875Y-5.1
X7.9Y-4.2
X8.Y-2.3
X8.Y-2.6
X8.Y-4.2
X8.05Y-3.45
X8.05Y-3.55
X8.075Y-5.1
X8.1Y-2.0125
X8.1Y-2.2125
X8.1Y-2.3
X8.1Y-2.6
T3
X7.8669Y-4.4681
X7.8669Y-4.7319
X7.965Y-4.4681
X7.965Y-4.5488
X7.965Y-4.6512
X7.965Y-4.7319
T4
X8.1484Y-3.8115
X8.1484Y-3.9887
T5
X2.4Y-2.55
X2.4Y-2.65
X2.4Y-2.75
X2.4Y-2.85
X2.425Y-3.55
X2.425Y-3.65
X5.5875Y-3.6
X5.5875Y-3.7
X5.5875Y-3.8
X5.5875Y-3.9
X7.6Y-4.75
X7.6Y-4.85
X8.Y-2.8125
X8.1Y-2.8125
T6
X7.25Y-4.8
X7.45Y-4.8
T7
X8.05Y-3.7623
X8.05Y-4.0379
T8
X8.0831Y-4.3339
X8.0831Y-4.8661
X8.115Y-4.6
T9
X8.115Y-3.2
X8.115Y-5.425
T0
M30
