G04 #@! TF.FileFunction,Soldermask,Bot*
%FSLAX46Y46*%
G04 Gerber Fmt 4.6, Leading zero omitted, Abs format (unit mm)*
G04 Created by KiCad (PCBNEW 4.0.1-stable) date 1/11/2018 1:11:40 PM*
%MOMM*%
G01*
G04 APERTURE LIST*
%ADD10C,0.150000*%
%ADD11R,2.286000X8.128000*%
%ADD12R,1.905000X1.905000*%
%ADD13C,1.905000*%
%ADD14C,2.506980*%
%ADD15C,4.572000*%
%ADD16C,1.879600*%
%ADD17C,4.508500*%
%ADD18R,2.032000X2.032000*%
%ADD19C,2.032000*%
%ADD20C,3.007360*%
%ADD21C,2.308860*%
%ADD22C,0.254000*%
G04 APERTURE END LIST*
D10*
D11*
X185420000Y-145732500D03*
X182880000Y-145732500D03*
X180340000Y-145732500D03*
X177800000Y-145732500D03*
X175260000Y-145732500D03*
X172720000Y-145732500D03*
X170180000Y-145732500D03*
X167640000Y-145732500D03*
X165100000Y-145732500D03*
X162560000Y-145732500D03*
X160020000Y-145732500D03*
X157480000Y-145732500D03*
X154940000Y-145732500D03*
X152400000Y-145732500D03*
X149860000Y-145732500D03*
X147320000Y-145732500D03*
X144780000Y-145732500D03*
X142240000Y-145732500D03*
X139700000Y-145732500D03*
X137160000Y-145732500D03*
X134620000Y-145732500D03*
X132080000Y-145732500D03*
X129540000Y-145732500D03*
X127000000Y-145732500D03*
X124460000Y-145732500D03*
X121920000Y-145732500D03*
X119380000Y-145732500D03*
X116840000Y-145732500D03*
X114300000Y-145732500D03*
X111760000Y-145732500D03*
X109220000Y-145732500D03*
D12*
X66040000Y-91440000D03*
D13*
X68580000Y-91440000D03*
X71120000Y-91440000D03*
X73660000Y-91440000D03*
X76200000Y-91440000D03*
X78740000Y-91440000D03*
X81280000Y-91440000D03*
X83820000Y-91440000D03*
X86360000Y-91440000D03*
X88900000Y-91440000D03*
X91440000Y-91440000D03*
X93980000Y-91440000D03*
X96520000Y-91440000D03*
X99060000Y-91440000D03*
X101600000Y-91440000D03*
X104140000Y-91440000D03*
X104140000Y-76200000D03*
X101600000Y-76200000D03*
X99060000Y-76200000D03*
X96520000Y-76200000D03*
X93980000Y-76200000D03*
X91440000Y-76200000D03*
X88900000Y-76200000D03*
X86360000Y-76200000D03*
X83820000Y-76200000D03*
X81280000Y-76200000D03*
X78740000Y-76200000D03*
X76200000Y-76200000D03*
X73660000Y-76200000D03*
X71120000Y-76200000D03*
X68580000Y-76200000D03*
X66040000Y-76200000D03*
X65328800Y-68580000D03*
X71831200Y-68580000D03*
D12*
X162560000Y-124460000D03*
D13*
X162560000Y-121920000D03*
X165100000Y-124460000D03*
X165100000Y-121920000D03*
X167640000Y-124460000D03*
X167640000Y-121920000D03*
X170180000Y-124460000D03*
X170180000Y-121920000D03*
X172720000Y-124460000D03*
X172720000Y-121920000D03*
X175260000Y-124460000D03*
X177800000Y-121920000D03*
X175260000Y-121920000D03*
X177800000Y-119380000D03*
X175260000Y-119380000D03*
X177800000Y-116840000D03*
X175260000Y-116840000D03*
X177800000Y-114300000D03*
X175260000Y-114300000D03*
X177800000Y-111760000D03*
X175260000Y-111760000D03*
X177800000Y-109220000D03*
X175260000Y-109220000D03*
X177800000Y-106680000D03*
X175260000Y-106680000D03*
X177800000Y-104140000D03*
X175260000Y-104140000D03*
X177800000Y-101600000D03*
X175260000Y-101600000D03*
X177800000Y-99060000D03*
X175260000Y-99060000D03*
X177800000Y-96520000D03*
X175260000Y-93980000D03*
X175260000Y-96520000D03*
X172720000Y-93980000D03*
X172720000Y-96520000D03*
X170180000Y-93980000D03*
X170180000Y-96520000D03*
X167640000Y-93980000D03*
X167640000Y-96520000D03*
X165100000Y-93980000D03*
X165100000Y-96520000D03*
X162560000Y-93980000D03*
X162560000Y-96520000D03*
X160020000Y-93980000D03*
X160020000Y-96520000D03*
X157480000Y-93980000D03*
X157480000Y-96520000D03*
X154940000Y-93980000D03*
X154940000Y-96520000D03*
X152400000Y-93980000D03*
X152400000Y-96520000D03*
X149860000Y-93980000D03*
X147320000Y-96520000D03*
X149860000Y-96520000D03*
X147320000Y-99060000D03*
X149860000Y-99060000D03*
X147320000Y-101600000D03*
X149860000Y-101600000D03*
X147320000Y-104140000D03*
X149860000Y-104140000D03*
X147320000Y-106680000D03*
X149860000Y-106680000D03*
X147320000Y-109220000D03*
X149860000Y-109220000D03*
X147320000Y-111760000D03*
X149860000Y-111760000D03*
X147320000Y-114300000D03*
X149860000Y-114300000D03*
X147320000Y-116840000D03*
X149860000Y-116840000D03*
X147320000Y-119380000D03*
X149860000Y-119380000D03*
X147320000Y-121920000D03*
X149860000Y-124460000D03*
X149860000Y-121920000D03*
X152400000Y-124460000D03*
X152400000Y-121920000D03*
X154940000Y-124460000D03*
X154940000Y-121920000D03*
X157480000Y-124460000D03*
X157480000Y-121920000D03*
X160020000Y-124460000D03*
X160020000Y-121920000D03*
D12*
X66040000Y-111760000D03*
D13*
X68580000Y-111760000D03*
X71120000Y-111760000D03*
X73660000Y-111760000D03*
X76200000Y-111760000D03*
X78740000Y-111760000D03*
X81280000Y-111760000D03*
X83820000Y-111760000D03*
X86360000Y-111760000D03*
X88900000Y-111760000D03*
X91440000Y-111760000D03*
X93980000Y-111760000D03*
X96520000Y-111760000D03*
X99060000Y-111760000D03*
X101600000Y-111760000D03*
X104140000Y-111760000D03*
X104140000Y-96520000D03*
X101600000Y-96520000D03*
X99060000Y-96520000D03*
X96520000Y-96520000D03*
X93980000Y-96520000D03*
X91440000Y-96520000D03*
X88900000Y-96520000D03*
X86360000Y-96520000D03*
X83820000Y-96520000D03*
X81280000Y-96520000D03*
X78740000Y-96520000D03*
X76200000Y-96520000D03*
X73660000Y-96520000D03*
X71120000Y-96520000D03*
X68580000Y-96520000D03*
X66040000Y-96520000D03*
D12*
X88900000Y-71120000D03*
D13*
X91440000Y-71120000D03*
X93980000Y-71120000D03*
X96520000Y-71120000D03*
X99060000Y-71120000D03*
X101600000Y-71120000D03*
X104140000Y-71120000D03*
X104140000Y-63500000D03*
X101600000Y-63500000D03*
X99060000Y-63500000D03*
X96520000Y-63500000D03*
X93980000Y-63500000D03*
X91440000Y-63500000D03*
X88900000Y-63500000D03*
X88900000Y-60960000D03*
X96520000Y-60960000D03*
D12*
X147320000Y-66040000D03*
D13*
X149860000Y-66040000D03*
X152400000Y-66040000D03*
X154940000Y-66040000D03*
X157480000Y-66040000D03*
X160020000Y-66040000D03*
X162560000Y-66040000D03*
X165100000Y-66040000D03*
X167640000Y-66040000D03*
X170180000Y-66040000D03*
X172720000Y-66040000D03*
X175260000Y-66040000D03*
X177800000Y-66040000D03*
X180340000Y-66040000D03*
X182880000Y-66040000D03*
X185420000Y-66040000D03*
X187960000Y-66040000D03*
X190500000Y-66040000D03*
X193040000Y-66040000D03*
X195580000Y-66040000D03*
X195580000Y-50800000D03*
X193040000Y-50800000D03*
X190500000Y-50800000D03*
X187960000Y-50800000D03*
X185420000Y-50800000D03*
X182880000Y-50800000D03*
X180340000Y-50800000D03*
X177800000Y-50800000D03*
X175260000Y-50800000D03*
X172720000Y-50800000D03*
X170180000Y-50800000D03*
X167640000Y-50800000D03*
X165100000Y-50800000D03*
X162560000Y-50800000D03*
X160020000Y-50800000D03*
X157480000Y-50800000D03*
X154940000Y-50800000D03*
X152400000Y-50800000D03*
X149860000Y-50800000D03*
X147320000Y-50800000D03*
D12*
X76200000Y-63500000D03*
D13*
X78740000Y-63500000D03*
X81280000Y-63500000D03*
X142240000Y-71120000D03*
X142240000Y-76200000D03*
X142240000Y-50800000D03*
X142240000Y-55880000D03*
X162560000Y-88900000D03*
X167640000Y-88900000D03*
X61595000Y-76200000D03*
X61595000Y-81280000D03*
X61595000Y-116840000D03*
X61595000Y-121920000D03*
X61595000Y-96520000D03*
X61595000Y-101600000D03*
X109220000Y-76200000D03*
X109220000Y-81280000D03*
X109220000Y-63500000D03*
X109220000Y-68580000D03*
X109220000Y-88900000D03*
X109220000Y-93980000D03*
X109220000Y-101600000D03*
X109220000Y-106680000D03*
X109220000Y-127000000D03*
X109220000Y-132080000D03*
X109220000Y-114300000D03*
X109220000Y-119380000D03*
X83820000Y-63500000D03*
X83820000Y-68580000D03*
X185420000Y-101600000D03*
X185420000Y-96520000D03*
D12*
X61595000Y-132397500D03*
D13*
X61595000Y-137477500D03*
D12*
X142240000Y-63500000D03*
D13*
X142240000Y-68580000D03*
D12*
X205740000Y-51117500D03*
D13*
X205740000Y-56197500D03*
D14*
X184150000Y-121920000D03*
X189230000Y-121920000D03*
D13*
X193040000Y-109220000D03*
X193040000Y-114300000D03*
X81280000Y-68580000D03*
X76200000Y-68580000D03*
X198120000Y-93980000D03*
D12*
X190500000Y-93980000D03*
D13*
X204470000Y-90170000D03*
X204470000Y-87630000D03*
D15*
X206121000Y-81280000D03*
X206121000Y-137795000D03*
D16*
X202311000Y-118140480D03*
X202311000Y-115539520D03*
X199819260Y-113489740D03*
X199819260Y-120190260D03*
X202311000Y-120190260D03*
X202311000Y-113489740D03*
D17*
X206121000Y-116840000D03*
X205310740Y-110081060D03*
X205310740Y-123598940D03*
D18*
X60960000Y-72390000D03*
D19*
X60960000Y-69850000D03*
X60960000Y-67310000D03*
X60960000Y-64770000D03*
D18*
X203200000Y-71437500D03*
D19*
X205740000Y-71437500D03*
D13*
X74930000Y-71120000D03*
X82550000Y-71120000D03*
X121920000Y-124460000D03*
X129540000Y-124460000D03*
X111760000Y-124460000D03*
X119380000Y-124460000D03*
X203200000Y-58420000D03*
X203200000Y-66040000D03*
X205740000Y-58420000D03*
X205740000Y-66040000D03*
X76200000Y-93980000D03*
X68580000Y-93980000D03*
D12*
X167640000Y-68580000D03*
D13*
X170180000Y-68580000D03*
X172720000Y-68580000D03*
X175260000Y-68580000D03*
X177800000Y-68580000D03*
X180340000Y-68580000D03*
X182880000Y-68580000D03*
X185420000Y-68580000D03*
X187960000Y-68580000D03*
X190500000Y-68580000D03*
D12*
X162560000Y-134620000D03*
D13*
X165100000Y-134620000D03*
X167640000Y-134620000D03*
X170180000Y-134620000D03*
X172720000Y-134620000D03*
X175260000Y-134620000D03*
X177800000Y-134620000D03*
X180340000Y-134620000D03*
X182880000Y-134620000D03*
X185420000Y-134620000D03*
D20*
X204470000Y-102562660D03*
X204470000Y-95562420D03*
D21*
X206969360Y-101312980D03*
X206969360Y-96812100D03*
D12*
X147320000Y-86360000D03*
D13*
X149860000Y-86360000D03*
X152400000Y-86360000D03*
X154940000Y-86360000D03*
X157480000Y-86360000D03*
X160020000Y-86360000D03*
X162560000Y-86360000D03*
X165100000Y-86360000D03*
X167640000Y-86360000D03*
X170180000Y-86360000D03*
X172720000Y-86360000D03*
X175260000Y-86360000D03*
X177800000Y-86360000D03*
X180340000Y-86360000D03*
X182880000Y-86360000D03*
X185420000Y-86360000D03*
X187960000Y-86360000D03*
X190500000Y-86360000D03*
X193040000Y-86360000D03*
X195580000Y-86360000D03*
X195580000Y-71120000D03*
X193040000Y-71120000D03*
X190500000Y-71120000D03*
X187960000Y-71120000D03*
X185420000Y-71120000D03*
X182880000Y-71120000D03*
X180340000Y-71120000D03*
X177800000Y-71120000D03*
X175260000Y-71120000D03*
X172720000Y-71120000D03*
X170180000Y-71120000D03*
X167640000Y-71120000D03*
X165100000Y-71120000D03*
X162560000Y-71120000D03*
X160020000Y-71120000D03*
X157480000Y-71120000D03*
X154940000Y-71120000D03*
X152400000Y-71120000D03*
X149860000Y-71120000D03*
X147320000Y-71120000D03*
D12*
X66040000Y-132080000D03*
D13*
X68580000Y-132080000D03*
X71120000Y-132080000D03*
X73660000Y-132080000D03*
X76200000Y-132080000D03*
X78740000Y-132080000D03*
X81280000Y-132080000D03*
X83820000Y-132080000D03*
X86360000Y-132080000D03*
X88900000Y-132080000D03*
X91440000Y-132080000D03*
X93980000Y-132080000D03*
X96520000Y-132080000D03*
X99060000Y-132080000D03*
X101600000Y-132080000D03*
X104140000Y-132080000D03*
X104140000Y-116840000D03*
X101600000Y-116840000D03*
X99060000Y-116840000D03*
X96520000Y-116840000D03*
X93980000Y-116840000D03*
X91440000Y-116840000D03*
X88900000Y-116840000D03*
X86360000Y-116840000D03*
X83820000Y-116840000D03*
X81280000Y-116840000D03*
X78740000Y-116840000D03*
X76200000Y-116840000D03*
X73660000Y-116840000D03*
X71120000Y-116840000D03*
X68580000Y-116840000D03*
X66040000Y-116840000D03*
D12*
X114300000Y-83820000D03*
D13*
X116840000Y-83820000D03*
X119380000Y-83820000D03*
X121920000Y-83820000D03*
X124460000Y-83820000D03*
X127000000Y-83820000D03*
X129540000Y-83820000D03*
X132080000Y-83820000D03*
X134620000Y-83820000D03*
X137160000Y-83820000D03*
X137160000Y-76200000D03*
X134620000Y-76200000D03*
X132080000Y-76200000D03*
X129540000Y-76200000D03*
X127000000Y-76200000D03*
X124460000Y-76200000D03*
X121920000Y-76200000D03*
X119380000Y-76200000D03*
X116840000Y-76200000D03*
X114300000Y-76200000D03*
D12*
X114300000Y-71120000D03*
D13*
X116840000Y-71120000D03*
X119380000Y-71120000D03*
X121920000Y-71120000D03*
X124460000Y-71120000D03*
X127000000Y-71120000D03*
X129540000Y-71120000D03*
X132080000Y-71120000D03*
X134620000Y-71120000D03*
X137160000Y-71120000D03*
X137160000Y-63500000D03*
X134620000Y-63500000D03*
X132080000Y-63500000D03*
X129540000Y-63500000D03*
X127000000Y-63500000D03*
X124460000Y-63500000D03*
X121920000Y-63500000D03*
X119380000Y-63500000D03*
X116840000Y-63500000D03*
X114300000Y-63500000D03*
D12*
X114300000Y-96520000D03*
D13*
X116840000Y-96520000D03*
X119380000Y-96520000D03*
X121920000Y-96520000D03*
X124460000Y-96520000D03*
X127000000Y-96520000D03*
X129540000Y-96520000D03*
X132080000Y-96520000D03*
X134620000Y-96520000D03*
X137160000Y-96520000D03*
X137160000Y-88900000D03*
X134620000Y-88900000D03*
X132080000Y-88900000D03*
X129540000Y-88900000D03*
X127000000Y-88900000D03*
X124460000Y-88900000D03*
X121920000Y-88900000D03*
X119380000Y-88900000D03*
X116840000Y-88900000D03*
X114300000Y-88900000D03*
D12*
X114300000Y-109220000D03*
D13*
X116840000Y-109220000D03*
X119380000Y-109220000D03*
X121920000Y-109220000D03*
X124460000Y-109220000D03*
X127000000Y-109220000D03*
X129540000Y-109220000D03*
X132080000Y-109220000D03*
X134620000Y-109220000D03*
X137160000Y-109220000D03*
X137160000Y-101600000D03*
X134620000Y-101600000D03*
X132080000Y-101600000D03*
X129540000Y-101600000D03*
X127000000Y-101600000D03*
X124460000Y-101600000D03*
X121920000Y-101600000D03*
X119380000Y-101600000D03*
X116840000Y-101600000D03*
X114300000Y-101600000D03*
D12*
X114300000Y-134620000D03*
D13*
X116840000Y-134620000D03*
X119380000Y-134620000D03*
X121920000Y-134620000D03*
X124460000Y-134620000D03*
X127000000Y-134620000D03*
X129540000Y-134620000D03*
X132080000Y-134620000D03*
X134620000Y-134620000D03*
X137160000Y-134620000D03*
X137160000Y-127000000D03*
X134620000Y-127000000D03*
X132080000Y-127000000D03*
X129540000Y-127000000D03*
X127000000Y-127000000D03*
X124460000Y-127000000D03*
X121920000Y-127000000D03*
X119380000Y-127000000D03*
X116840000Y-127000000D03*
X114300000Y-127000000D03*
D12*
X114300000Y-121920000D03*
D13*
X116840000Y-121920000D03*
X119380000Y-121920000D03*
X121920000Y-121920000D03*
X124460000Y-121920000D03*
X127000000Y-121920000D03*
X129540000Y-121920000D03*
X132080000Y-121920000D03*
X134620000Y-121920000D03*
X137160000Y-121920000D03*
X137160000Y-114300000D03*
X134620000Y-114300000D03*
X132080000Y-114300000D03*
X129540000Y-114300000D03*
X127000000Y-114300000D03*
X124460000Y-114300000D03*
X121920000Y-114300000D03*
X119380000Y-114300000D03*
X116840000Y-114300000D03*
X114300000Y-114300000D03*
D12*
X190500000Y-104140000D03*
D13*
X193040000Y-104140000D03*
X195580000Y-104140000D03*
X198120000Y-104140000D03*
X198120000Y-96520000D03*
X195580000Y-96520000D03*
X193040000Y-96520000D03*
X190500000Y-96520000D03*
X185420000Y-114200940D03*
X185420000Y-109319060D03*
X162560000Y-129540000D03*
X167640000Y-129540000D03*
D12*
X147320000Y-134620000D03*
D13*
X149860000Y-134620000D03*
X152400000Y-134620000D03*
X154940000Y-134620000D03*
X157480000Y-134620000D03*
X160020000Y-134620000D03*
D12*
X190500000Y-106680000D03*
D13*
X193040000Y-106680000D03*
X195580000Y-106680000D03*
X198120000Y-106680000D03*
X200660000Y-106680000D03*
X203200000Y-106680000D03*
X109220000Y-50800000D03*
X109220000Y-55880000D03*
D12*
X114300000Y-58420000D03*
D13*
X116840000Y-58420000D03*
X119380000Y-58420000D03*
X121920000Y-58420000D03*
X124460000Y-58420000D03*
X127000000Y-58420000D03*
X129540000Y-58420000D03*
X132080000Y-58420000D03*
X134620000Y-58420000D03*
X137160000Y-58420000D03*
X137160000Y-50800000D03*
X134620000Y-50800000D03*
X132080000Y-50800000D03*
X129540000Y-50800000D03*
X127000000Y-50800000D03*
X124460000Y-50800000D03*
X121920000Y-50800000D03*
X119380000Y-50800000D03*
X116840000Y-50800000D03*
X114300000Y-50800000D03*
D12*
X81280000Y-58420000D03*
D13*
X83820000Y-58420000D03*
X86360000Y-58420000D03*
X88900000Y-58420000D03*
X91440000Y-58420000D03*
X93980000Y-58420000D03*
X96520000Y-58420000D03*
X99060000Y-58420000D03*
X101600000Y-58420000D03*
X104140000Y-58420000D03*
X104140000Y-50800000D03*
X101600000Y-50800000D03*
X99060000Y-50800000D03*
X96520000Y-50800000D03*
X93980000Y-50800000D03*
X91440000Y-50800000D03*
X88900000Y-50800000D03*
X86360000Y-50800000D03*
X83820000Y-50800000D03*
X81280000Y-50800000D03*
D12*
X60960000Y-60960000D03*
D13*
X63500000Y-60960000D03*
X66040000Y-60960000D03*
X68580000Y-60960000D03*
X71120000Y-60960000D03*
X73660000Y-60960000D03*
X76200000Y-50800000D03*
X76200000Y-55880000D03*
X205105000Y-129540000D03*
X200025000Y-129540000D03*
D12*
X190500000Y-134620000D03*
D13*
X193040000Y-134620000D03*
X195580000Y-134620000D03*
X195580000Y-127000000D03*
X193040000Y-127000000D03*
X190500000Y-127000000D03*
D12*
X60960000Y-58420000D03*
D13*
X63500000Y-58420000D03*
X66040000Y-58420000D03*
X68580000Y-58420000D03*
X71120000Y-58420000D03*
X71120000Y-50800000D03*
X68580000Y-50800000D03*
X66040000Y-50800000D03*
X63500000Y-50800000D03*
X60960000Y-50800000D03*
D19*
X141922500Y-99060000D03*
X141922500Y-96520000D03*
X193040000Y-120650000D03*
X193040000Y-123190000D03*
D13*
X190500000Y-109220000D03*
X190500000Y-116840000D03*
D19*
X61595000Y-92710000D03*
X61595000Y-90170000D03*
X141922500Y-93980000D03*
X141922500Y-91440000D03*
D22*
G36*
X187833000Y-149733000D02*
X106807000Y-149733000D01*
X106807000Y-141732000D01*
X187833000Y-141732000D01*
X187833000Y-149733000D01*
X187833000Y-149733000D01*
G37*
X187833000Y-149733000D02*
X106807000Y-149733000D01*
X106807000Y-141732000D01*
X187833000Y-141732000D01*
X187833000Y-149733000D01*
M02*
